<?xml version="1.0" encoding="iso-8859-1"?>
<!-- Generator: Adobe Illustrator 19.0.0, SVG Export Plug-In . SVG Version: 6.00 Build 0)  -->
<svg version="1.1" id="Layer_1" xmlns="http://www.w3.org/2000/svg" xmlns:xlink="http://www.w3.org/1999/xlink" x="0px" y="0px"
	 viewBox="0 0 512.043 512.043" style="enable-background:new 0 0 512.043 512.043;" xml:space="preserve">
<g>
	<g>
		<path d="M415.499,319.574L127.947,6.934C114.788-7.373,90.912,1.938,90.912,21.376V490.71c0,11.782,9.551,21.333,21.333,21.333
			h85.333c11.782,0,21.333-9.551,21.333-21.333V290.871L320.74,405.566c7.888,8.885,21.516,9.613,30.306,1.619l63.104-57.387
			C422.902,341.841,423.507,328.281,415.499,319.574z M338.313,361.095L213.532,220.546c-13.028-14.674-37.287-5.459-37.287,14.164
			v234.667h-42.667V76.084l235.993,256.583L338.313,361.095z"/>
	</g>
</g>
<g>
</g>
<g>
</g>
<g>
</g>
<g>
</g>
<g>
</g>
<g>
</g>
<g>
</g>
<g>
</g>
<g>
</g>
<g>
</g>
<g>
</g>
<g>
</g>
<g>
</g>
<g>
</g>
<g>
</g>
</svg>
