<?xml version="1.0" encoding="iso-8859-1"?>
<!-- Generator: Adobe Illustrator 19.0.0, SVG Export Plug-In . SVG Version: 6.00 Build 0)  -->
<svg version="1.1" id="Layer_1" xmlns="http://www.w3.org/2000/svg" xmlns:xlink="http://www.w3.org/1999/xlink" x="0px" y="0px"
	 viewBox="0 0 512.475 512.475" style="enable-background:new 0 0 512.475 512.475;" xml:space="preserve">
<g>
	<g>
		<g>
			<path d="M505.658,105.804c9.087-9.087,9.089-23.821,0.003-32.91L439.846,7.056c-9.089-9.092-23.829-9.092-32.918,0
				l-65.815,65.839c-27.302,27.285-71.451,27.285-98.738-0.003c-14.06-14.06-38.136-5.153-39.66,14.672L187.95,279.511h-71.586
				c-12.853,0-23.273,10.42-23.273,23.273v38.039C63.69,296.595,46.545,243.514,46.545,186.42c0-12.853-10.42-23.273-23.273-23.273
				C10.42,163.148,0,173.567,0,186.42c0,179.951,145.867,325.818,325.818,325.818c12.853,0,23.273-10.42,23.273-23.273
				s-10.42-23.273-23.273-23.273c-57.094,0-110.174-17.144-154.403-46.545h38.039c12.853,0,23.273-10.42,23.273-23.273v-71.052
				l192.444-14.802c19.821-1.525,28.729-25.594,14.677-39.655c-27.293-27.31-27.293-71.459-0.005-98.746L505.658,105.804z
				 M423.387,56.427l32.906,32.917l-32.906,32.906l-32.906-32.906L423.387,56.427z M186.182,372.602h-46.545v-46.545h46.545V372.602
				z M234.75,277.984l11.336-147.386c35.493,15.132,76.952,11.791,109.828-9.995l36.213,36.213
				c-21.787,32.869-25.124,74.33-9.987,109.831L234.75,277.984z"/>
			<path d="M291.735,188.075c-9.1,9.1-9.1,23.831,0,32.908c9.1,9.1,23.831,9.1,32.908,0c9.1-9.076,9.1-23.808,0-32.908
				C315.567,178.975,300.835,178.975,291.735,188.075z"/>
		</g>
	</g>
</g>
<g>
</g>
<g>
</g>
<g>
</g>
<g>
</g>
<g>
</g>
<g>
</g>
<g>
</g>
<g>
</g>
<g>
</g>
<g>
</g>
<g>
</g>
<g>
</g>
<g>
</g>
<g>
</g>
<g>
</g>
</svg>
