<?xml version="1.0" encoding="iso-8859-1"?>
<!-- Generator: Adobe Illustrator 19.0.0, SVG Export Plug-In . SVG Version: 6.00 Build 0)  -->
<svg version="1.1" id="Layer_1" xmlns="http://www.w3.org/2000/svg" xmlns:xlink="http://www.w3.org/1999/xlink" x="0px" y="0px"
	 viewBox="0 0 512 512" style="enable-background:new 0 0 512 512;" xml:space="preserve">
<g>
	<g>
		<g>
			<path d="M320,128h-21.333V21.333C298.667,9.551,289.115,0,277.333,0h-256C9.551,0,0,9.551,0,21.333v256
				c0,11.782,9.551,21.333,21.333,21.333H128V320c0,11.782,9.551,21.333,21.333,21.333c11.782,0,21.333-9.551,21.333-21.333v-21.333
				c0-3.89-1.058-7.526-2.877-10.667c1.819-3.14,2.877-6.776,2.877-10.667v-64V192v-21.333H192h21.333h64
				c3.89,0,7.526-1.058,10.667-2.877c3.14,1.819,6.776,2.877,10.667,2.877H320c11.782,0,21.333-9.551,21.333-21.333
				C341.333,137.551,331.782,128,320,128z M256,128h-42.667H192h-42.667C137.551,128,128,137.551,128,149.333V192v21.333V256H42.667
				V42.667H256V128z"/>
			<path d="M384,469.333h-21.333c-11.782,0-21.333,9.551-21.333,21.333S350.885,512,362.667,512H384
				c11.782,0,21.333-9.551,21.333-21.333S395.782,469.333,384,469.333z"/>
			<path d="M170.667,469.333h-21.333c-11.782,0-21.333,9.551-21.333,21.333S137.551,512,149.333,512h21.333
				c11.782,0,21.333-9.551,21.333-21.333S182.449,469.333,170.667,469.333z"/>
			<path d="M149.333,448c11.782,0,21.333-9.551,21.333-21.333v-21.333c0-11.782-9.551-21.333-21.333-21.333
				C137.551,384,128,393.551,128,405.333v21.333C128,438.449,137.551,448,149.333,448z"/>
			<path d="M277.333,469.333H256c-11.782,0-21.333,9.551-21.333,21.333S244.218,512,256,512h21.333
				c11.782,0,21.333-9.551,21.333-21.333S289.115,469.333,277.333,469.333z"/>
			<path d="M426.667,128h-21.333C393.551,128,384,137.551,384,149.333c0,11.782,9.551,21.333,21.333,21.333h21.333
				c11.782,0,21.333-9.551,21.333-21.333C448,137.551,438.449,128,426.667,128z"/>
			<path d="M490.667,149.333c-11.782,0-21.333,9.551-21.333,21.333V192c0,11.782,9.551,21.333,21.333,21.333S512,203.782,512,192
				v-21.333C512,158.885,502.449,149.333,490.667,149.333z"/>
			<path d="M490.667,256c-11.782,0-21.333,9.551-21.333,21.333v21.333c0,11.782,9.551,21.333,21.333,21.333S512,310.449,512,298.667
				v-21.333C512,265.551,502.449,256,490.667,256z"/>
			<path d="M490.667,362.667c-11.782,0-21.333,9.551-21.333,21.333v21.333c0,11.782,9.551,21.333,21.333,21.333
				S512,417.115,512,405.333V384C512,372.218,502.449,362.667,490.667,362.667z"/>
			<path d="M490.667,448c-11.782,0-21.333,9.551-21.333,21.333c-11.782,0-21.333,9.551-21.333,21.333S457.551,512,469.333,512
				h21.333c11.782,0,21.333-9.551,21.333-21.333v-21.333C512,457.551,502.449,448,490.667,448z"/>
		</g>
	</g>
</g>
<g>
</g>
<g>
</g>
<g>
</g>
<g>
</g>
<g>
</g>
<g>
</g>
<g>
</g>
<g>
</g>
<g>
</g>
<g>
</g>
<g>
</g>
<g>
</g>
<g>
</g>
<g>
</g>
<g>
</g>
</svg>
