<?xml version="1.0" encoding="iso-8859-1"?>
<!-- Generator: Adobe Illustrator 19.0.0, SVG Export Plug-In . SVG Version: 6.00 Build 0)  -->
<svg version="1.1" id="Layer_1" xmlns="http://www.w3.org/2000/svg" xmlns:xlink="http://www.w3.org/1999/xlink" x="0px" y="0px"
	 viewBox="0 0 512 512" style="enable-background:new 0 0 512 512;" xml:space="preserve">
<g>
	<g>
		<g>
			<path d="M192,42.667h21.333c11.782,0,21.333-9.551,21.333-21.333C234.667,9.551,225.115,0,213.333,0H192
				c-11.782,0-21.333,9.551-21.333,21.333C170.667,33.115,180.218,42.667,192,42.667z"/>
			<path d="M298.667,42.667C298.667,54.449,308.218,64,320,64s21.333-9.551,21.333-21.333V21.333C341.333,9.551,331.782,0,320,0
				h-21.333c-11.782,0-21.333,9.551-21.333,21.333C277.333,33.115,286.885,42.667,298.667,42.667z"/>
			<path d="M21.333,192c11.782,0,21.333-9.551,21.333-21.333v-21.333c0-11.782-9.551-21.333-21.333-21.333
				C9.551,128,0,137.551,0,149.333v21.333C0,182.449,9.551,192,21.333,192z"/>
			<path d="M320,85.333c-11.782,0-21.333,9.551-21.333,21.333V128c0,11.782,9.551,21.333,21.333,21.333s21.333-9.551,21.333-21.333
				v-21.333C341.333,94.885,331.782,85.333,320,85.333z"/>
			<path d="M21.333,85.333c11.782,0,21.333-9.551,21.333-21.333V42.667c0-11.782-9.551-21.333-21.333-21.333
				C9.551,21.333,0,30.885,0,42.667V64C0,75.782,9.551,85.333,21.333,85.333z"/>
			<path d="M106.667,0H85.333C73.551,0,64,9.551,64,21.333c0,11.782,9.551,21.333,21.333,21.333h21.333
				c11.782,0,21.333-9.551,21.333-21.333C128,9.551,118.449,0,106.667,0z"/>
			<path d="M85.333,298.667H64c-11.782,0-21.333,9.551-21.333,21.333S52.218,341.333,64,341.333h21.333
				c11.782,0,21.333-9.551,21.333-21.333S97.115,298.667,85.333,298.667z"/>
			<path d="M42.667,256c0-11.782-9.551-21.333-21.333-21.333C9.551,234.667,0,244.218,0,256v21.333
				c0,11.782,9.551,21.333,21.333,21.333c11.782,0,21.333-9.551,21.333-21.333V256z"/>
			<path d="M490.667,170.667H320c-11.782,0-21.333,9.551-21.333,21.333v21.333v21.333v64h-85.333H192h-21.333
				c-11.782,0-21.333,9.551-21.333,21.333s9.551,21.333,21.333,21.333v149.333c0,11.782,9.551,21.333,21.333,21.333h298.667
				c11.782,0,21.333-9.551,21.333-21.333V192C512,180.218,502.449,170.667,490.667,170.667z M469.333,469.333h-256v-128h85.333H320
				c11.782,0,21.333-9.551,21.333-21.333v-85.333v-21.333h128V469.333z"/>
		</g>
	</g>
</g>
<g>
</g>
<g>
</g>
<g>
</g>
<g>
</g>
<g>
</g>
<g>
</g>
<g>
</g>
<g>
</g>
<g>
</g>
<g>
</g>
<g>
</g>
<g>
</g>
<g>
</g>
<g>
</g>
<g>
</g>
</svg>
