<?xml version="1.0" encoding="iso-8859-1"?>
<!-- Generator: Adobe Illustrator 19.0.0, SVG Export Plug-In . SVG Version: 6.00 Build 0)  -->
<svg version="1.1" id="Layer_1" xmlns="http://www.w3.org/2000/svg" xmlns:xlink="http://www.w3.org/1999/xlink" x="0px" y="0px"
	 viewBox="0 0 512 512" style="enable-background:new 0 0 512 512;" xml:space="preserve">
<g>
	<g>
		<g>
			<path d="M302.545,465.455h-23.273c-12.853,0-23.273,10.42-23.273,23.273S266.42,512,279.273,512h23.273
				c12.853,0,23.273-10.42,23.273-23.273S315.399,465.455,302.545,465.455z"/>
			<path d="M186.182,256v-23.273c0-12.853-10.42-23.273-23.273-23.273c-12.853,0-23.273,10.42-23.273,23.273V256
				c0,12.853,10.42,23.273,23.273,23.273C175.762,279.273,186.182,268.853,186.182,256z"/>
			<path d="M209.455,139.636h-23.273c-12.853,0-23.273,10.42-23.273,23.273c0,12.853,10.42,23.273,23.273,23.273h23.273
				c12.853,0,23.273-10.42,23.273-23.273C232.727,150.056,222.308,139.636,209.455,139.636z"/>
			<path d="M139.636,349.091v23.273c0,12.853,10.42,23.273,23.273,23.273c12.853,0,23.273-10.42,23.273-23.273v-23.273
				c0-12.853-10.42-23.273-23.273-23.273C150.056,325.818,139.636,336.238,139.636,349.091z"/>
			<path d="M186.182,465.455c0-12.853-10.42-23.273-23.273-23.273c-12.853,0-23.273,10.42-23.273,23.273v23.273
				c0,12.853,10.42,23.273,23.273,23.273h23.273c12.853,0,23.273-10.42,23.273-23.273S199.035,465.455,186.182,465.455z"/>
			<path d="M488.727,302.545c-12.853,0-23.273,10.42-23.273,23.273v23.273c0,12.853,10.42,23.273,23.273,23.273
				S512,361.944,512,349.091v-23.273C512,312.965,501.58,302.545,488.727,302.545z"/>
			<path d="M488.727,418.909c-12.853,0-23.273,10.42-23.273,23.273v23.273c0,12.853,10.42,23.273,23.273,23.273
				S512,478.308,512,465.455v-23.273C512,429.329,501.58,418.909,488.727,418.909z"/>
			<path d="M488.727,186.182c-12.853,0-23.273,10.42-23.273,23.273v23.273c0,12.853,10.42,23.273,23.273,23.273
				S512,245.58,512,232.727v-23.273C512,196.601,501.58,186.182,488.727,186.182z"/>
			<path d="M325.818,139.636V23.273C325.818,10.42,315.399,0,302.545,0H23.273C10.42,0,0,10.42,0,23.273v279.273
				c0,12.853,10.42,23.273,23.273,23.273h139.636c12.853,0,23.273-10.42,23.273-23.273s-10.42-23.273-23.273-23.273H46.545V46.545
				h232.727v116.364c0,12.853,10.42,23.273,23.273,23.273h23.273c12.853,0,23.273-10.42,23.273-23.273
				C349.091,150.056,338.671,139.636,325.818,139.636z"/>
			<path d="M442.182,139.636h-23.273c-12.853,0-23.273,10.42-23.273,23.273c0,12.853,10.42,23.273,23.273,23.273h23.273
				c12.853,0,23.273-10.42,23.273-23.273C465.455,150.056,455.035,139.636,442.182,139.636z"/>
			<path d="M418.909,465.455h-23.273c-12.853,0-23.273,10.42-23.273,23.273S382.783,512,395.636,512h23.273
				c12.853,0,23.273-10.42,23.273-23.273S431.762,465.455,418.909,465.455z"/>
		</g>
	</g>
</g>
<g>
</g>
<g>
</g>
<g>
</g>
<g>
</g>
<g>
</g>
<g>
</g>
<g>
</g>
<g>
</g>
<g>
</g>
<g>
</g>
<g>
</g>
<g>
</g>
<g>
</g>
<g>
</g>
<g>
</g>
</svg>
