<?xml version="1.0" encoding="iso-8859-1"?>
<!-- Generator: Adobe Illustrator 19.0.0, SVG Export Plug-In . SVG Version: 6.00 Build 0)  -->
<svg version="1.1" id="Layer_1" xmlns="http://www.w3.org/2000/svg" xmlns:xlink="http://www.w3.org/1999/xlink" x="0px" y="0px"
	 viewBox="0 0 512 512" style="enable-background:new 0 0 512 512;" xml:space="preserve">
<g>
	<g>
		<path d="M490.667,405.333H448V106.667h42.667c11.782,0,21.333-9.551,21.333-21.333C512,73.551,502.449,64,490.667,64H448V21.333
			C448,9.551,438.449,0,426.667,0s-21.333,9.551-21.333,21.333V64H106.667V21.333C106.667,9.551,97.115,0,85.333,0
			C73.551,0,64,9.551,64,21.333V64H21.333C9.551,64,0,73.551,0,85.333c0,11.782,9.551,21.333,21.333,21.333H64v298.667H21.333
			C9.551,405.333,0,414.885,0,426.667S9.551,448,21.333,448H64v42.667C64,502.449,73.551,512,85.333,512
			c11.782,0,21.333-9.551,21.333-21.333V448h298.667v42.667c0,11.782,9.551,21.333,21.333,21.333S448,502.449,448,490.667V448
			h42.667c11.782,0,21.333-9.551,21.333-21.333S502.449,405.333,490.667,405.333z M106.667,405.333V106.667h298.667v298.667H106.667
			z"/>
	</g>
</g>
<g>
</g>
<g>
</g>
<g>
</g>
<g>
</g>
<g>
</g>
<g>
</g>
<g>
</g>
<g>
</g>
<g>
</g>
<g>
</g>
<g>
</g>
<g>
</g>
<g>
</g>
<g>
</g>
<g>
</g>
</svg>
