<?xml version="1.0" encoding="iso-8859-1"?>
<!-- Generator: Adobe Illustrator 19.0.0, SVG Export Plug-In . SVG Version: 6.00 Build 0)  -->
<svg version="1.1" id="Layer_1" xmlns="http://www.w3.org/2000/svg" xmlns:xlink="http://www.w3.org/1999/xlink" x="0px" y="0px"
	 viewBox="0 0 512 512" style="enable-background:new 0 0 512 512;" xml:space="preserve">
<g>
	<g>
		<g>
			<path d="M490.667,213.333c-11.782,0-21.333,9.551-21.333,21.333V256c0,11.782,9.551,21.333,21.333,21.333S512,267.782,512,256
				v-21.333C512,222.885,502.449,213.333,490.667,213.333z"/>
			<path d="M362.667,405.333V320v-21.333v-85.333V192v-85.333V85.333c0-11.782-9.551-21.333-21.333-21.333H170.667
				c-11.782,0-21.333,9.551-21.333,21.333V128v21.333v85.333V256v85.333v21.333v42.667H128c-11.782,0-21.333,9.551-21.333,21.333
				S116.218,448,128,448h21.333c3.89,0,7.526-1.058,10.667-2.877c3.14,1.819,6.776,2.877,10.667,2.877h170.667h21.333
				c11.782,0,21.333-9.551,21.333-21.333S374.449,405.333,362.667,405.333z M192,362.667v-21.333V256v-21.333v-85.333V128v-21.333
				h128V192v21.333v85.333V320v85.333H192V362.667z"/>
			<path d="M490.667,106.667c-11.782,0-21.333,9.551-21.333,21.333v21.333c0,11.782,9.551,21.333,21.333,21.333
				S512,161.115,512,149.333V128C512,116.218,502.449,106.667,490.667,106.667z"/>
			<path d="M448,106.667c11.782,0,21.333-9.551,21.333-21.333C469.333,73.551,459.782,64,448,64h-21.333
				c-11.782,0-21.333,9.551-21.333,21.333c0,11.782,9.551,21.333,21.333,21.333H448z"/>
			<path d="M490.667,320c-11.782,0-21.333,9.551-21.333,21.333v21.333c0,11.782,9.551,21.333,21.333,21.333S512,374.449,512,362.667
				v-21.333C512,329.551,502.449,320,490.667,320z"/>
			<path d="M469.333,405.333H448c-11.782,0-21.333,9.551-21.333,21.333S436.218,448,448,448h21.333
				c11.782,0,21.333-9.551,21.333-21.333S481.115,405.333,469.333,405.333z"/>
			<path d="M21.333,341.333c11.782,0,21.333-9.551,21.333-21.333v-21.333c0-11.782-9.551-21.333-21.333-21.333
				C9.551,277.333,0,286.885,0,298.667V320C0,331.782,9.551,341.333,21.333,341.333z"/>
			<path d="M21.333,128c11.782,0,21.333-9.551,21.333-21.333V85.333C42.667,73.551,33.115,64,21.333,64C9.551,64,0,73.551,0,85.333
				v21.333C0,118.449,9.551,128,21.333,128z"/>
			<path d="M21.333,234.667c11.782,0,21.333-9.551,21.333-21.333V192c0-11.782-9.551-21.333-21.333-21.333
				C9.551,170.667,0,180.218,0,192v21.333C0,225.115,9.551,234.667,21.333,234.667z"/>
			<path d="M42.667,405.333c0-11.782-9.551-21.333-21.333-21.333C9.551,384,0,393.551,0,405.333v21.333
				C0,438.449,9.551,448,21.333,448h21.333C54.449,448,64,438.449,64,426.667S54.449,405.333,42.667,405.333z"/>
			<path d="M128,64h-21.333c-11.782,0-21.333,9.551-21.333,21.333c0,11.782,9.551,21.333,21.333,21.333H128
				c11.782,0,21.333-9.551,21.333-21.333C149.333,73.551,139.782,64,128,64z"/>
		</g>
	</g>
</g>
<g>
</g>
<g>
</g>
<g>
</g>
<g>
</g>
<g>
</g>
<g>
</g>
<g>
</g>
<g>
</g>
<g>
</g>
<g>
</g>
<g>
</g>
<g>
</g>
<g>
</g>
<g>
</g>
<g>
</g>
</svg>
