<?xml version="1.0" encoding="iso-8859-1"?>
<!-- Generator: Adobe Illustrator 19.0.0, SVG Export Plug-In . SVG Version: 6.00 Build 0)  -->
<svg version="1.1" id="Layer_1" xmlns="http://www.w3.org/2000/svg" xmlns:xlink="http://www.w3.org/1999/xlink" x="0px" y="0px"
	 viewBox="0 0 512 512" style="enable-background:new 0 0 512 512;" xml:space="preserve">
<g>
	<g>
		<g>
			<path d="M426.667,42.667c-11.782,0-21.333,9.551-21.333,21.333v21.333c0,11.782,9.551,21.333,21.333,21.333
				S448,97.115,448,85.333V64C448,52.218,438.449,42.667,426.667,42.667z"/>
			<path d="M426.667,128c-11.782,0-21.333,9.551-21.333,21.333H320h-21.333h-85.333H192h-85.333
				c0-11.782-9.551-21.333-21.333-21.333C73.551,128,64,137.551,64,149.333v21.333v170.667c0,3.89,1.058,7.526,2.877,10.667
				C65.058,355.14,64,358.776,64,362.667V384c0,11.782,9.551,21.333,21.333,21.333c11.782,0,21.333-9.551,21.333-21.333v-21.333
				h42.667h21.333H256h21.333h85.333H384h42.667c11.782,0,21.333-9.551,21.333-21.333V170.667v-21.333
				C448,137.551,438.449,128,426.667,128z M405.333,320H384h-21.333h-85.333H256h-85.333h-21.333h-42.667V192H192h21.333h85.333H320
				h85.333V320z"/>
			<path d="M149.333,42.667h21.333c11.782,0,21.333-9.551,21.333-21.333C192,9.551,182.449,0,170.667,0h-21.333
				C137.551,0,128,9.551,128,21.333C128,33.115,137.551,42.667,149.333,42.667z"/>
			<path d="M256,42.667h21.333c11.782,0,21.333-9.551,21.333-21.333C298.667,9.551,289.115,0,277.333,0H256
				c-11.782,0-21.333,9.551-21.333,21.333C234.667,33.115,244.218,42.667,256,42.667z"/>
			<path d="M85.333,85.333c11.782,0,21.333-9.551,21.333-21.333V42.667c0-11.782-9.551-21.333-21.333-21.333
				C73.551,21.333,64,30.885,64,42.667V64C64,75.782,73.551,85.333,85.333,85.333z"/>
			<path d="M362.667,42.667H384c11.782,0,21.333-9.551,21.333-21.333C405.333,9.551,395.782,0,384,0h-21.333
				c-11.782,0-21.333,9.551-21.333,21.333C341.333,33.115,350.885,42.667,362.667,42.667z"/>
			<path d="M426.667,448c-11.782,0-21.333,9.551-21.333,21.333c-11.782,0-21.333,9.551-21.333,21.333S393.551,512,405.333,512
				h21.333c11.782,0,21.333-9.551,21.333-21.333v-21.333C448,457.551,438.449,448,426.667,448z"/>
			<path d="M320,469.333h-21.333c-11.782,0-21.333,9.551-21.333,21.333S286.885,512,298.667,512H320
				c11.782,0,21.333-9.551,21.333-21.333S331.782,469.333,320,469.333z"/>
			<path d="M405.333,384v21.333c0,11.782,9.551,21.333,21.333,21.333S448,417.115,448,405.333V384
				c0-11.782-9.551-21.333-21.333-21.333S405.333,372.218,405.333,384z"/>
			<path d="M106.667,469.333c0-11.782-9.551-21.333-21.333-21.333C73.551,448,64,457.551,64,469.333v21.333
				C64,502.449,73.551,512,85.333,512h21.333c11.782,0,21.333-9.551,21.333-21.333S118.449,469.333,106.667,469.333z"/>
			<path d="M213.333,469.333H192c-11.782,0-21.333,9.551-21.333,21.333S180.218,512,192,512h21.333
				c11.782,0,21.333-9.551,21.333-21.333S225.115,469.333,213.333,469.333z"/>
		</g>
	</g>
</g>
<g>
</g>
<g>
</g>
<g>
</g>
<g>
</g>
<g>
</g>
<g>
</g>
<g>
</g>
<g>
</g>
<g>
</g>
<g>
</g>
<g>
</g>
<g>
</g>
<g>
</g>
<g>
</g>
<g>
</g>
</svg>
