<?xml version="1.0" encoding="iso-8859-1"?>
<!-- Generator: Adobe Illustrator 19.0.0, SVG Export Plug-In . SVG Version: 6.00 Build 0)  -->
<svg version="1.1" id="Layer_1" xmlns="http://www.w3.org/2000/svg" xmlns:xlink="http://www.w3.org/1999/xlink" x="0px" y="0px"
	 viewBox="0 0 512 512" style="enable-background:new 0 0 512 512;" xml:space="preserve">
<g>
	<g>
		<g>
			<path d="M64,298.667H42.667c-11.782,0-21.333,9.551-21.333,21.333s9.551,21.333,21.333,21.333H64
				c11.782,0,21.333-9.551,21.333-21.333S75.782,298.667,64,298.667z"/>
			<path d="M149.333,21.333C149.333,9.551,139.782,0,128,0h-21.333C94.885,0,85.333,9.551,85.333,21.333
				c0,11.782,9.551,21.333,21.333,21.333H128C139.782,42.667,149.333,33.115,149.333,21.333z"/>
			<path d="M298.667,42.667C298.667,54.449,308.218,64,320,64s21.333-9.551,21.333-21.333V21.333C341.333,9.551,331.782,0,320,0
				h-21.333c-11.782,0-21.333,9.551-21.333,21.333C277.333,33.115,286.885,42.667,298.667,42.667z"/>
			<path d="M213.333,42.667h21.333c11.782,0,21.333-9.551,21.333-21.333C256,9.551,246.449,0,234.667,0h-21.333
				C201.551,0,192,9.551,192,21.333C192,33.115,201.551,42.667,213.333,42.667z"/>
			<path d="M21.333,170.667c11.782,0,21.333-9.551,21.333-21.333V128c0-11.782-9.551-21.333-21.333-21.333
				C9.551,106.667,0,116.218,0,128v21.333C0,161.115,9.551,170.667,21.333,170.667z"/>
			<path d="M42.667,256v-21.333c0-11.782-9.551-21.333-21.333-21.333C9.551,213.333,0,222.885,0,234.667V256
				c0,11.782,9.551,21.333,21.333,21.333C33.115,277.333,42.667,267.782,42.667,256z"/>
			<path d="M21.333,64c11.782,0,21.333-9.551,21.333-21.333V21.333C42.667,9.551,33.115,0,21.333,0C9.551,0,0,9.551,0,21.333v21.333
				C0,54.449,9.551,64,21.333,64z"/>
			<path d="M490.667,192c0-11.782-9.551-21.333-21.333-21.333H448c-11.782,0-21.333,9.551-21.333,21.333s9.551,21.333,21.333,21.333
				h21.333C481.115,213.333,490.667,203.782,490.667,192z"/>
			<path d="M490.667,341.333c-11.782,0-21.333,9.551-21.333,21.333V384c0,11.782,9.551,21.333,21.333,21.333S512,395.782,512,384
				v-21.333C512,350.885,502.449,341.333,490.667,341.333z"/>
			<path d="M490.667,234.667c-11.782,0-21.333,9.551-21.333,21.333v21.333c0,11.782,9.551,21.333,21.333,21.333
				S512,289.115,512,277.333V256C512,244.218,502.449,234.667,490.667,234.667z"/>
			<path d="M192,405.333c11.782,0,21.333-9.551,21.333-21.333h149.333c11.782,0,21.333-9.551,21.333-21.333V149.333
				c0-11.782-9.551-21.333-21.333-21.333h-21.333c0-11.782-9.551-21.333-21.333-21.333s-21.333,9.551-21.333,21.333H149.333
				C137.551,128,128,137.551,128,149.333v213.333c0,11.782,9.551,21.333,21.333,21.333h21.333
				C170.667,395.782,180.218,405.333,192,405.333z M170.667,277.333h64v64h-64V277.333z M277.333,341.333v-64h64v64H277.333z
				 M341.333,170.667v64h-64v-64H341.333z M234.667,170.667v64h-64v-64H234.667z"/>
			<path d="M490.667,448c-11.782,0-21.333,9.551-21.333,21.333v21.333c0,11.782,9.551,21.333,21.333,21.333S512,502.449,512,490.667
				v-21.333C512,457.551,502.449,448,490.667,448z"/>
			<path d="M213.333,469.333c0-11.782-9.551-21.333-21.333-21.333s-21.333,9.551-21.333,21.333v21.333
				c0,11.782,9.551,21.333,21.333,21.333h21.333c11.782,0,21.333-9.551,21.333-21.333S225.115,469.333,213.333,469.333z"/>
			<path d="M405.333,469.333H384c-11.782,0-21.333,9.551-21.333,21.333S372.218,512,384,512h21.333
				c11.782,0,21.333-9.551,21.333-21.333S417.115,469.333,405.333,469.333z"/>
			<path d="M298.667,469.333h-21.333c-11.782,0-21.333,9.551-21.333,21.333S265.551,512,277.333,512h21.333
				c11.782,0,21.333-9.551,21.333-21.333S310.449,469.333,298.667,469.333z"/>
		</g>
	</g>
</g>
<g>
</g>
<g>
</g>
<g>
</g>
<g>
</g>
<g>
</g>
<g>
</g>
<g>
</g>
<g>
</g>
<g>
</g>
<g>
</g>
<g>
</g>
<g>
</g>
<g>
</g>
<g>
</g>
<g>
</g>
</svg>
