<?xml version="1.0" encoding="iso-8859-1"?>
<!-- Generator: Adobe Illustrator 19.0.0, SVG Export Plug-In . SVG Version: 6.00 Build 0)  -->
<svg version="1.1" id="Layer_1" xmlns="http://www.w3.org/2000/svg" xmlns:xlink="http://www.w3.org/1999/xlink" x="0px" y="0px"
	 viewBox="0 0 512 512" style="enable-background:new 0 0 512 512;" xml:space="preserve">
<g>
	<g>
		<path d="M490.667,298.667h-21.333V72.837l36.418-36.418c8.331-8.331,8.331-21.839,0-30.17c-8.331-8.331-21.839-8.331-30.17,0
			l-36.418,36.418h-225.83V21.333C213.333,9.551,203.782,0,192,0h-85.333C94.885,0,85.333,9.551,85.333,21.333v21.333h-64
			C9.551,42.667,0,52.218,0,64v85.333c0,11.782,9.551,21.333,21.333,21.333h64v225.83L6.248,475.582
			c-8.331,8.331-8.331,21.839,0,30.17c8.331,8.331,21.839,8.331,30.17,0l79.085-79.085h225.83v64
			c0,11.782,9.551,21.333,21.333,21.333H448c11.782,0,21.333-9.551,21.333-21.333v-64h21.333c11.782,0,21.333-9.551,21.333-21.333
			V320C512,308.218,502.449,298.667,490.667,298.667z M426.667,85.333v213.333H384V149.335c0-0.703-0.037-1.406-0.106-2.107
			c-0.031-0.316-0.09-0.622-0.135-0.933c-0.054-0.377-0.098-0.755-0.172-1.13c-0.071-0.358-0.169-0.705-0.258-1.056
			c-0.081-0.323-0.152-0.648-0.249-0.968c-0.104-0.345-0.234-0.678-0.355-1.015c-0.115-0.319-0.22-0.641-0.35-0.956
			c-0.13-0.315-0.284-0.616-0.428-0.923c-0.153-0.324-0.297-0.651-0.467-0.969c-0.158-0.294-0.337-0.574-0.508-0.86
			c-0.186-0.311-0.362-0.626-0.565-0.93c-0.211-0.316-0.447-0.613-0.674-0.917c-0.19-0.253-0.366-0.513-0.568-0.76
			c-0.443-0.539-0.909-1.058-1.402-1.551c-0.004-0.004-0.007-0.008-0.011-0.012c-0.004-0.004-0.008-0.006-0.011-0.01
			c-0.494-0.493-1.012-0.96-1.552-1.403c-0.246-0.202-0.506-0.378-0.759-0.567c-0.304-0.228-0.602-0.463-0.918-0.675
			c-0.303-0.203-0.617-0.378-0.928-0.564c-0.286-0.171-0.566-0.351-0.861-0.509c-0.317-0.17-0.643-0.313-0.967-0.466
			c-0.308-0.145-0.61-0.299-0.925-0.43c-0.314-0.13-0.635-0.235-0.953-0.349c-0.338-0.122-0.672-0.251-1.018-0.356
			c-0.318-0.096-0.642-0.167-0.964-0.248c-0.353-0.089-0.701-0.188-1.061-0.259c-0.372-0.074-0.748-0.117-1.122-0.171
			c-0.314-0.045-0.622-0.105-0.941-0.136c-0.7-0.069-1.402-0.106-2.105-0.106H213.333V85.333H426.667z M243.503,298.667l97.83-97.83
			v97.83H243.503z M213.333,170.667h97.83l-97.83,97.83V170.667z M42.667,128V85.333h42.667V128H42.667z M426.667,469.333H384
			v-42.667h42.667V469.333z M469.333,384H448h-85.333H128V149.333V64V42.667h42.667V64v85.333V320c0,0.703,0.037,1.405,0.106,2.105
			c0.031,0.315,0.09,0.621,0.135,0.933c0.054,0.377,0.098,0.756,0.173,1.13c0.071,0.358,0.169,0.704,0.258,1.055
			c0.081,0.324,0.152,0.649,0.249,0.969c0.104,0.344,0.233,0.677,0.354,1.013c0.115,0.32,0.22,0.642,0.35,0.957
			c0.13,0.314,0.283,0.615,0.428,0.921c0.153,0.325,0.297,0.653,0.468,0.971c0.157,0.293,0.336,0.572,0.506,0.857
			c0.186,0.312,0.363,0.628,0.566,0.932c0.211,0.315,0.446,0.612,0.673,0.915c0.19,0.254,0.366,0.514,0.569,0.761
			c0.443,0.54,0.91,1.059,1.403,1.552c0.004,0.004,0.006,0.008,0.01,0.011c0.004,0.004,0.008,0.007,0.012,0.011
			c0.493,0.492,1.012,0.959,1.551,1.402c0.247,0.203,0.508,0.379,0.762,0.57c0.303,0.227,0.6,0.462,0.915,0.673
			c0.304,0.203,0.619,0.379,0.931,0.565c0.286,0.171,0.565,0.35,0.859,0.507c0.318,0.17,0.645,0.314,0.97,0.467
			c0.306,0.145,0.608,0.298,0.922,0.428c0.315,0.13,0.637,0.236,0.957,0.35c0.337,0.121,0.669,0.25,1.013,0.354
			c0.32,0.097,0.645,0.168,0.969,0.249c0.351,0.089,0.698,0.187,1.056,0.258c0.375,0.074,0.753,0.118,1.13,0.172
			c0.311,0.044,0.618,0.104,0.933,0.135c0.7,0.069,1.403,0.106,2.105,0.106h170.667H448h21.333V384z"/>
	</g>
</g>
<g>
</g>
<g>
</g>
<g>
</g>
<g>
</g>
<g>
</g>
<g>
</g>
<g>
</g>
<g>
</g>
<g>
</g>
<g>
</g>
<g>
</g>
<g>
</g>
<g>
</g>
<g>
</g>
<g>
</g>
</svg>
