<?xml version="1.0" encoding="iso-8859-1"?>
<!-- Generator: Adobe Illustrator 19.0.0, SVG Export Plug-In . SVG Version: 6.00 Build 0)  -->
<svg version="1.1" id="Layer_1" xmlns="http://www.w3.org/2000/svg" xmlns:xlink="http://www.w3.org/1999/xlink" x="0px" y="0px"
	 viewBox="0 0 512.098 512.098" style="enable-background:new 0 0 512.098 512.098;" xml:space="preserve">
<g transform="translate(-1 -1)">
	<g>
		<g>
			<path d="M147.335,244.858c-13.465,0-24.381,10.916-24.381,24.381v24.381c0,13.465,10.916,24.381,24.381,24.381
				s24.381-10.916,24.381-24.381v-24.381C171.716,255.774,160.8,244.858,147.335,244.858z"/>
			<path d="M243.126,342.382h-24.381c-13.465,0-24.381,10.916-24.381,24.381s10.916,24.381,24.381,24.381h24.381
				c13.465,0,24.381-10.916,24.381-24.381S256.591,342.382,243.126,342.382z"/>
			<path d="M111.63,367.988l-17.24,17.24c-9.521,9.521-9.521,24.958,0,34.48s24.959,9.521,34.48,0l17.24-17.24
				c9.521-9.521,9.521-24.958,0-34.48C136.588,358.467,121.151,358.467,111.63,367.988z"/>
			<path d="M512.792,21.848c-0.033-0.233-0.068-0.464-0.106-0.694c-0.016-0.086-0.033-0.171-0.05-0.257
				c-0.917-5.102-3.352-9.427-6.704-12.731c-3.304-3.353-7.63-5.788-12.732-6.705c-0.085-0.017-0.17-0.034-0.255-0.05
				c-0.23-0.039-0.461-0.074-0.695-0.106c-1.659-0.258-3.345-0.347-5.036-0.257H147.335c-0.408,0-0.816,0.011-1.221,0.031
				c-0.353,0.017-0.703,0.046-1.053,0.078c-0.047,0.004-0.094,0.006-0.14,0.011c-4.074,0.401-7.852,1.805-11.087,3.961
				c-0.009,0.006-0.019,0.012-0.029,0.018c-0.29,0.194-0.574,0.395-0.855,0.601c-0.045,0.033-0.091,0.063-0.135,0.096
				c-0.253,0.188-0.499,0.383-0.744,0.58c-0.068,0.054-0.137,0.105-0.204,0.16c-0.233,0.191-0.459,0.39-0.684,0.589
				c-0.074,0.065-0.15,0.127-0.223,0.193c-0.295,0.267-0.583,0.541-0.864,0.823L8.19,130.095c-0.389,0.389-0.761,0.797-1.123,1.212
				c-0.14,0.158-0.279,0.317-0.413,0.477c-0.12,0.145-0.234,0.295-0.351,0.443c-3.964,4.943-5.578,10.732-5.253,16.338v340.104
				c0,0.759,0.04,1.509,0.107,2.251c0.004,0.041,0.005,0.081,0.009,0.122c0.072,0.742,0.18,1.472,0.317,2.193
				c0.009,0.046,0.016,0.092,0.025,0.138c0.141,0.722,0.316,1.432,0.52,2.13c0.017,0.058,0.032,0.116,0.049,0.173
				c0.207,0.69,0.445,1.365,0.709,2.027c0.031,0.077,0.059,0.153,0.091,0.23c0.267,0.65,0.564,1.284,0.884,1.904
				c0.047,0.091,0.092,0.183,0.14,0.273c0.33,0.619,0.687,1.22,1.067,1.806c0.055,0.085,0.108,0.172,0.164,0.256
				c0.408,0.612,0.844,1.203,1.304,1.774c0.042,0.052,0.081,0.105,0.123,0.157c1.028,1.256,2.179,2.407,3.435,3.435
				c0.052,0.043,0.106,0.082,0.159,0.125c0.571,0.46,1.161,0.896,1.773,1.303c0.085,0.057,0.171,0.109,0.256,0.164
				c0.586,0.38,1.187,0.738,1.806,1.067c0.091,0.048,0.182,0.093,0.274,0.14c0.62,0.32,1.254,0.616,1.903,0.883
				c0.077,0.032,0.155,0.061,0.233,0.092c0.661,0.264,1.336,0.502,2.024,0.708c0.059,0.018,0.117,0.033,0.176,0.05
				c0.697,0.203,1.406,0.378,2.127,0.519c0.047,0.009,0.094,0.016,0.141,0.025c0.72,0.136,1.45,0.245,2.191,0.316
				c0.041,0.004,0.081,0.006,0.122,0.009c0.742,0.068,1.491,0.107,2.251,0.107h340.104c5.605,0.325,11.393-1.289,16.335-5.251
				c0.149-0.118,0.299-0.232,0.445-0.353c0.16-0.134,0.318-0.273,0.477-0.413c0.415-0.363,0.822-0.734,1.212-1.123l121.905-121.905
				c4.572-4.572,7.141-10.774,7.141-17.24V26.884C513.139,25.193,513.049,23.506,512.792,21.848z M59.91,454.188
				c-2.922-2.922-6.404-4.939-10.099-6.067V171.716h73.143c0,13.465,10.916,24.381,24.381,24.381s24.381-10.916,24.381-24.381
				h170.667v170.667h-1.733c-13.465,0-24.381,10.916-24.381,24.381s10.916,24.381,24.381,24.381h1.733v73.143H65.977
				C64.848,460.592,62.832,457.11,59.91,454.188z M135.9,71.345c3.411,1.815,7.302,2.847,11.435,2.847
				c13.465,0,24.381-10.916,24.381-24.381h258.091l-73.143,73.143H84.291L135.9,71.345z M391.144,157.434l43.036-43.036
				l30.106-30.106v258.091h-1.733c-13.465,0-24.381,10.916-24.381,24.381c0,4.587,1.269,8.878,3.472,12.542l-50.501,50.501V157.434z
				"/>
		</g>
	</g>
</g>
<g>
</g>
<g>
</g>
<g>
</g>
<g>
</g>
<g>
</g>
<g>
</g>
<g>
</g>
<g>
</g>
<g>
</g>
<g>
</g>
<g>
</g>
<g>
</g>
<g>
</g>
<g>
</g>
<g>
</g>
</svg>
