<?xml version="1.0" encoding="iso-8859-1"?>
<!-- Generator: Adobe Illustrator 19.0.0, SVG Export Plug-In . SVG Version: 6.00 Build 0)  -->
<svg version="1.1" id="Layer_1" xmlns="http://www.w3.org/2000/svg" xmlns:xlink="http://www.w3.org/1999/xlink" x="0px" y="0px"
	 viewBox="0 0 512.018 512.018" style="enable-background:new 0 0 512.018 512.018;" xml:space="preserve">
<g>
	<g>
		<g>
			<path d="M512.012,106.652c0-0.491-0.019-0.977-0.051-1.457c-0.011-0.166-0.032-0.331-0.047-0.497
				c-0.028-0.313-0.058-0.626-0.099-0.935c-0.031-0.235-0.071-0.468-0.11-0.701c-0.036-0.216-0.073-0.432-0.115-0.646
				c-0.061-0.313-0.132-0.624-0.207-0.935c-0.021-0.087-0.043-0.173-0.066-0.259c-1.492-5.847-5.424-11.125-11.813-13.978
				c-0.5-0.228-1.01-0.434-1.527-0.624c-0.002-0.001-0.005-0.002-0.007-0.003l-0.091-0.033c-0.172-0.062-0.341-0.129-0.515-0.187
				L263.303,1.284c-4.709-1.713-9.872-1.713-14.581,0L14.66,86.398c-0.171,0.057-0.338,0.123-0.507,0.185l-0.098,0.036
				c-0.003,0.001-0.005,0.002-0.008,0.003c-0.517,0.19-1.027,0.395-1.527,0.624c-6.39,2.852-10.322,8.131-11.813,13.978
				c-0.022,0.086-0.044,0.172-0.066,0.259c-0.075,0.31-0.145,0.621-0.207,0.934c-0.043,0.215-0.079,0.432-0.116,0.65
				c-0.038,0.232-0.079,0.464-0.109,0.697c-0.042,0.311-0.071,0.625-0.1,0.941c-0.015,0.164-0.035,0.327-0.046,0.491
				c-0.033,0.486-0.052,0.977-0.052,1.473v298.407c-0.008,0.631,0.015,1.264,0.064,1.899c0.001,0.018,0.002,0.035,0.004,0.053
				c0.043,0.532,0.104,1.065,0.188,1.598c0.004,0.025,0.009,0.049,0.013,0.073c0.075,0.465,0.167,0.93,0.274,1.395
				c0.019,0.084,0.037,0.169,0.057,0.252c0.111,0.457,0.237,0.914,0.38,1.369c0.036,0.114,0.076,0.225,0.113,0.338
				c0.063,0.191,0.123,0.382,0.192,0.572c0.06,0.166,0.128,0.327,0.192,0.49c0.046,0.116,0.089,0.233,0.137,0.349
				c0.182,0.443,0.377,0.878,0.586,1.302c0.024,0.049,0.051,0.097,0.075,0.146c0.213,0.425,0.439,0.84,0.677,1.245
				c0.02,0.034,0.039,0.069,0.06,0.103c0.826,1.388,1.794,2.657,2.881,3.796c0.001,0.002,0.003,0.003,0.004,0.004
				c0.369,0.386,0.751,0.759,1.146,1.114c0.003,0.003,0.007,0.006,0.01,0.009c0.376,0.338,0.763,0.66,1.161,0.969
				c0.063,0.049,0.127,0.097,0.19,0.145c0.39,0.297,0.786,0.584,1.195,0.852c0.008,0.005,0.015,0.01,0.022,0.015
				c0.403,0.264,0.816,0.509,1.235,0.745c0.1,0.056,0.199,0.112,0.3,0.167c0.416,0.226,0.838,0.439,1.267,0.637
				c0.075,0.035,0.153,0.066,0.228,0.1c0.418,0.186,0.842,0.36,1.271,0.519c0.041,0.015,0.079,0.034,0.12,0.049l234.667,85.333
				c0.002,0.001,0.005,0.001,0.007,0.002c1.641,0.601,3.364,1.005,5.135,1.185c0.038,0.004,0.075,0.009,0.113,0.013
				c0.328,0.032,0.658,0.052,0.988,0.068c0.123,0.006,0.245,0.016,0.368,0.02c0.226,0.007,0.453,0.005,0.68,0.005
				c0.227,0,0.454,0.002,0.68-0.005c0.122-0.004,0.245-0.014,0.368-0.02c0.331-0.016,0.661-0.037,0.988-0.068
				c0.038-0.004,0.075-0.009,0.113-0.013c1.771-0.18,3.493-0.584,5.135-1.185c0.002-0.001,0.005-0.001,0.007-0.002l234.667-85.333
				c8.431-3.066,14.043-11.078,14.043-20.049V106.668C512.012,106.663,512.012,106.658,512.012,106.652z M81.492,383.462
				c-4.026-11.073-16.267-16.785-27.339-12.758l-11.474,4.172V137.124l192,69.818v253.267L78.586,403.448
				C82.695,397.889,84.031,390.445,81.492,383.462z M256.012,44.033l172.242,62.633L256.012,169.3L83.771,106.667L256.012,44.033z
				 M469.346,390.391l-192,69.818V350.458l17.394,6.325c11.073,4.026,23.313-1.686,27.339-12.758
				c4.026-11.073-1.686-23.313-12.758-27.339l-31.976-11.627v-98.115l128.676-46.791l63.324-23.027V390.391z"/>
			<path d="M148.93,381.639l40.098-14.581c11.073-4.026,16.785-16.267,12.758-27.339c-4.026-11.073-16.267-16.785-27.339-12.758
				l-40.098,14.581c-11.073,4.026-16.785,16.267-12.758,27.339C125.617,379.953,137.857,385.666,148.93,381.639z"/>
			<path d="M389.517,345.847c-11.073-4.026-23.313,1.686-27.339,12.758c-4.026,11.073,1.686,23.313,12.758,27.339l40.098,14.581
				c11.073,4.026,23.313-1.686,27.339-12.758c4.026-11.073-1.686-23.313-12.758-27.339L389.517,345.847z"/>
		</g>
	</g>
</g>
<g>
</g>
<g>
</g>
<g>
</g>
<g>
</g>
<g>
</g>
<g>
</g>
<g>
</g>
<g>
</g>
<g>
</g>
<g>
</g>
<g>
</g>
<g>
</g>
<g>
</g>
<g>
</g>
<g>
</g>
</svg>
