<?xml version="1.0" encoding="iso-8859-1"?>
<!-- Generator: Adobe Illustrator 19.0.0, SVG Export Plug-In . SVG Version: 6.00 Build 0)  -->
<svg version="1.1" id="Layer_1" xmlns="http://www.w3.org/2000/svg" xmlns:xlink="http://www.w3.org/1999/xlink" x="0px" y="0px"
	 viewBox="0 0 512 512" style="enable-background:new 0 0 512 512;" xml:space="preserve">
<g>
	<g>
		<g>
			<path d="M21.333,64h86.785c-0.939,4.038-1.452,8.24-1.452,12.565v81.536c0,30.513,24.719,55.232,55.232,55.232h188.203
				c30.513,0,55.232-24.719,55.232-55.232V76.565c0-4.325-0.513-8.527-1.452-12.565h86.785C502.449,64,512,54.449,512,42.667
				c0-11.782-9.551-21.333-21.333-21.333H350.101H161.899H21.333C9.551,21.333,0,30.885,0,42.667C0,54.449,9.551,64,21.333,64z
				 M234.667,170.667V64h42.667v106.667H234.667z M362.667,76.565v81.536c0,6.949-5.617,12.565-12.565,12.565H320V64h30.101
				C357.05,64,362.667,69.617,362.667,76.565z M192,64v106.667h-30.101c-6.949,0-12.565-5.617-12.565-12.565V76.565
				c0-6.949,5.617-12.565,12.565-12.565H192z"/>
			<path d="M490.667,298.667h-76.565H97.899H21.333C9.551,298.667,0,308.218,0,320s9.551,21.333,21.333,21.333h22.785
				c-0.939,4.038-1.452,8.24-1.452,12.565v81.536c0,30.513,24.719,55.232,55.232,55.232h316.203
				c30.513,0,55.232-24.719,55.232-55.232v-81.536c0-4.325-0.513-8.527-1.452-12.565h22.785c11.782,0,21.333-9.551,21.333-21.333
				S502.449,298.667,490.667,298.667z M426.667,353.899v81.536c0,6.949-5.617,12.565-12.565,12.565H97.899
				c-6.949,0-12.565-5.617-12.565-12.565v-81.536c0-6.949,5.617-12.565,12.565-12.565h316.203
				C421.05,341.333,426.667,346.95,426.667,353.899z"/>
		</g>
	</g>
</g>
<g>
</g>
<g>
</g>
<g>
</g>
<g>
</g>
<g>
</g>
<g>
</g>
<g>
</g>
<g>
</g>
<g>
</g>
<g>
</g>
<g>
</g>
<g>
</g>
<g>
</g>
<g>
</g>
<g>
</g>
</svg>
