<?xml version="1.0" encoding="iso-8859-1"?>
<!-- Generator: Adobe Illustrator 19.0.0, SVG Export Plug-In . SVG Version: 6.00 Build 0)  -->
<svg version="1.1" id="Layer_1" xmlns="http://www.w3.org/2000/svg" xmlns:xlink="http://www.w3.org/1999/xlink" x="0px" y="0px"
	 viewBox="0 0 512 512" style="enable-background:new 0 0 512 512;" xml:space="preserve">
<g>
	<g>
		<g>
			<path d="M179.435,42.667h-30.101V21.333C149.333,9.551,139.782,0,128,0c-11.782,0-21.333,9.551-21.333,21.333v21.333H76.565
				c-30.513,0-55.232,24.719-55.232,55.232v316.203c0,30.513,24.719,55.232,55.232,55.232h30.101v21.333
				c0,11.782,9.551,21.333,21.333,21.333c11.782,0,21.333-9.551,21.333-21.333v-21.333h30.101c30.513,0,55.232-24.719,55.232-55.232
				V97.899C234.667,67.386,209.947,42.667,179.435,42.667z M192,414.101c0,6.949-5.617,12.565-12.565,12.565H76.565
				c-6.949,0-12.565-5.617-12.565-12.565V97.899c0-6.949,5.617-12.565,12.565-12.565h102.869c6.949,0,12.565,5.617,12.565,12.565
				V414.101z"/>
			<path d="M435.435,106.667h-30.101V21.333C405.333,9.551,395.782,0,384,0s-21.333,9.551-21.333,21.333v85.333h-30.101
				c-30.513,0-55.232,24.719-55.232,55.232V192v42.667v115.435c0,30.513,24.719,55.232,55.232,55.232h30.101v85.333
				c0,11.782,9.551,21.333,21.333,21.333s21.333-9.551,21.333-21.333v-85.333h30.101c30.513,0,55.232-24.719,55.232-55.232V161.899
				C490.667,131.386,465.947,106.667,435.435,106.667z M320,161.899c0-6.949,5.617-12.565,12.565-12.565h102.869
				c6.949,0,12.565,5.617,12.565,12.565V192H320V161.899z M448,234.667v42.667H320v-42.667H448z M435.435,362.667H332.565
				c-6.949,0-12.565-5.617-12.565-12.565V320h128v30.101C448,357.05,442.383,362.667,435.435,362.667z"/>
		</g>
	</g>
</g>
<g>
</g>
<g>
</g>
<g>
</g>
<g>
</g>
<g>
</g>
<g>
</g>
<g>
</g>
<g>
</g>
<g>
</g>
<g>
</g>
<g>
</g>
<g>
</g>
<g>
</g>
<g>
</g>
<g>
</g>
</svg>
