<?xml version="1.0" encoding="iso-8859-1"?>
<!-- Generator: Adobe Illustrator 19.0.0, SVG Export Plug-In . SVG Version: 6.00 Build 0)  -->
<svg version="1.1" id="Layer_1" xmlns="http://www.w3.org/2000/svg" xmlns:xlink="http://www.w3.org/1999/xlink" x="0px" y="0px"
	 viewBox="0 0 512 512" style="enable-background:new 0 0 512 512;" xml:space="preserve">
<g>
	<g>
		<g>
			<path d="M21.333,213.333h140.565h188.203h140.565c11.782,0,21.333-9.551,21.333-21.333s-9.551-21.333-21.333-21.333h-86.785
				c0.939-4.038,1.452-8.24,1.452-12.565V76.565c0-30.513-24.719-55.232-55.232-55.232H161.899
				c-30.513,0-55.232,24.719-55.232,55.232v81.536c0,4.325,0.513,8.527,1.452,12.565H21.333C9.551,170.667,0,180.218,0,192
				S9.551,213.333,21.333,213.333z M234.667,170.667V64h42.667v106.667H234.667z M362.667,76.565v81.536
				c0,6.949-5.617,12.565-12.565,12.565H320V64h30.101C357.05,64,362.667,69.617,362.667,76.565z M149.333,158.101V76.565
				c0-6.949,5.617-12.565,12.565-12.565H192v106.667h-30.101C154.95,170.667,149.333,165.05,149.333,158.101z"/>
			<path d="M490.667,448h-22.785c0.939-4.038,1.452-8.24,1.452-12.565v-81.536c0-30.513-24.719-55.232-55.232-55.232H97.899
				c-30.513,0-55.232,24.719-55.232,55.232v81.536c0,4.325,0.513,8.527,1.452,12.565H21.333C9.551,448,0,457.551,0,469.333
				c0,11.782,9.551,21.333,21.333,21.333h76.565h316.203h76.565c11.782,0,21.333-9.551,21.333-21.333
				C512,457.551,502.449,448,490.667,448z M97.899,448c-6.949,0-12.565-5.617-12.565-12.565v-81.536
				c0-6.949,5.617-12.565,12.565-12.565h316.203c6.949,0,12.565,5.617,12.565,12.565v81.536c0,6.949-5.617,12.565-12.565,12.565
				H97.899z"/>
		</g>
	</g>
</g>
<g>
</g>
<g>
</g>
<g>
</g>
<g>
</g>
<g>
</g>
<g>
</g>
<g>
</g>
<g>
</g>
<g>
</g>
<g>
</g>
<g>
</g>
<g>
</g>
<g>
</g>
<g>
</g>
<g>
</g>
</svg>
