<?xml version="1.0" encoding="iso-8859-1"?>
<!-- Generator: Adobe Illustrator 19.0.0, SVG Export Plug-In . SVG Version: 6.00 Build 0)  -->
<svg version="1.1" id="Layer_1" xmlns="http://www.w3.org/2000/svg" xmlns:xlink="http://www.w3.org/1999/xlink" x="0px" y="0px"
	 viewBox="0 0 512 512" style="enable-background:new 0 0 512 512;" xml:space="preserve">
<g>
	<g>
		<path d="M490.667,234.667h-21.333v-72.768c0-30.513-24.719-55.232-55.232-55.232h-81.536c-30.513,0-55.232,24.719-55.232,55.232
			v72.768h-42.667V97.899c0-30.513-24.719-55.232-55.232-55.232H97.899c-30.513,0-55.232,24.719-55.232,55.232v136.768H21.333
			C9.551,234.667,0,244.218,0,256c0,11.782,9.551,21.333,21.333,21.333h21.333v136.768c0,30.513,24.719,55.232,55.232,55.232h81.536
			c30.513,0,55.232-24.719,55.232-55.232V277.333h42.667v72.768c0,30.513,24.719,55.232,55.232,55.232h81.536
			c30.513,0,55.232-24.719,55.232-55.232v-72.768h21.333c11.782,0,21.333-9.551,21.333-21.333
			C512,244.218,502.449,234.667,490.667,234.667z M192,414.101c0,6.949-5.617,12.565-12.565,12.565H97.899
			c-6.949,0-12.565-5.617-12.565-12.565V97.899c0-6.949,5.617-12.565,12.565-12.565h81.536c6.949,0,12.565,5.617,12.565,12.565
			V414.101z M426.667,277.333H320v-42.667h106.667V277.333z M332.565,149.333h81.536c6.949,0,12.565,5.617,12.565,12.565V192H320
			v-30.101C320,154.95,325.617,149.333,332.565,149.333z M414.101,362.667h-81.536c-6.949,0-12.565-5.617-12.565-12.565V320h106.667
			v30.101C426.667,357.05,421.05,362.667,414.101,362.667z"/>
	</g>
</g>
<g>
</g>
<g>
</g>
<g>
</g>
<g>
</g>
<g>
</g>
<g>
</g>
<g>
</g>
<g>
</g>
<g>
</g>
<g>
</g>
<g>
</g>
<g>
</g>
<g>
</g>
<g>
</g>
<g>
</g>
</svg>
