<?xml version="1.0" encoding="iso-8859-1"?>
<!-- Generator: Adobe Illustrator 19.0.0, SVG Export Plug-In . SVG Version: 6.00 Build 0)  -->
<svg version="1.1" id="Layer_1" xmlns="http://www.w3.org/2000/svg" xmlns:xlink="http://www.w3.org/1999/xlink" x="0px" y="0px"
	 viewBox="0 0 512 512" style="enable-background:new 0 0 512 512;" xml:space="preserve">
<g>
	<g>
		<g>
			<path d="M490.667,469.333H21.333C9.551,469.333,0,478.885,0,490.667S9.551,512,21.333,512h469.333
				c11.782,0,21.333-9.551,21.333-21.333S502.449,469.333,490.667,469.333z"/>
			<path d="M97.899,426.667h81.536c30.513,0,55.232-24.719,55.232-55.232V55.232C234.667,24.719,209.947,0,179.435,0H97.899
				C67.386,0,42.667,24.719,42.667,55.232v316.203C42.667,401.947,67.386,426.667,97.899,426.667z M85.333,55.232
				c0-6.949,5.617-12.565,12.565-12.565h81.536c6.949,0,12.565,5.617,12.565,12.565v316.203c0,6.949-5.617,12.565-12.565,12.565
				H97.899c-6.949,0-12.565-5.617-12.565-12.565V55.232z"/>
			<path d="M332.565,426.667h81.536c30.513,0,55.232-24.719,55.232-55.232V183.232c0-30.513-24.719-55.232-55.232-55.232h-81.536
				c-30.513,0-55.232,24.719-55.232,55.232v188.203C277.333,401.947,302.053,426.667,332.565,426.667z M414.101,384h-81.536
				c-6.949,0-12.565-5.617-12.565-12.565v-30.101h106.667v30.101C426.667,378.383,421.05,384,414.101,384z M320,298.667V256h106.667
				v42.667H320z M332.565,170.667h81.536c6.949,0,12.565,5.617,12.565,12.565v30.101H320v-30.101
				C320,176.283,325.617,170.667,332.565,170.667z"/>
		</g>
	</g>
</g>
<g>
</g>
<g>
</g>
<g>
</g>
<g>
</g>
<g>
</g>
<g>
</g>
<g>
</g>
<g>
</g>
<g>
</g>
<g>
</g>
<g>
</g>
<g>
</g>
<g>
</g>
<g>
</g>
<g>
</g>
</svg>
