<?xml version="1.0" encoding="iso-8859-1"?>
<!-- Generator: Adobe Illustrator 19.0.0, SVG Export Plug-In . SVG Version: 6.00 Build 0)  -->
<svg version="1.1" id="Layer_1" xmlns="http://www.w3.org/2000/svg" xmlns:xlink="http://www.w3.org/1999/xlink" x="0px" y="0px"
	 viewBox="0 0 512 512" style="enable-background:new 0 0 512 512;" xml:space="preserve">
<g>
	<g>
		<g>
			<path d="M490.667,0c-11.782,0-21.333,9.551-21.333,21.333v469.333c0,11.782,9.551,21.333,21.333,21.333S512,502.449,512,490.667
				V21.333C512,9.551,502.449,0,490.667,0z"/>
			<path d="M371.435,277.333H55.232C24.719,277.333,0,302.053,0,332.565v81.536c0,30.513,24.719,55.232,55.232,55.232h316.203
				c30.513,0,55.232-24.719,55.232-55.232v-81.536C426.667,302.053,401.947,277.333,371.435,277.333z M384,414.101
				c0,6.949-5.617,12.565-12.565,12.565H55.232c-6.949,0-12.565-5.617-12.565-12.565v-81.536c0-6.949,5.617-12.565,12.565-12.565
				h316.203c6.949,0,12.565,5.617,12.565,12.565V414.101z"/>
			<path d="M371.435,42.667H183.232C152.719,42.667,128,67.386,128,97.899v81.536c0,30.513,24.719,55.232,55.232,55.232h188.203
				c30.513,0,55.232-24.719,55.232-55.232V97.899C426.667,67.386,401.947,42.667,371.435,42.667z M298.667,85.333V192H256V85.333
				H298.667z M170.667,179.435V97.899c0-6.949,5.617-12.565,12.565-12.565h30.101V192h-30.101
				C176.283,192,170.667,186.383,170.667,179.435z M384,179.435c0,6.949-5.617,12.565-12.565,12.565h-30.101V85.333h30.101
				c6.949,0,12.565,5.617,12.565,12.565V179.435z"/>
		</g>
	</g>
</g>
<g>
</g>
<g>
</g>
<g>
</g>
<g>
</g>
<g>
</g>
<g>
</g>
<g>
</g>
<g>
</g>
<g>
</g>
<g>
</g>
<g>
</g>
<g>
</g>
<g>
</g>
<g>
</g>
<g>
</g>
</svg>
