<?xml version="1.0" encoding="iso-8859-1"?>
<!-- Generator: Adobe Illustrator 19.0.0, SVG Export Plug-In . SVG Version: 6.00 Build 0)  -->
<svg version="1.1" id="Layer_1" xmlns="http://www.w3.org/2000/svg" xmlns:xlink="http://www.w3.org/1999/xlink" x="0px" y="0px"
	 viewBox="0 0 512 512" style="enable-background:new 0 0 512 512;" xml:space="preserve">
<g>
	<g>
		<path d="M0,0v512h512V0H0z M469.333,469.333h-120.34c-40.805-37.286-37.99-78.542,4.901-110.986l-12.87-17.014l12.874,17.011
			c66.597-50.404,68.664-147.944,0.719-204.119l-27.187,32.883c46.732,38.637,45.359,103.429,0.719,137.214l0,0
			c-52.604,39.794-64.897,95.643-34.396,145.011H178.636c-40.805-37.286-37.99-78.542,4.901-110.986l-12.87-17.014l12.874,17.011
			c66.597-50.404,68.664-147.944,0.719-204.119l-27.187,32.883c46.732,38.637,45.359,103.429,0.719,137.214l0,0
			c-52.604,39.794-64.897,95.643-34.396,145.011h-80.73V42.667h78.683c-27.206,46.252-16.064,101.623,35.723,144.439l27.187-32.883
			c-43.988-36.368-45.456-78.457-7.872-111.556h115.319c-27.207,46.252-16.064,101.623,35.723,144.439l27.187-32.883
			c-43.988-36.368-45.456-78.457-7.872-111.556h122.587V469.333z"/>
	</g>
</g>
<g>
</g>
<g>
</g>
<g>
</g>
<g>
</g>
<g>
</g>
<g>
</g>
<g>
</g>
<g>
</g>
<g>
</g>
<g>
</g>
<g>
</g>
<g>
</g>
<g>
</g>
<g>
</g>
<g>
</g>
</svg>
