<?xml version="1.0" encoding="iso-8859-1"?>
<!-- Generator: Adobe Illustrator 19.0.0, SVG Export Plug-In . SVG Version: 6.00 Build 0)  -->
<svg version="1.1" id="Layer_1" xmlns="http://www.w3.org/2000/svg" xmlns:xlink="http://www.w3.org/1999/xlink" x="0px" y="0px"
	 viewBox="0 0 512 512" style="enable-background:new 0 0 512 512;" xml:space="preserve">
<g>
	<g>
		<g>
			<path d="M490.667,362.667h-21.333v-30.101c0-30.513-24.719-55.232-55.232-55.232H97.899c-30.513,0-55.232,24.719-55.232,55.232
				v30.101H21.333C9.551,362.667,0,372.218,0,384s9.551,21.333,21.333,21.333h21.333v30.101c0,30.513,24.719,55.232,55.232,55.232
				h316.203c30.513,0,55.232-24.719,55.232-55.232v-30.101h21.333c11.782,0,21.333-9.551,21.333-21.333
				S502.449,362.667,490.667,362.667z M426.667,435.435c0,6.949-5.617,12.565-12.565,12.565H97.899
				c-6.949,0-12.565-5.617-12.565-12.565V332.565c0-6.949,5.617-12.565,12.565-12.565h316.203c6.949,0,12.565,5.617,12.565,12.565
				V435.435z"/>
			<path d="M21.333,149.333h85.333v30.101c0,30.513,24.719,55.232,55.232,55.232h188.203c30.513,0,55.232-24.719,55.232-55.232
				v-30.101h85.333c11.782,0,21.333-9.551,21.333-21.333c0-11.782-9.551-21.333-21.333-21.333h-85.333V76.565
				c0-30.513-24.719-55.232-55.232-55.232H161.899c-30.513,0-55.232,24.719-55.232,55.232v30.101H21.333
				C9.551,106.667,0,116.218,0,128C0,139.782,9.551,149.333,21.333,149.333z M234.667,192V64h42.667v128H234.667z M362.667,76.565
				v102.869c0,6.949-5.617,12.565-12.565,12.565H320V64h30.101C357.05,64,362.667,69.617,362.667,76.565z M149.333,76.565
				c0-6.949,5.617-12.565,12.565-12.565H192v128h-30.101c-6.949,0-12.565-5.617-12.565-12.565V76.565z"/>
		</g>
	</g>
</g>
<g>
</g>
<g>
</g>
<g>
</g>
<g>
</g>
<g>
</g>
<g>
</g>
<g>
</g>
<g>
</g>
<g>
</g>
<g>
</g>
<g>
</g>
<g>
</g>
<g>
</g>
<g>
</g>
<g>
</g>
</svg>
