<?xml version="1.0" encoding="iso-8859-1"?>
<!-- Generator: Adobe Illustrator 19.0.0, SVG Export Plug-In . SVG Version: 6.00 Build 0)  -->
<svg version="1.1" id="Layer_1" xmlns="http://www.w3.org/2000/svg" xmlns:xlink="http://www.w3.org/1999/xlink" x="0px" y="0px"
	 viewBox="0 0 512 512" style="enable-background:new 0 0 512 512;" xml:space="preserve">
<g>
	<g>
		<g>
			<path d="M192,0c-11.782,0-21.333,9.551-21.333,21.333v86.785c-4.038-0.939-8.24-1.452-12.565-1.452H76.565
				c-30.513,0-55.232,24.719-55.232,55.232v188.203c0,30.513,24.719,55.232,55.232,55.232h81.536c4.325,0,8.527-0.513,12.565-1.452
				v86.785c0,11.782,9.551,21.333,21.333,21.333s21.333-9.551,21.333-21.333V350.101V161.899V21.333C213.333,9.551,203.782,0,192,0z
				 M170.667,277.333H64v-42.667h106.667V277.333z M76.565,149.333h81.536c6.949,0,12.565,5.617,12.565,12.565V192H64v-30.101
				C64,154.95,69.617,149.333,76.565,149.333z M158.101,362.667H76.565c-6.949,0-12.565-5.617-12.565-12.565V320h106.667v30.101
				C170.667,357.05,165.05,362.667,158.101,362.667z"/>
			<path d="M469.333,0C457.551,0,448,9.551,448,21.333v22.785c-4.038-0.939-8.24-1.452-12.565-1.452h-81.536
				c-30.513,0-55.232,24.719-55.232,55.232v316.203c0,30.513,24.719,55.232,55.232,55.232h81.536c4.325,0,8.527-0.513,12.565-1.452
				v22.785c0,11.782,9.551,21.333,21.333,21.333c11.782,0,21.333-9.551,21.333-21.333v-76.565V97.899V21.333
				C490.667,9.551,481.115,0,469.333,0z M435.435,426.667h-81.536c-6.949,0-12.565-5.617-12.565-12.565V97.899
				c0-6.949,5.617-12.565,12.565-12.565h81.536c6.949,0,12.565,5.617,12.565,12.565v316.203
				C448,421.05,442.383,426.667,435.435,426.667z"/>
		</g>
	</g>
</g>
<g>
</g>
<g>
</g>
<g>
</g>
<g>
</g>
<g>
</g>
<g>
</g>
<g>
</g>
<g>
</g>
<g>
</g>
<g>
</g>
<g>
</g>
<g>
</g>
<g>
</g>
<g>
</g>
<g>
</g>
</svg>
