<?xml version="1.0" encoding="iso-8859-1"?>
<!-- Generator: Adobe Illustrator 19.0.0, SVG Export Plug-In . SVG Version: 6.00 Build 0)  -->
<svg version="1.1" id="Layer_1" xmlns="http://www.w3.org/2000/svg" xmlns:xlink="http://www.w3.org/1999/xlink" x="0px" y="0px"
	 viewBox="0 0 512 512" style="enable-background:new 0 0 512 512;" xml:space="preserve">
<g>
	<g>
		<path d="M414.101,277.333H277.333v-42.667h72.768c30.513,0,55.232-24.719,55.232-55.232V97.899
			c0-30.513-24.719-55.232-55.232-55.232h-72.768V21.333C277.333,9.551,267.782,0,256,0c-11.782,0-21.333,9.551-21.333,21.333
			v21.333h-72.768c-30.513,0-55.232,24.719-55.232,55.232v81.536c0,30.513,24.719,55.232,55.232,55.232h72.768v42.667H97.899
			c-30.513,0-55.232,24.719-55.232,55.232v81.536c0,30.513,24.719,55.232,55.232,55.232h136.768v21.333
			c0,11.782,9.551,21.333,21.333,21.333c11.782,0,21.333-9.551,21.333-21.333v-21.333h136.768c30.513,0,55.232-24.719,55.232-55.232
			v-81.536C469.333,302.053,444.614,277.333,414.101,277.333z M234.667,192V85.333h42.667V192H234.667z M362.667,97.899v81.536
			c0,6.949-5.617,12.565-12.565,12.565H320V85.333h30.101C357.05,85.333,362.667,90.95,362.667,97.899z M149.333,179.435V97.899
			c0-6.949,5.617-12.565,12.565-12.565H192V192h-30.101C154.95,192,149.333,186.383,149.333,179.435z M426.667,414.101
			c0,6.949-5.617,12.565-12.565,12.565H97.899c-6.949,0-12.565-5.617-12.565-12.565v-81.536c0-6.949,5.617-12.565,12.565-12.565
			h316.203c6.949,0,12.565,5.617,12.565,12.565V414.101z"/>
	</g>
</g>
<g>
</g>
<g>
</g>
<g>
</g>
<g>
</g>
<g>
</g>
<g>
</g>
<g>
</g>
<g>
</g>
<g>
</g>
<g>
</g>
<g>
</g>
<g>
</g>
<g>
</g>
<g>
</g>
<g>
</g>
</svg>
