<?xml version="1.0" encoding="iso-8859-1"?>
<!-- Generator: Adobe Illustrator 19.0.0, SVG Export Plug-In . SVG Version: 6.00 Build 0)  -->
<svg version="1.1" id="Layer_1" xmlns="http://www.w3.org/2000/svg" xmlns:xlink="http://www.w3.org/1999/xlink" x="0px" y="0px"
	 viewBox="0 0 512 512" style="enable-background:new 0 0 512 512;" xml:space="preserve">
<g>
	<g>
		<g>
			<path d="M158.101,42.667H76.565c-4.325,0-8.527,0.513-12.565,1.452V21.333C64,9.551,54.449,0,42.667,0
				C30.885,0,21.333,9.551,21.333,21.333v76.565v316.203v76.565c0,11.782,9.551,21.333,21.333,21.333
				C54.449,512,64,502.449,64,490.667v-22.785c4.038,0.939,8.24,1.452,12.565,1.452h81.536c30.513,0,55.232-24.719,55.232-55.232
				V97.899C213.333,67.386,188.614,42.667,158.101,42.667z M170.667,414.101c0,6.949-5.617,12.565-12.565,12.565H76.565
				c-6.949,0-12.565-5.617-12.565-12.565V97.899c0-6.949,5.617-12.565,12.565-12.565h81.536c6.949,0,12.565,5.617,12.565,12.565
				V414.101z"/>
			<path d="M435.435,106.667h-81.536c-4.325,0-8.527,0.513-12.565,1.452V21.333C341.333,9.551,331.782,0,320,0
				s-21.333,9.551-21.333,21.333v140.565v188.203v140.565c0,11.782,9.551,21.333,21.333,21.333s21.333-9.551,21.333-21.333v-86.785
				c4.038,0.939,8.24,1.452,12.565,1.452h81.536c30.513,0,55.232-24.719,55.232-55.232V161.899
				C490.667,131.386,465.947,106.667,435.435,106.667z M353.899,149.333h81.536c6.949,0,12.565,5.617,12.565,12.565V192H341.333
				v-30.101C341.333,154.95,346.95,149.333,353.899,149.333z M341.333,234.667H448v42.667H341.333V234.667z M435.435,362.667
				h-81.536c-6.949,0-12.565-5.617-12.565-12.565V320H448v30.101C448,357.05,442.383,362.667,435.435,362.667z"/>
		</g>
	</g>
</g>
<g>
</g>
<g>
</g>
<g>
</g>
<g>
</g>
<g>
</g>
<g>
</g>
<g>
</g>
<g>
</g>
<g>
</g>
<g>
</g>
<g>
</g>
<g>
</g>
<g>
</g>
<g>
</g>
<g>
</g>
</svg>
