<?xml version="1.0" encoding="iso-8859-1"?>
<!-- Generator: Adobe Illustrator 19.0.0, SVG Export Plug-In . SVG Version: 6.00 Build 0)  -->
<svg version="1.1" id="Layer_1" xmlns="http://www.w3.org/2000/svg" xmlns:xlink="http://www.w3.org/1999/xlink" x="0px" y="0px"
	 viewBox="0 0 512 512" style="enable-background:new 0 0 512 512;" xml:space="preserve">
<g>
	<g>
		<g>
			<path d="M85.333,106.667c11.782,0,21.333-9.551,21.333-21.333V64c0-11.782-9.551-21.333-21.333-21.333
				C73.551,42.667,64,52.218,64,64v21.333C64,97.115,73.551,106.667,85.333,106.667z"/>
			<path d="M341.333,42.667h21.333c11.782,0,21.333-9.551,21.333-21.333C384,9.551,374.449,0,362.667,0h-21.333
				C329.551,0,320,9.551,320,21.333C320,33.115,329.551,42.667,341.333,42.667z"/>
			<path d="M85.333,213.333c11.782,0,21.333-9.551,21.333-21.333v-21.333c0-11.782-9.551-21.333-21.333-21.333
				c-11.782,0-21.333,9.551-21.333,21.333V192C64,203.782,73.551,213.333,85.333,213.333z"/>
			<path d="M128,42.667h21.333c11.782,0,21.333-9.551,21.333-21.333C170.667,9.551,161.115,0,149.333,0H128
				c-11.782,0-21.333,9.551-21.333,21.333C106.667,33.115,116.218,42.667,128,42.667z"/>
			<path d="M234.667,42.667H256c11.782,0,21.333-9.551,21.333-21.333C277.333,9.551,267.782,0,256,0h-21.333
				c-11.782,0-21.333,9.551-21.333,21.333C213.333,33.115,222.885,42.667,234.667,42.667z"/>
			<path d="M426.667,128c-11.782,0-21.333,9.551-21.333,21.333v21.333c0,11.782,9.551,21.333,21.333,21.333S448,182.449,448,170.667
				v-21.333C448,137.551,438.449,128,426.667,128z"/>
			<path d="M426.667,21.333c-11.782,0-21.333,9.551-21.333,21.333V64c0,11.782,9.551,21.333,21.333,21.333S448,75.782,448,64V42.667
				C448,30.885,438.449,21.333,426.667,21.333z"/>
			<path d="M426.667,234.667c-11.782,0-21.333,9.551-21.333,21.333v21.333c0,11.782,9.551,21.333,21.333,21.333
				S448,289.115,448,277.333V256C448,244.218,438.449,234.667,426.667,234.667z"/>
			<path d="M426.667,320c-11.782,0-21.333,9.551-21.333,21.333H320h-21.333h-85.333H192h-85.333H85.333
				c-11.782,0-21.333,9.551-21.333,21.333v128C64,502.449,73.551,512,85.333,512h341.333c11.782,0,21.333-9.551,21.333-21.333v-128
				v-21.333C448,329.551,438.449,320,426.667,320z M405.333,469.333H106.667V384H192h21.333h85.333H320h85.333V469.333z"/>
			<path d="M85.333,320c11.782,0,21.333-9.551,21.333-21.333v-21.333c0-11.782-9.551-21.333-21.333-21.333
				C73.551,256,64,265.551,64,277.333v21.333C64,310.449,73.551,320,85.333,320z"/>
		</g>
	</g>
</g>
<g>
</g>
<g>
</g>
<g>
</g>
<g>
</g>
<g>
</g>
<g>
</g>
<g>
</g>
<g>
</g>
<g>
</g>
<g>
</g>
<g>
</g>
<g>
</g>
<g>
</g>
<g>
</g>
<g>
</g>
</svg>
