<?xml version="1.0" encoding="iso-8859-1"?>
<!-- Generator: Adobe Illustrator 19.0.0, SVG Export Plug-In . SVG Version: 6.00 Build 0)  -->
<svg version="1.1" id="Layer_1" xmlns="http://www.w3.org/2000/svg" xmlns:xlink="http://www.w3.org/1999/xlink" x="0px" y="0px"
	 viewBox="0 0 501.154 501.154" style="enable-background:new 0 0 501.154 501.154;" xml:space="preserve">
<g>
	<g>
		<path d="M452.239,139.426l30.17-30.184c24.989-24.989,24.989-65.505-0.004-90.497c-24.993-24.993-65.508-24.993-90.501,0
			l-30.181,30.167l-30.167-30.167c-8.331-8.331-21.839-8.331-30.17,0l-78.507,78.507c-8.331,8.331-8.331,21.839,0,30.17
			l15.085,15.085L69.479,310.992c-8.335,8.335-8.331,21.849,0.008,30.178l-50.739,50.739c-24.993,24.992-24.993,65.508,0,90.501
			c24.992,24.993,65.508,24.993,90.501,0l50.75-50.75c8.331,8.329,21.836,8.328,30.167-0.001l168.486-168.467l15.077,15.077
			c8.331,8.331,21.839,8.331,30.17,0l78.507-78.507c8.331-8.331,8.331-21.839,0-30.17L452.239,139.426z M175.082,386.404
			c-8.331-8.33-21.838-8.329-30.168,0.001L79.079,452.24c-8.33,8.33-21.831,8.33-30.161,0s-8.33-21.831,0-30.161l65.835-65.835
			c8.335-8.335,8.331-21.849-0.008-30.178l44.495-44.495l60.34,60.34L175.082,386.404z M249.751,311.744l-60.342-60.342
			l78.726-78.726l60.347,60.347L249.751,311.744z M406.987,154.514l30.163,30.163l-48.337,48.337L373.78,217.98
			c-0.014-0.014-0.026-0.03-0.04-0.044l-90.517-90.517c-0.014-0.014-0.03-0.026-0.044-0.04l-15.042-15.042l48.337-48.337
			l30.163,30.163c8.33,8.33,21.835,8.331,30.166,0.004l45.269-45.248c8.334-8.334,21.834-8.334,30.164-0.004s8.33,21.831,0,30.161
			l-45.252,45.273C398.656,132.68,398.658,146.184,406.987,154.514z"/>
	</g>
</g>
<g>
</g>
<g>
</g>
<g>
</g>
<g>
</g>
<g>
</g>
<g>
</g>
<g>
</g>
<g>
</g>
<g>
</g>
<g>
</g>
<g>
</g>
<g>
</g>
<g>
</g>
<g>
</g>
<g>
</g>
</svg>
