<?xml version="1.0" encoding="iso-8859-1"?>
<!-- Generator: Adobe Illustrator 19.0.0, SVG Export Plug-In . SVG Version: 6.00 Build 0)  -->
<svg version="1.1" id="Layer_1" xmlns="http://www.w3.org/2000/svg" xmlns:xlink="http://www.w3.org/1999/xlink" x="0px" y="0px"
	 viewBox="0 0 488.261 488.261" style="enable-background:new 0 0 488.261 488.261;" xml:space="preserve">
<g>
	<g>
		<path d="M439.349,139.432l30.17-30.184c24.989-24.989,24.989-65.504-0.004-90.497c-24.992-24.992-65.508-24.992-90.501,0
			l-30.181,30.167l-30.167-30.167c-8.331-8.331-21.839-8.331-30.17,0l-78.507,78.507c-8.331,8.331-8.331,21.839,0,30.17
			l15.085,15.085L77.304,290.284c-8.33,8.33-8.331,21.836-0.002,30.168l-58.558,58.558c-24.992,24.992-24.992,65.508,0,90.501
			c24.993,24.992,65.529,24.992,90.522,0l58.547-58.547c8.33,8.339,21.844,8.343,30.178,0.008l147.772-147.772l15.076,15.076
			c8.331,8.331,21.839,8.331,30.17,0l78.507-78.507c8.331-8.331,8.331-21.839,0-30.17L439.349,139.432z M182.917,365.706
			c-8.33-8.339-21.844-8.343-30.178-0.008L79.096,439.34c-8.33,8.33-21.852,8.33-30.182,0c-8.33-8.33-8.33-21.831,0-30.161
			l73.643-73.643c8.33-8.33,8.331-21.836,0.002-30.168l132.687-132.687l60.347,60.347L182.917,365.706z M394.098,154.521
			l30.163,30.163l-48.337,48.337l-15.033-15.033c-0.014-0.015-0.026-0.031-0.041-0.045l-90.517-90.517
			c-0.014-0.014-0.03-0.026-0.044-0.04l-15.042-15.042l48.337-48.337l30.163,30.163c8.33,8.33,21.835,8.331,30.166,0.004
			l45.269-45.248c8.334-8.334,21.834-8.334,30.164-0.004s8.33,21.831,0,30.161l-45.252,45.273
			C385.767,132.686,385.768,146.191,394.098,154.521z"/>
	</g>
</g>
<g>
</g>
<g>
</g>
<g>
</g>
<g>
</g>
<g>
</g>
<g>
</g>
<g>
</g>
<g>
</g>
<g>
</g>
<g>
</g>
<g>
</g>
<g>
</g>
<g>
</g>
<g>
</g>
<g>
</g>
</svg>
