<?xml version="1.0" encoding="iso-8859-1"?>
<!-- Generator: Adobe Illustrator 19.0.0, SVG Export Plug-In . SVG Version: 6.00 Build 0)  -->
<svg version="1.1" id="Layer_1" xmlns="http://www.w3.org/2000/svg" xmlns:xlink="http://www.w3.org/1999/xlink" x="0px" y="0px"
	 viewBox="0 0 512 512" style="enable-background:new 0 0 512 512;" xml:space="preserve">
<g>
	<g>
		<g>
			<path d="M128,298.667v-85.333c0-11.782-9.551-21.333-21.333-21.333H90.825c5.012-1.824,9.355-5.504,11.879-10.676
				c5.562-11.397,12.383-22.138,20.324-32.025c7.377-9.187,5.91-22.614-3.276-29.992c-9.187-7.377-22.614-5.91-29.992,3.276
				c-9.92,12.353-18.445,25.776-25.4,40.027c-5.168,10.588-0.773,23.361,9.815,28.529c0.665,0.324,1.338,0.611,2.018,0.861h-54.86
				C9.551,192,0,201.551,0,213.333v85.333C0,310.449,9.551,320,21.333,320h31.309c3.039,9.658,6.753,19.076,11.128,28.187
				c5.1,10.621,17.845,15.096,28.466,9.996s15.096-17.845,9.996-28.466c-1.533-3.192-2.954-6.435-4.284-9.716h8.719
				C118.449,320,128,310.449,128,298.667z M42.667,234.667h42.667v42.667H42.667V234.667z"/>
			<path d="M490.667,192h-31.309c-3.039-9.658-6.753-19.076-11.128-28.187c-5.1-10.621-17.845-15.096-28.466-9.996
				c-10.621,5.1-15.096,17.845-9.996,28.466c1.533,3.192,2.954,6.435,4.284,9.716h-8.719C393.551,192,384,201.551,384,213.333
				v85.333c0,11.782,9.551,21.333,21.333,21.333h15.898c-5.024,1.82-9.38,5.505-11.909,10.686
				c-5.561,11.393-12.384,22.129-20.327,32.013c-7.381,9.184-5.92,22.612,3.264,29.993s22.612,5.92,29.993-3.264
				c9.927-12.351,18.456-25.774,25.413-40.025c5.168-10.588,0.775-23.361-9.813-28.529c-0.678-0.331-1.365-0.62-2.059-0.873h54.874
				c11.782,0,21.333-9.551,21.333-21.333v-85.333C512,201.551,502.449,192,490.667,192z M469.333,277.333h-42.667v-42.667h42.667
				V277.333z"/>
			<path d="M392.692,119.741c7.381-9.184,5.92-22.612-3.264-29.993c-12.351-9.927-25.774-18.456-40.025-25.413
				c-10.588-5.168-23.361-0.775-28.529,9.813c-0.331,0.678-0.62,1.365-0.873,2.059V21.333C320,9.551,310.449,0,298.667,0h-85.333
				C201.551,0,192,9.551,192,21.333v31.284c-9.661,3.038-19.081,6.754-28.194,11.132c-10.62,5.102-15.093,17.848-9.991,28.468
				c5.102,10.62,17.848,15.093,28.468,9.99c3.192-1.534,6.435-2.955,9.717-4.286v8.745c0,11.782,9.551,21.333,21.333,21.333h85.333
				c11.782,0,21.333-9.551,21.333-21.333V90.769c1.82,5.024,5.505,9.38,10.686,11.909c11.393,5.561,22.129,12.384,32.013,20.327
				C371.883,130.386,385.311,128.925,392.692,119.741z M277.333,85.333h-42.667V42.667h42.667V85.333z"/>
			<path d="M329.716,409.768c-3.192,1.533-6.435,2.954-9.716,4.284v-8.719c0-11.782-9.551-21.333-21.333-21.333h-85.333
				C201.551,384,192,393.551,192,405.333v15.898c-1.82-5.024-5.505-9.38-10.686-11.909c-11.393-5.561-22.129-12.384-32.013-20.327
				c-9.184-7.381-22.612-5.92-29.993,3.264s-5.92,22.612,3.264,29.993c12.351,9.927,25.774,18.456,40.025,25.413
				c10.588,5.168,23.361,0.775,28.529-9.813c0.331-0.678,0.62-1.365,0.873-2.059v54.874c0,11.782,9.551,21.333,21.333,21.333h85.333
				c11.782,0,21.333-9.551,21.333-21.333v-31.309c9.658-3.039,19.076-6.753,28.187-11.128c10.621-5.1,15.096-17.845,9.996-28.466
				S340.337,404.667,329.716,409.768z M277.333,469.333h-42.667v-42.667h42.667V469.333z"/>
		</g>
	</g>
</g>
<g>
</g>
<g>
</g>
<g>
</g>
<g>
</g>
<g>
</g>
<g>
</g>
<g>
</g>
<g>
</g>
<g>
</g>
<g>
</g>
<g>
</g>
<g>
</g>
<g>
</g>
<g>
</g>
<g>
</g>
</svg>
