<?xml version="1.0" encoding="iso-8859-1"?>
<!-- Generator: Adobe Illustrator 19.0.0, SVG Export Plug-In . SVG Version: 6.00 Build 0)  -->
<svg version="1.1" id="Layer_1" xmlns="http://www.w3.org/2000/svg" xmlns:xlink="http://www.w3.org/1999/xlink" x="0px" y="0px"
	 viewBox="0 0 512 512" style="enable-background:new 0 0 512 512;" xml:space="preserve">
<g>
	<g>
		<g>
			<path d="M490.667,42.667H128V21.333C128,9.551,118.449,0,106.667,0H21.333C9.551,0,0,9.551,0,21.333v85.333
				C0,118.449,9.551,128,21.333,128h21.333v362.667C42.667,502.449,52.218,512,64,512c11.782,0,21.333-9.551,21.333-21.333V128
				h21.333c11.782,0,21.333-9.551,21.333-21.333V85.333h362.667C502.449,85.333,512,75.782,512,64
				C512,52.218,502.449,42.667,490.667,42.667z M85.333,85.333H42.667V42.667h42.667V85.333z"/>
			<path d="M419.381,303.945L248.715,154.612c-13.051-11.419-33.55-3.323-35.276,13.932l-21.333,213.333
				c-1.848,18.482,19.168,30.334,34.027,19.189l61.655-46.241l33.307,99.921c3.726,11.177,15.807,17.218,26.985,13.492
				c11.177-3.726,17.218-15.807,13.492-26.985l-33.307-99.921h77.068C425.032,341.333,434.206,316.917,419.381,303.945z
				 M298.667,298.667c-0.003,0-0.006,0-0.009,0c-1.131,0.001-2.271,0.089-3.411,0.276c-0.004,0.001-0.007,0.001-0.011,0.002
				c-0.517,0.085-1.033,0.192-1.549,0.316c-0.092,0.022-0.184,0.046-0.276,0.069c-0.498,0.127-0.995,0.266-1.49,0.431
				c-0.495,0.165-0.977,0.352-1.451,0.549c-0.087,0.036-0.175,0.072-0.262,0.11c-0.487,0.21-0.964,0.434-1.428,0.676
				c-0.004,0.002-0.009,0.005-0.013,0.007c-1.023,0.534-1.987,1.147-2.891,1.824c-0.003,0.002-0.006,0.004-0.009,0.006
				l-46.472,34.854l12.38-123.804l96.781,84.683H298.667z"/>
		</g>
	</g>
</g>
<g>
</g>
<g>
</g>
<g>
</g>
<g>
</g>
<g>
</g>
<g>
</g>
<g>
</g>
<g>
</g>
<g>
</g>
<g>
</g>
<g>
</g>
<g>
</g>
<g>
</g>
<g>
</g>
<g>
</g>
</svg>
