<?xml version="1.0" encoding="iso-8859-1"?>
<!-- Generator: Adobe Illustrator 19.0.0, SVG Export Plug-In . SVG Version: 6.00 Build 0)  -->
<svg version="1.1" id="Layer_1" xmlns="http://www.w3.org/2000/svg" xmlns:xlink="http://www.w3.org/1999/xlink" x="0px" y="0px"
	 viewBox="0 0 512 512" style="enable-background:new 0 0 512 512;" xml:space="preserve">
<g>
	<g>
		<path d="M490.667,192h-31.315C438.496,125.71,386.268,73.46,320,52.623v-31.29C320,9.551,310.449,0,298.667,0h-85.333
			C201.551,0,192,9.551,192,21.333v31.29C125.732,73.46,73.504,125.71,52.649,192H21.333C9.551,192,0,201.551,0,213.333v85.333
			C0,310.449,9.551,320,21.333,320h31.315C73.504,386.29,125.732,438.54,192,459.377v31.29c0,11.782,9.551,21.333,21.333,21.333
			h85.333c11.782,0,21.333-9.551,21.333-21.333v-31.315C386.29,438.496,438.54,386.268,459.377,320h31.29
			c11.782,0,21.333-9.551,21.333-21.333v-85.333C512,201.551,502.449,192,490.667,192z M234.667,42.667h42.667v26.261v16.405
			h-42.667V68.928V42.667z M42.667,234.667h26.283h16.384v42.667H68.949H42.667V234.667z M277.333,469.333h-42.667v-26.261v-16.405
			h42.667v16.384V469.333z M320,414.058v-8.725c0-11.782-9.551-21.333-21.333-21.333h-85.333C201.551,384,192,393.551,192,405.333
			v8.752C149.324,396.787,115.251,362.7,97.942,320h8.725c11.782,0,21.333-9.551,21.333-21.333v-85.333
			c0-11.782-9.551-21.333-21.333-21.333h-8.725c17.309-42.7,51.382-76.787,94.058-94.085v8.752c0,11.782,9.551,21.333,21.333,21.333
			h85.333c11.782,0,21.333-9.551,21.333-21.333v-8.752c42.676,17.299,76.749,51.385,94.058,94.085h-8.725
			C393.551,192,384,201.551,384,213.333v85.333c0,11.782,9.551,21.333,21.333,21.333h8.752
			C396.787,362.676,362.7,396.749,320,414.058z M469.333,277.333h-26.261h-16.405v-42.667h16.384h26.283V277.333z"/>
	</g>
</g>
<g>
</g>
<g>
</g>
<g>
</g>
<g>
</g>
<g>
</g>
<g>
</g>
<g>
</g>
<g>
</g>
<g>
</g>
<g>
</g>
<g>
</g>
<g>
</g>
<g>
</g>
<g>
</g>
<g>
</g>
</svg>
