<?xml version="1.0" encoding="iso-8859-1"?>
<!-- Generator: Adobe Illustrator 19.0.0, SVG Export Plug-In . SVG Version: 6.00 Build 0)  -->
<svg version="1.1" id="Layer_1" xmlns="http://www.w3.org/2000/svg" xmlns:xlink="http://www.w3.org/1999/xlink" x="0px" y="0px"
	 viewBox="0 0 512 512" style="enable-background:new 0 0 512 512;" xml:space="preserve">
<g>
	<g>
		<path d="M256,0C114.612,0,0,114.612,0,256s114.612,256,256,256s256-114.612,256-256S397.388,0,256,0z M256,46.545
			c75.909,0,142.384,40.377,179.121,100.826l-109.303,31.229v-15.692c0-12.853-10.42-23.273-23.273-23.273h-93.091
			c-12.853,0-23.273,10.42-23.273,23.273V191.9L47.993,231.383C60.179,127.304,148.648,46.545,256,46.545z M279.273,186.182v46.545
			h-46.545v-46.545H279.273z M256,465.455c-107.827,0-196.604-81.475-208.165-186.219c1.694-0.096,3.404-0.372,5.104-0.858
			l133.243-38.069V256c0,12.853,10.42,23.273,23.273,23.273h93.091c12.853,0,23.273-10.42,23.273-23.273v-28.991l129.058-36.874
			c6.856,20.712,10.578,42.852,10.578,65.865C465.455,371.682,371.682,465.455,256,465.455z"/>
	</g>
</g>
<g>
</g>
<g>
</g>
<g>
</g>
<g>
</g>
<g>
</g>
<g>
</g>
<g>
</g>
<g>
</g>
<g>
</g>
<g>
</g>
<g>
</g>
<g>
</g>
<g>
</g>
<g>
</g>
<g>
</g>
</svg>
