<?xml version="1.0" encoding="iso-8859-1"?>
<!-- Generator: Adobe Illustrator 19.0.0, SVG Export Plug-In . SVG Version: 6.00 Build 0)  -->
<svg version="1.1" id="Layer_1" xmlns="http://www.w3.org/2000/svg" xmlns:xlink="http://www.w3.org/1999/xlink" x="0px" y="0px"
	 viewBox="0 0 512 512" style="enable-background:new 0 0 512 512;" xml:space="preserve">
<g>
	<g>
		<path d="M490.667,170.667H341.333V21.333C341.333,9.551,331.782,0,320,0H21.333C9.551,0,0,9.551,0,21.333V320
			c0,11.782,9.551,21.333,21.333,21.333h149.333v149.333c0,11.782,9.551,21.333,21.333,21.333h298.667
			c11.782,0,21.333-9.551,21.333-21.333V192C512,180.218,502.449,170.667,490.667,170.667z M213.333,213.333h85.333v85.333h-85.333
			V213.333z M192,170.667c-11.782,0-21.333,9.551-21.333,21.333h-128v-64h256v42.667H192z M298.667,42.667v42.667h-256V42.667
			H298.667z M42.667,234.667h128v64h-128V234.667z M469.333,469.333h-256v-128H320c11.782,0,21.333-9.551,21.333-21.333V213.333h128
			V469.333z"/>
	</g>
</g>
<g>
</g>
<g>
</g>
<g>
</g>
<g>
</g>
<g>
</g>
<g>
</g>
<g>
</g>
<g>
</g>
<g>
</g>
<g>
</g>
<g>
</g>
<g>
</g>
<g>
</g>
<g>
</g>
<g>
</g>
</svg>
