<?xml version="1.0" encoding="iso-8859-1"?>
<!-- Generator: Adobe Illustrator 19.0.0, SVG Export Plug-In . SVG Version: 6.00 Build 0)  -->
<svg version="1.1" id="Layer_1" xmlns="http://www.w3.org/2000/svg" xmlns:xlink="http://www.w3.org/1999/xlink" x="0px" y="0px"
	 viewBox="0 0 512 512" style="enable-background:new 0 0 512 512;" xml:space="preserve">
<g>
	<g>
		<path d="M341.333,0c-94.257,0-170.667,76.41-170.667,170.667C76.41,170.667,0,247.077,0,341.333S76.41,512,170.667,512
			s170.667-76.41,170.667-170.667c94.257,0,170.667-76.41,170.667-170.667S435.59,0,341.333,0z M170.667,213.333
			c6.154,0,12.628,0.586,20.033,1.748c14.292,2.242,26.623-10.09,24.382-24.382c-1.162-7.405-1.748-13.878-1.748-20.033
			c0-70.693,57.307-128,128-128c33.013,0,63.105,12.501,85.807,33.024L66.744,416.065c-15.148-21.028-24.077-46.836-24.077-74.731
			C42.667,270.641,99.974,213.333,170.667,213.333z M341.333,298.667c-6.155,0-12.628-0.586-20.033-1.748
			c-14.292-2.242-26.623,10.09-24.382,24.382c1.162,7.405,1.748,13.878,1.748,20.033c0,70.693-57.307,128-128,128
			c-27.384,0-52.755-8.604-73.569-23.249l356.591-336.78c9.972,18.22,15.645,39.128,15.645,61.362
			C469.333,241.359,412.026,298.667,341.333,298.667z"/>
	</g>
</g>
<g>
</g>
<g>
</g>
<g>
</g>
<g>
</g>
<g>
</g>
<g>
</g>
<g>
</g>
<g>
</g>
<g>
</g>
<g>
</g>
<g>
</g>
<g>
</g>
<g>
</g>
<g>
</g>
<g>
</g>
</svg>
