<?xml version="1.0" encoding="iso-8859-1"?>
<!-- Generator: Adobe Illustrator 19.0.0, SVG Export Plug-In . SVG Version: 6.00 Build 0)  -->
<svg version="1.1" id="Layer_1" xmlns="http://www.w3.org/2000/svg" xmlns:xlink="http://www.w3.org/1999/xlink" x="0px" y="0px"
	 viewBox="0 0 512.043 512.043" style="enable-background:new 0 0 512.043 512.043;" xml:space="preserve">
<g transform="translate(-1 -1)">
	<g>
		<g>
			<path d="M491.701,278.355H22.368c-23.396,0-29.732,32.22-8.077,41.078l469.333,192c14.035,5.742,29.411-4.581,29.411-19.745v-192
				C513.035,287.906,503.483,278.355,491.701,278.355z M470.368,459.912l-339.509-138.89h339.509V459.912z"/>
			<path d="M483.624,2.61l-469.333,192c-21.654,8.858-15.318,41.078,8.077,41.078h469.333c11.782,0,21.333-9.551,21.333-21.333v-192
				C513.035,7.191,497.659-3.132,483.624,2.61z M470.368,193.022H130.859l339.509-138.89V193.022z"/>
		</g>
	</g>
</g>
<g>
</g>
<g>
</g>
<g>
</g>
<g>
</g>
<g>
</g>
<g>
</g>
<g>
</g>
<g>
</g>
<g>
</g>
<g>
</g>
<g>
</g>
<g>
</g>
<g>
</g>
<g>
</g>
<g>
</g>
</svg>
