<?xml version="1.0" encoding="iso-8859-1"?>
<!-- Generator: Adobe Illustrator 19.0.0, SVG Export Plug-In . SVG Version: 6.00 Build 0)  -->
<svg version="1.1" id="Layer_1" xmlns="http://www.w3.org/2000/svg" xmlns:xlink="http://www.w3.org/1999/xlink" x="0px" y="0px"
	 viewBox="0 0 512 512" style="enable-background:new 0 0 512 512;" xml:space="preserve">
<g>
	<g>
		<g>
			<path d="M232.727,465.455h-23.273c-12.853,0-23.273,10.42-23.273,23.273S196.601,512,209.455,512h23.273
				C245.58,512,256,501.58,256,488.727S245.58,465.455,232.727,465.455z"/>
			<path d="M209.455,372.364c-12.853,0-23.273,10.42-23.273,23.273v23.273c0,12.853,10.42,23.273,23.273,23.273
				c12.853,0,23.273-10.42,23.273-23.273v-23.273C232.727,382.783,222.308,372.364,209.455,372.364z"/>
			<path d="M325.818,465.455h-23.273c-12.853,0-23.273,10.42-23.273,23.273S289.692,512,302.545,512h23.273
				c12.853,0,23.273-10.42,23.273-23.273S338.671,465.455,325.818,465.455z"/>
			<path d="M209.455,349.091c12.853,0,23.273-10.42,23.273-23.273h46.545h23.273c12.853,0,23.273-10.42,23.273-23.273v-69.818
				v-23.273V23.273C325.818,10.42,315.399,0,302.545,0H23.273C10.42,0,0,10.42,0,23.273v279.273
				c0,12.853,10.42,23.273,23.273,23.273h162.909C186.182,338.671,196.601,349.091,209.455,349.091z M46.545,279.273V46.545h232.727
				v162.909v23.273v46.545H46.545z"/>
			<path d="M488.727,256c-12.853,0-23.273,10.42-23.273,23.273v23.273c0,12.853,10.42,23.273,23.273,23.273S512,315.399,512,302.545
				v-23.273C512,266.42,501.58,256,488.727,256z"/>
			<path d="M488.727,442.182c-12.853,0-23.273,10.42-23.273,23.273v23.273c0,12.853,10.42,23.273,23.273,23.273
				S512,501.58,512,488.727v-23.273C512,452.601,501.58,442.182,488.727,442.182z"/>
			<path d="M488.727,349.091c-12.853,0-23.273,10.42-23.273,23.273v23.273c0,12.853,10.42,23.273,23.273,23.273
				S512,408.49,512,395.636v-23.273C512,359.51,501.58,349.091,488.727,349.091z"/>
			<path d="M488.727,232.727c12.853,0,23.273-10.42,23.273-23.273c0-12.853-10.42-23.273-23.273-23.273h-23.273
				c-12.853,0-23.273,10.42-23.273,23.273c0,12.853,10.42,23.273,23.273,23.273H488.727z"/>
			<path d="M418.909,465.455h-23.273c-12.853,0-23.273,10.42-23.273,23.273S382.783,512,395.636,512h23.273
				c12.853,0,23.273-10.42,23.273-23.273S431.762,465.455,418.909,465.455z"/>
			<path d="M395.636,232.727c12.853,0,23.273-10.42,23.273-23.273c0-12.853-10.42-23.273-23.273-23.273h-23.273
				c-12.853,0-23.273,10.42-23.273,23.273c0,12.853,10.42,23.273,23.273,23.273H395.636z"/>
		</g>
	</g>
</g>
<g>
</g>
<g>
</g>
<g>
</g>
<g>
</g>
<g>
</g>
<g>
</g>
<g>
</g>
<g>
</g>
<g>
</g>
<g>
</g>
<g>
</g>
<g>
</g>
<g>
</g>
<g>
</g>
<g>
</g>
</svg>
