<?xml version="1.0" encoding="iso-8859-1"?>
<!-- Generator: Adobe Illustrator 19.0.0, SVG Export Plug-In . SVG Version: 6.00 Build 0)  -->
<svg version="1.1" id="Layer_1" xmlns="http://www.w3.org/2000/svg" xmlns:xlink="http://www.w3.org/1999/xlink" x="0px" y="0px"
	 viewBox="0 0 512 512" style="enable-background:new 0 0 512 512;" xml:space="preserve">
<g>
	<g>
		<path d="M490.667,320c11.782,0,21.333-9.551,21.333-21.333v-85.333c0-11.782-9.551-21.333-21.333-21.333H320v-42.667h64
			c19.953,0,28.986-24.948,13.657-37.722l-128-106.667c-7.911-6.593-19.403-6.593-27.315,0l-128,106.667
			c-15.328,12.774-6.296,37.722,13.657,37.722h64V192H21.333C9.551,192,0,201.551,0,213.333v85.333C0,310.449,9.551,320,21.333,320
			H192v64H21.333C9.551,384,0,393.551,0,405.333v85.333C0,502.449,9.551,512,21.333,512h469.333
			c11.782,0,21.333-9.551,21.333-21.333v-85.333c0-11.782-9.551-21.333-21.333-21.333H320v-64H490.667z M469.333,234.667v42.667H320
			v-42.667H469.333z M42.667,277.333v-42.667H192v42.667H42.667z M469.333,426.667v42.667H42.667v-42.667h170.667
			c11.782,0,21.333-9.551,21.333-21.333V298.667v-85.333V128c0-11.782-9.551-21.333-21.333-21.333h-26.41L256,49.103l69.076,57.564
			h-26.41c-11.782,0-21.333,9.551-21.333,21.333v85.333v85.333v106.667c0,11.782,9.551,21.333,21.333,21.333H469.333z"/>
	</g>
</g>
<g>
</g>
<g>
</g>
<g>
</g>
<g>
</g>
<g>
</g>
<g>
</g>
<g>
</g>
<g>
</g>
<g>
</g>
<g>
</g>
<g>
</g>
<g>
</g>
<g>
</g>
<g>
</g>
<g>
</g>
</svg>
