<?xml version="1.0" encoding="iso-8859-1"?>
<!-- Generator: Adobe Illustrator 19.0.0, SVG Export Plug-In . SVG Version: 6.00 Build 0)  -->
<svg version="1.1" id="Layer_1" xmlns="http://www.w3.org/2000/svg" xmlns:xlink="http://www.w3.org/1999/xlink" x="0px" y="0px"
	 viewBox="0 0 512 512" style="enable-background:new 0 0 512 512;" xml:space="preserve">
<g>
	<g>
		<path d="M0,0v512h512V0H0z M469.333,128H362.667V42.667h106.667V128z M192,362.667v-85.333h128v85.333H192z M320,405.333v64H192
			v-64H320z M320,170.667v64H192v-64H320z M192,128V42.667h128V128H192z M149.333,234.667H42.667v-64h106.667V234.667z
			 M149.333,277.333v85.333H42.667v-85.333H149.333z M362.667,277.333h106.667v85.333H362.667V277.333z M362.667,234.667v-64
			h106.667v64H362.667z M149.333,42.667V128H42.667V42.667H149.333z M42.667,405.333h106.667v64H42.667V405.333z M362.667,469.333
			v-64h106.667v64H362.667z"/>
	</g>
</g>
<g>
</g>
<g>
</g>
<g>
</g>
<g>
</g>
<g>
</g>
<g>
</g>
<g>
</g>
<g>
</g>
<g>
</g>
<g>
</g>
<g>
</g>
<g>
</g>
<g>
</g>
<g>
</g>
<g>
</g>
</svg>
