<?xml version="1.0" encoding="iso-8859-1"?>
<!-- Generator: Adobe Illustrator 19.0.0, SVG Export Plug-In . SVG Version: 6.00 Build 0)  -->
<svg version="1.1" id="Layer_1" xmlns="http://www.w3.org/2000/svg" xmlns:xlink="http://www.w3.org/1999/xlink" x="0px" y="0px"
	 viewBox="0 0 512.028 512.028" style="enable-background:new 0 0 512.028 512.028;" xml:space="preserve">
<g transform="translate(-1)">
	<g>
		<path d="M490.768,100.185H268.159c-12.294,0-22.261,9.967-22.261,22.261v73.026L177.064,46.341
			c-7.959-17.243-32.465-17.242-40.424,0L3.075,335.732c-6.808,14.75,3.966,31.589,20.212,31.589h113.165
			c10.604,63.159,65.538,111.298,131.706,111.298c66.171,0,121.106-48.142,131.708-111.304h90.901
			c12.294,0,22.261-9.966,22.261-22.261V122.446C513.028,110.151,503.062,100.185,490.768,100.185z M468.507,144.707v66.783H290.42
			v-66.783H468.507z M156.853,108.79l53.469,115.842c-38.395,18.478-66.591,54.78-73.871,98.169H58.079L156.853,108.79z
			 M268.159,434.098c-49.168,0-89.043-39.876-89.043-89.044c0-0.082,0.003-0.163,0.003-0.244c0.003-1.044,0.027-2.083,0.066-3.119
			c0.009-0.241,0.017-0.482,0.027-0.722c0.051-1.12,0.121-2.237,0.214-3.347c0.009-0.114,0.021-0.228,0.03-0.342
			c3.286-37.445,30.073-68.824,66.824-78.165c1.215-0.309,2.376-0.713,3.482-1.197c5.936-1.248,12.089-1.908,18.396-1.908
			c49.168,0,89.044,39.876,89.044,89.043C357.202,394.222,317.327,434.098,268.159,434.098z M399.877,322.793
			c-0.026-0.153-0.06-0.303-0.086-0.456c-0.261-1.524-0.544-3.041-0.857-4.547c-0.048-0.233-0.102-0.465-0.152-0.697
			c-0.292-1.372-0.607-2.737-0.941-4.093c-0.068-0.275-0.132-0.552-0.202-0.826c-0.374-1.477-0.775-2.944-1.198-4.402
			c-0.09-0.311-0.184-0.62-0.277-0.93c-0.417-1.398-0.851-2.788-1.312-4.166c-0.037-0.11-0.071-0.222-0.108-0.332
			c-0.49-1.452-1.011-2.89-1.549-4.319c-0.12-0.319-0.241-0.638-0.364-0.957c-0.545-1.414-1.107-2.819-1.698-4.21
			c-0.071-0.167-0.146-0.331-0.218-0.497c-0.551-1.283-1.125-2.553-1.715-3.815c-0.129-0.276-0.256-0.553-0.387-0.828
			c-0.642-1.348-1.305-2.683-1.99-4.005c-0.138-0.266-0.279-0.529-0.419-0.794c-0.646-1.227-1.309-2.443-1.991-3.647
			c-0.091-0.16-0.179-0.323-0.27-0.483c-0.745-1.301-1.515-2.584-2.302-3.857c-0.177-0.287-0.356-0.572-0.535-0.857
			c-0.802-1.275-1.618-2.54-2.461-3.785c-0.06-0.089-0.123-0.175-0.183-0.264c-0.805-1.183-1.632-2.349-2.474-3.505
			c-0.188-0.258-0.374-0.516-0.564-0.773c-0.88-1.19-1.777-2.365-2.694-3.524c-0.169-0.214-0.343-0.425-0.514-0.638
			c-0.845-1.054-1.704-2.095-2.58-3.122c-0.153-0.18-0.304-0.363-0.458-0.542c-0.555-0.644-1.119-1.279-1.685-1.912h100.81v66.783
			H399.877z"/>
	</g>
</g>
<g>
</g>
<g>
</g>
<g>
</g>
<g>
</g>
<g>
</g>
<g>
</g>
<g>
</g>
<g>
</g>
<g>
</g>
<g>
</g>
<g>
</g>
<g>
</g>
<g>
</g>
<g>
</g>
<g>
</g>
</svg>
