<?xml version="1.0" encoding="iso-8859-1"?>
<!-- Generator: Adobe Illustrator 19.0.0, SVG Export Plug-In . SVG Version: 6.00 Build 0)  -->
<svg version="1.1" id="Layer_1" xmlns="http://www.w3.org/2000/svg" xmlns:xlink="http://www.w3.org/1999/xlink" x="0px" y="0px"
	 viewBox="0 0 512.028 512.028" style="enable-background:new 0 0 512.028 512.028;" xml:space="preserve">
<g transform="translate(-1)">
	<g>
		<path d="M490.768,100.185H268.159c-12.294,0-22.261,9.967-22.261,22.261v73.026L177.064,46.341
			c-7.959-17.243-32.465-17.242-40.424,0L3.075,335.732c-6.808,14.75,3.966,31.589,20.212,31.589h113.165
			c10.604,63.159,65.538,111.298,131.706,111.298c66.171,0,121.106-48.142,131.708-111.304h90.901
			c12.294,0,22.261-9.966,22.261-22.261V122.446C513.028,110.151,503.062,100.185,490.768,100.185z M210.322,224.632
			c-15.905,7.654-30.056,18.372-41.7,31.379H88.905l20.549-44.522h94.802L210.322,224.632z M156.853,108.79l26.853,58.178h-53.704
			L156.853,108.79z M68.356,300.533h73.851c-2.532,7.162-4.47,14.604-5.756,22.268H58.079L68.356,300.533z M268.159,434.098
			c-49.168,0-89.043-39.876-89.043-89.044c0-0.082,0.003-0.163,0.003-0.244c0.003-1.044,0.027-2.083,0.066-3.119
			c0.009-0.241,0.017-0.482,0.027-0.722c0.051-1.12,0.121-2.237,0.214-3.347c0.009-0.114,0.021-0.228,0.03-0.342
			c3.286-37.445,30.073-68.824,66.824-78.165c1.215-0.309,2.376-0.713,3.482-1.197c5.936-1.248,12.089-1.908,18.396-1.908
			c49.168,0,89.044,39.876,89.044,89.043C357.202,394.222,317.327,434.098,268.159,434.098z M468.507,322.793h-68.63
			c-0.026-0.153-0.06-0.303-0.086-0.456c-0.261-1.524-0.544-3.041-0.857-4.547c-0.048-0.233-0.102-0.465-0.152-0.697
			c-0.292-1.372-0.607-2.737-0.941-4.093c-0.068-0.275-0.132-0.552-0.202-0.826c-0.374-1.477-0.775-2.944-1.198-4.402
			c-0.09-0.311-0.184-0.62-0.277-0.93c-0.417-1.398-0.851-2.788-1.312-4.166c-0.037-0.11-0.071-0.222-0.108-0.332
			c-0.49-1.452-1.011-2.89-1.549-4.319c-0.12-0.319-0.241-0.638-0.364-0.957c-0.545-1.414-1.107-2.819-1.698-4.21
			c-0.071-0.167-0.146-0.331-0.218-0.497c-0.551-1.283-1.125-2.553-1.715-3.815c-0.129-0.276-0.256-0.553-0.387-0.828
			c-0.642-1.348-1.305-2.683-1.99-4.005c-0.138-0.266-0.279-0.529-0.419-0.794c-0.646-1.227-1.309-2.443-1.991-3.647
			c-0.091-0.16-0.179-0.323-0.27-0.483c-0.745-1.301-1.515-2.584-2.302-3.857c-0.177-0.287-0.356-0.572-0.535-0.857
			c-0.802-1.275-1.618-2.54-2.461-3.785c-0.06-0.089-0.123-0.175-0.183-0.264c-0.805-1.183-1.632-2.349-2.474-3.505
			c-0.188-0.258-0.374-0.516-0.564-0.773c-0.88-1.19-1.777-2.365-2.694-3.524c-0.169-0.214-0.343-0.425-0.514-0.638
			c-0.845-1.054-1.704-2.095-2.58-3.122c-0.153-0.18-0.304-0.363-0.458-0.542c-0.967-1.122-1.954-2.225-2.957-3.314
			c-0.224-0.243-0.45-0.485-0.676-0.726c-2.067-2.212-4.208-4.353-6.42-6.42c-0.241-0.225-0.482-0.451-0.725-0.675
			c-1.089-1.003-2.192-1.991-3.314-2.957c-0.179-0.154-0.362-0.305-0.542-0.458c-1.028-0.876-2.069-1.736-3.123-2.581
			c-0.212-0.17-0.422-0.343-0.636-0.512c-1.159-0.918-2.335-1.815-3.525-2.695c-0.257-0.19-0.516-0.377-0.774-0.565
			c-1.156-0.842-2.322-1.669-3.506-2.474c-0.087-0.059-0.173-0.121-0.26-0.181c-1.245-0.843-2.51-1.659-3.785-2.46
			c-0.286-0.18-0.573-0.359-0.86-0.537c-1.272-0.786-2.555-1.557-3.855-2.301c-0.16-0.092-0.324-0.18-0.484-0.271
			c-1.202-0.682-2.418-1.344-3.643-1.989c-0.266-0.14-0.531-0.283-0.799-0.422c-1.321-0.684-2.655-1.347-4.001-1.988
			c-0.277-0.132-0.555-0.259-0.833-0.389c-1.26-0.589-2.529-1.161-3.809-1.712c-0.168-0.072-0.333-0.148-0.501-0.219
			c-1.39-0.591-2.794-1.153-4.208-1.698c-0.319-0.123-0.639-0.244-0.959-0.365c-1.428-0.538-2.865-1.058-4.316-1.548
			c-0.113-0.038-0.227-0.073-0.34-0.11c-1.375-0.46-2.762-0.893-4.156-1.309c-0.312-0.093-0.623-0.188-0.936-0.278
			c-1.456-0.422-2.921-0.822-4.397-1.196c-0.277-0.07-0.555-0.135-0.833-0.203c-1.355-0.334-2.717-0.648-4.087-0.94
			c-0.234-0.05-0.465-0.104-0.699-0.152c-1.505-0.312-3.021-0.595-4.544-0.856c-0.154-0.026-0.305-0.061-0.459-0.086v-68.63h178.087
			V322.793z"/>
	</g>
</g>
<g>
</g>
<g>
</g>
<g>
</g>
<g>
</g>
<g>
</g>
<g>
</g>
<g>
</g>
<g>
</g>
<g>
</g>
<g>
</g>
<g>
</g>
<g>
</g>
<g>
</g>
<g>
</g>
<g>
</g>
</svg>
