<?xml version="1.0" encoding="iso-8859-1"?>
<!-- Generator: Adobe Illustrator 19.0.0, SVG Export Plug-In . SVG Version: 6.00 Build 0)  -->
<svg version="1.1" id="Layer_1" xmlns="http://www.w3.org/2000/svg" xmlns:xlink="http://www.w3.org/1999/xlink" x="0px" y="0px"
	 viewBox="0 0 512 512" style="enable-background:new 0 0 512 512;" xml:space="preserve">
<g>
	<g>
		<g>
			<path d="M149.333,64h-128C9.551,64,0,73.551,0,85.333v341.333C0,438.449,9.551,448,21.333,448h128h21.333
				c11.782,0,21.333-9.551,21.333-21.333s-9.551-21.333-21.333-21.333v-42.667v-21.333V256v-21.333v-85.333V128V85.333
				C170.667,73.551,161.115,64,149.333,64z M42.667,106.667H128V128v21.333v85.333V256v85.333v21.333v42.667H42.667V106.667z"/>
			<path d="M277.333,405.333H256c-11.782,0-21.333,9.551-21.333,21.333S244.218,448,256,448h21.333
				c11.782,0,21.333-9.551,21.333-21.333S289.115,405.333,277.333,405.333z"/>
			<path d="M213.333,64H192c-11.782,0-21.333,9.551-21.333,21.333c0,11.782,9.551,21.333,21.333,21.333h21.333
				c11.782,0,21.333-9.551,21.333-21.333C234.667,73.551,225.115,64,213.333,64z"/>
			<path d="M320,64h-21.333c-11.782,0-21.333,9.551-21.333,21.333c0,11.782,9.551,21.333,21.333,21.333H320
				c11.782,0,21.333-9.551,21.333-21.333C341.333,73.551,331.782,64,320,64z"/>
			<path d="M490.667,85.333c-11.782,0-21.333,9.551-21.333,21.333V128c0,11.782,9.551,21.333,21.333,21.333S512,139.782,512,128
				v-21.333C512,94.885,502.449,85.333,490.667,85.333z"/>
			<path d="M490.667,298.667c-11.782,0-21.333,9.551-21.333,21.333v21.333c0,11.782,9.551,21.333,21.333,21.333
				S512,353.115,512,341.333V320C512,308.218,502.449,298.667,490.667,298.667z"/>
			<path d="M490.667,192c-11.782,0-21.333,9.551-21.333,21.333v21.333c0,11.782,9.551,21.333,21.333,21.333S512,246.449,512,234.667
				v-21.333C512,201.551,502.449,192,490.667,192z"/>
			<path d="M490.667,384c-11.782,0-21.333,9.551-21.333,21.333c-11.782,0-21.333,9.551-21.333,21.333S457.551,448,469.333,448
				h21.333c11.782,0,21.333-9.551,21.333-21.333v-21.333C512,393.551,502.449,384,490.667,384z"/>
			<path d="M426.667,64h-21.333C393.551,64,384,73.551,384,85.333c0,11.782,9.551,21.333,21.333,21.333h21.333
				c11.782,0,21.333-9.551,21.333-21.333C448,73.551,438.449,64,426.667,64z"/>
			<path d="M384,405.333h-21.333c-11.782,0-21.333,9.551-21.333,21.333S350.885,448,362.667,448H384
				c11.782,0,21.333-9.551,21.333-21.333S395.782,405.333,384,405.333z"/>
		</g>
	</g>
</g>
<g>
</g>
<g>
</g>
<g>
</g>
<g>
</g>
<g>
</g>
<g>
</g>
<g>
</g>
<g>
</g>
<g>
</g>
<g>
</g>
<g>
</g>
<g>
</g>
<g>
</g>
<g>
</g>
<g>
</g>
</svg>
