<?xml version="1.0" encoding="iso-8859-1"?>
<!-- Generator: Adobe Illustrator 19.0.0, SVG Export Plug-In . SVG Version: 6.00 Build 0)  -->
<svg version="1.1" id="Layer_1" xmlns="http://www.w3.org/2000/svg" xmlns:xlink="http://www.w3.org/1999/xlink" x="0px" y="0px"
	 viewBox="0 0 511.585 511.585" style="enable-background:new 0 0 511.585 511.585;" xml:space="preserve">
<g>
	<g>
		<g>
			<path d="M201.129,462.676c-6.258-1.647-12.428-3.578-18.494-5.785c-11.072-4.029-23.313,1.681-27.342,12.753
				c-4.029,11.072,1.681,23.313,12.753,27.342c7.289,2.652,14.704,4.973,22.224,6.952c11.394,2.999,23.062-3.807,26.06-15.201
				S212.523,465.675,201.129,462.676z"/>
			<path d="M115.642,417.372c-4.882-4.247-9.571-8.714-14.05-13.385c-8.155-8.504-21.66-8.786-30.163-0.631
				c-8.504,8.155-8.786,21.66-0.631,30.163c5.369,5.599,10.989,10.953,16.842,16.044c8.889,7.733,22.364,6.795,30.097-2.094
				S124.532,425.105,115.642,417.372z"/>
			<path d="M161.526,40.236c-5.67-10.328-18.639-14.105-28.967-8.435c-6.804,3.735-13.435,7.779-19.87,12.115
				c-9.771,6.584-12.354,19.843-5.769,29.613c6.584,9.771,19.843,12.354,29.613,5.769c5.364-3.615,10.889-6.984,16.558-10.096
				C163.419,63.533,167.196,50.564,161.526,40.236z"/>
			<path d="M51.938,320.113c-3.517-11.245-15.484-17.51-26.729-13.993c-11.245,3.517-17.51,15.484-13.993,26.729
				c2.321,7.42,4.978,14.722,7.962,21.885c4.531,10.876,17.021,16.02,27.897,11.489c10.876-4.531,16.02-17.021,11.489-27.897
				C56.081,332.363,53.87,326.287,51.938,320.113z"/>
			<path d="M456.784,185.235c2.151,6.086,4.025,12.274,5.615,18.549c2.893,11.421,14.498,18.335,25.919,15.441
				c11.421-2.893,18.334-14.498,15.441-25.919c-1.91-7.54-4.162-14.977-6.747-22.29c-3.927-11.109-16.115-16.931-27.224-13.004
				C458.679,161.938,452.857,174.127,456.784,185.235z"/>
			<path d="M42.63,243.534c0.384-6.483,1.058-12.916,2.019-19.288c1.757-11.65-6.263-22.519-17.913-24.276
				S4.217,206.233,2.46,217.883c-1.153,7.645-1.962,15.361-2.422,23.131c-0.696,11.761,8.275,21.86,20.036,22.556
				C31.835,264.266,41.934,255.295,42.63,243.534z"/>
			<path d="M41.324,158.15c10.217,5.868,23.256,2.342,29.124-7.875c3.221-5.608,6.695-11.066,10.412-16.359
				c6.771-9.642,4.443-22.948-5.2-29.718c-9.642-6.771-22.948-4.443-29.718,5.2c-4.459,6.35-8.628,12.899-12.492,19.628
				C27.582,139.243,31.108,152.282,41.324,158.15z"/>
			<path d="M385.329,425.709c-5.133,3.938-10.44,7.642-15.907,11.099c-9.958,6.297-12.927,19.474-6.63,29.432
				s19.474,12.927,29.432,6.63c6.558-4.147,12.924-8.589,19.08-13.312c9.347-7.173,11.11-20.565,3.937-29.912
				C408.068,420.299,394.676,418.537,385.329,425.709z"/>
			<path d="M243.109,0.65c-7.777,0.374-15.503,1.097-23.161,2.164c-11.669,1.627-19.81,12.405-18.184,24.074
				c1.627,11.669,12.405,19.81,24.074,18.184c6.384-0.89,12.828-1.493,19.319-1.805c11.768-0.566,20.85-10.564,20.285-22.333
				S254.878,0.084,243.109,0.65z"/>
			<path d="M448.388,120.862c8.983-7.624,10.085-21.086,2.462-30.069c-5.02-5.915-10.305-11.6-15.838-17.038
				c-8.403-8.258-21.91-8.141-30.169,0.263c-8.258,8.403-8.141,21.91,0.263,30.169c4.616,4.537,9.026,9.28,13.213,14.214
				C425.942,127.383,439.404,128.485,448.388,120.862z"/>
			<path d="M490.252,235.018c-11.782,0-21.333,9.551-21.333,21.333c0,6.511-0.291,12.983-0.869,19.406
				c-1.057,11.735,7.599,22.104,19.334,23.161c11.735,1.057,22.104-7.599,23.161-19.334c0.693-7.694,1.041-15.444,1.041-23.233
				C511.585,244.569,502.034,235.018,490.252,235.018z"/>
			<path d="M475.519,341.112c-10.561-5.223-23.357-0.895-28.58,9.666c-2.866,5.795-5.995,11.456-9.375,16.966
				c-6.162,10.042-3.016,23.178,7.026,29.34c10.042,6.162,23.178,3.016,29.34-7.026c4.058-6.613,7.813-13.409,11.254-20.366
				C490.408,359.131,486.08,346.335,475.519,341.112z"/>
			<path d="M298.143,465.443c-6.319,1.279-12.71,2.272-19.16,2.975c-11.713,1.276-20.173,11.806-18.897,23.519
				c1.276,11.713,11.806,20.173,23.519,18.897c7.739-0.843,15.411-2.036,22.999-3.571c11.548-2.337,19.015-13.592,16.679-25.14
				S309.691,463.106,298.143,465.443z"/>
			<path d="M368.615,49.541c4.697-10.805-0.255-23.372-11.06-28.07c-7.119-3.095-14.381-5.864-21.766-8.299
				c-11.19-3.689-23.251,2.392-26.94,13.582s2.392,23.251,13.582,26.94c6.146,2.026,12.189,4.331,18.114,6.907
				C351.35,65.298,363.918,60.346,368.615,49.541z"/>
		</g>
	</g>
</g>
<g>
</g>
<g>
</g>
<g>
</g>
<g>
</g>
<g>
</g>
<g>
</g>
<g>
</g>
<g>
</g>
<g>
</g>
<g>
</g>
<g>
</g>
<g>
</g>
<g>
</g>
<g>
</g>
<g>
</g>
</svg>
