<?xml version="1.0" encoding="iso-8859-1"?>
<!-- Generator: Adobe Illustrator 19.0.0, SVG Export Plug-In . SVG Version: 6.00 Build 0)  -->
<svg version="1.1" id="Layer_1" xmlns="http://www.w3.org/2000/svg" xmlns:xlink="http://www.w3.org/1999/xlink" x="0px" y="0px"
	 viewBox="0 0 512 512" style="enable-background:new 0 0 512 512;" xml:space="preserve">
<g>
	<g>
		<g>
			<path d="M42.667,469.333H21.333C9.551,469.333,0,478.885,0,490.667S9.551,512,21.333,512h21.333
				C54.449,512,64,502.449,64,490.667S54.449,469.333,42.667,469.333z"/>
			<path d="M42.667,448v-21.333c0-11.782-9.551-21.333-21.333-21.333C9.551,405.333,0,414.885,0,426.667V448
				c0,11.782,9.551,21.333,21.333,21.333C33.115,469.333,42.667,459.782,42.667,448z"/>
			<path d="M42.667,0H21.333C9.551,0,0,9.551,0,21.333v21.333C0,54.449,9.551,64,21.333,64c11.782,0,21.333-9.551,21.333-21.333
				C54.449,42.667,64,33.115,64,21.333C64,9.551,54.449,0,42.667,0z"/>
			<path d="M149.333,469.333H128c-11.782,0-21.333,9.551-21.333,21.333S116.218,512,128,512h21.333
				c11.782,0,21.333-9.551,21.333-21.333S161.115,469.333,149.333,469.333z"/>
			<path d="M21.333,149.333c11.782,0,21.333-9.551,21.333-21.333v-21.333c0-11.782-9.551-21.333-21.333-21.333
				C9.551,85.333,0,94.885,0,106.667V128C0,139.782,9.551,149.333,21.333,149.333z"/>
			<path d="M448,42.667h21.333c11.782,0,21.333-9.551,21.333-21.333C490.667,9.551,481.115,0,469.333,0H448
				c-11.782,0-21.333,9.551-21.333,21.333C426.667,33.115,436.218,42.667,448,42.667z"/>
			<path d="M149.333,0H128c-11.782,0-21.333,9.551-21.333,21.333c0,11.782,9.551,21.333,21.333,21.333h21.333
				c11.782,0,21.333-9.551,21.333-21.333C170.667,9.551,161.115,0,149.333,0z"/>
			<path d="M21.333,256c11.782,0,21.333-9.551,21.333-21.333v-21.333c0-11.782-9.551-21.333-21.333-21.333
				C9.551,192,0,201.551,0,213.333v21.333C0,246.449,9.551,256,21.333,256z"/>
			<path d="M21.333,362.667c11.782,0,21.333-9.551,21.333-21.333V320c0-11.782-9.551-21.333-21.333-21.333
				C9.551,298.667,0,308.218,0,320v21.333C0,353.115,9.551,362.667,21.333,362.667z"/>
			<path d="M256,469.333h-21.333c-11.782,0-21.333,9.551-21.333,21.333S222.885,512,234.667,512H256
				c11.782,0,21.333-9.551,21.333-21.333S267.782,469.333,256,469.333z"/>
			<path d="M490.667,170.667c-11.782,0-21.333,9.551-21.333,21.333v21.333c0,11.782,9.551,21.333,21.333,21.333
				S512,225.115,512,213.333V192C512,180.218,502.449,170.667,490.667,170.667z"/>
			<path d="M490.667,384c-11.782,0-21.333,9.551-21.333,21.333v21.333c0,11.782,9.551,21.333,21.333,21.333S512,438.449,512,426.667
				v-21.333C512,393.551,502.449,384,490.667,384z"/>
			<path d="M490.667,64c-11.782,0-21.333,9.551-21.333,21.333v21.333c0,11.782,9.551,21.333,21.333,21.333S512,118.449,512,106.667
				V85.333C512,73.551,502.449,64,490.667,64z"/>
			<path d="M490.667,277.333c-11.782,0-21.333,9.551-21.333,21.333V320c0,11.782,9.551,21.333,21.333,21.333S512,331.782,512,320
				v-21.333C512,286.885,502.449,277.333,490.667,277.333z"/>
			<path d="M256,0h-21.333c-11.782,0-21.333,9.551-21.333,21.333c0,11.782,9.551,21.333,21.333,21.333H256
				c11.782,0,21.333-9.551,21.333-21.333C277.333,9.551,267.782,0,256,0z"/>
			<path d="M362.667,469.333h-21.333c-11.782,0-21.333,9.551-21.333,21.333S329.551,512,341.333,512h21.333
				c11.782,0,21.333-9.551,21.333-21.333S374.449,469.333,362.667,469.333z"/>
			<path d="M362.667,0h-21.333C329.551,0,320,9.551,320,21.333c0,11.782,9.551,21.333,21.333,21.333h21.333
				c11.782,0,21.333-9.551,21.333-21.333C384,9.551,374.449,0,362.667,0z"/>
			<path d="M469.333,469.333H448c-11.782,0-21.333,9.551-21.333,21.333S436.218,512,448,512h21.333
				c11.782,0,21.333-9.551,21.333-21.333S481.115,469.333,469.333,469.333z"/>
		</g>
	</g>
</g>
<g>
</g>
<g>
</g>
<g>
</g>
<g>
</g>
<g>
</g>
<g>
</g>
<g>
</g>
<g>
</g>
<g>
</g>
<g>
</g>
<g>
</g>
<g>
</g>
<g>
</g>
<g>
</g>
<g>
</g>
</svg>
