<?xml version="1.0" encoding="iso-8859-1"?>
<!-- Generator: Adobe Illustrator 19.0.0, SVG Export Plug-In . SVG Version: 6.00 Build 0)  -->
<svg version="1.1" id="Layer_1" xmlns="http://www.w3.org/2000/svg" xmlns:xlink="http://www.w3.org/1999/xlink" x="0px" y="0px"
	 viewBox="0 0 512 512" style="enable-background:new 0 0 512 512;" xml:space="preserve">
<g>
	<g>
		<g>
			<path d="M179.514,42.667c5.514,0,10.943,0.315,16.317,0.942c11.703,1.365,22.296-7.015,23.662-18.717
				c1.365-11.703-7.015-22.297-18.717-23.662C193.76,0.411,186.68,0,179.507,0c-1.461,0.004-1.461,0.004-2.912,0.024
				c-11.781,0.189-21.177,9.893-20.988,21.674c0.189,11.781,9.893,21.177,21.674,20.988C178.396,42.67,178.396,42.67,179.514,42.667
				z"/>
			<path d="M208.698,316.938c-6.005,1.283-12.113,2.168-18.296,2.645c-11.747,0.906-20.535,11.164-19.629,22.911
				c0.215,2.787,0.961,5.403,2.124,7.767c-2.508,3.498-4,7.773-4,12.405V384c0,11.782,9.551,21.333,21.333,21.333
				s21.333-9.551,21.333-21.333v-21.333c0-0.947-0.083-1.873-0.203-2.788c2.093-0.37,4.178-0.772,6.254-1.216
				c11.522-2.462,18.867-13.798,16.405-25.32C231.556,321.821,220.22,314.476,208.698,316.938z"/>
			<path d="M308.819,84.649c8.419-8.243,8.561-21.75,0.318-30.168c-5.639-5.76-11.656-11.14-18.007-16.104
				c-9.284-7.255-22.691-5.609-29.945,3.674c-7.255,9.284-5.61,22.691,3.674,29.945c4.864,3.801,9.472,7.922,13.792,12.334
				C286.894,92.749,300.4,92.892,308.819,84.649z"/>
			<path d="M18.642,168.54c11.521,2.466,22.86-4.874,25.327-16.395c1.293-6.04,2.987-11.969,5.069-17.754
				c3.988-11.087-1.766-23.307-12.853-27.295c-11.087-3.988-23.307,1.766-27.295,12.853c-2.727,7.582-4.948,15.351-6.642,23.265
				C-0.219,154.735,7.121,166.074,18.642,168.54z"/>
			<path d="M47.771,224.591c-3.672-11.195-15.725-17.294-26.92-13.621C9.656,214.642,3.558,226.695,7.23,237.89
				c2.52,7.682,5.551,15.174,9.068,22.433c5.138,10.603,17.899,15.032,28.501,9.894c10.603-5.138,15.032-17.899,9.894-28.501
				C52.008,236.173,49.694,230.454,47.771,224.591z"/>
			<path d="M120.163,306.674c-5.573-2.647-10.962-5.664-16.133-9.03c-9.874-6.428-23.09-3.634-29.517,6.24
				c-6.428,9.874-3.634,23.09,6.24,29.517c6.762,4.402,13.813,8.35,21.107,11.814c10.643,5.054,23.368,0.524,28.422-10.119
				C135.336,324.453,130.806,311.728,120.163,306.674z"/>
			<path d="M91.785,73.981c4.777-3.912,9.809-7.502,15.06-10.743c10.026-6.189,13.136-19.333,6.948-29.359
				S94.46,20.743,84.434,26.931c-6.864,4.237-13.438,8.928-19.679,14.037C55.639,48.433,54.3,61.874,61.764,70.99
				S82.669,81.445,91.785,73.981z"/>
			<path d="M304.181,313.059c5.856-5.542,11.34-11.468,16.412-17.736c7.411-9.159,5.994-22.592-3.165-30.003
				c-9.159-7.411-22.592-5.994-30.003,3.165c-3.884,4.8-8.085,9.339-12.57,13.584c-8.558,8.098-8.93,21.601-0.832,30.158
				C282.121,320.785,295.623,321.157,304.181,313.059z"/>
			<path d="M359.112,172.806c0.896-2.714,1.262-5.651,0.977-8.679c-0.761-8.067-2.055-16.037-3.87-23.871
				c-2.66-11.478-14.121-18.627-25.599-15.967c-11.478,2.66-18.626,14.121-15.967,25.599c1.386,5.983,2.376,12.073,2.957,18.244
				c0.082,0.868,0.22,1.716,0.401,2.546c-11.68,0.118-21.115,9.614-21.115,21.322c0,11.782,9.551,21.333,21.333,21.333h1.483
				c3.204,5.51,8.827,9.534,15.634,10.439c11.679,1.553,22.406-6.656,23.959-18.335c0.352-2.649,0.625-5.313,0.86-7.982
				c0.461-1.744,0.73-3.566,0.73-5.455c0-0.924-0.079-1.829-0.193-2.722c0.114-2.642,0.193-5.289,0.193-7.945
				C360.896,178.299,360.253,175.419,359.112,172.806z"/>
			<path d="M488.896,213.333c-11.782,0-21.333,9.551-21.333,21.333V256c0,11.782,9.551,21.333,21.333,21.333
				s21.333-9.551,21.333-21.333v-21.333C510.229,222.885,500.678,213.333,488.896,213.333z"/>
			<path d="M488.896,426.667c-11.782,0-21.333,9.551-21.333,21.333v21.333c0,11.782,9.551,21.333,21.333,21.333
				s21.333-9.551,21.333-21.333V448C510.229,436.218,500.678,426.667,488.896,426.667z"/>
			<path d="M318.229,469.333h-21.333c-11.782,0-21.333,9.551-21.333,21.333S285.114,512,296.896,512h21.333
				c11.782,0,21.333-9.551,21.333-21.333S330.011,469.333,318.229,469.333z"/>
			<path d="M446.229,170.667h-21.333c-11.782,0-21.333,9.551-21.333,21.333s9.551,21.333,21.333,21.333h21.333
				c11.782,0,21.333-9.551,21.333-21.333S458.011,170.667,446.229,170.667z"/>
			<path d="M488.896,320c-11.782,0-21.333,9.551-21.333,21.333v21.333c0,11.782,9.551,21.333,21.333,21.333
				s21.333-9.551,21.333-21.333v-21.333C510.229,329.551,500.678,320,488.896,320z"/>
			<path d="M232.896,170.667h-21.333c-11.782,0-21.333,9.551-21.333,21.333s9.551,21.333,21.333,21.333h21.333
				c11.782,0,21.333-9.551,21.333-21.333S244.678,170.667,232.896,170.667z"/>
			<path d="M211.563,469.333c0-11.782-9.551-21.333-21.333-21.333s-21.333,9.551-21.333,21.333v21.333
				c0,11.782,9.551,21.333,21.333,21.333h21.333c11.782,0,21.333-9.551,21.333-21.333S223.345,469.333,211.563,469.333z"/>
			<path d="M168.896,256v21.333c0,11.782,9.551,21.333,21.333,21.333s21.333-9.551,21.333-21.333V256
				c0-11.782-9.551-21.333-21.333-21.333S168.896,244.218,168.896,256z"/>
			<path d="M424.896,469.333h-21.333c-11.782,0-21.333,9.551-21.333,21.333S391.781,512,403.563,512h21.333
				c11.782,0,21.333-9.551,21.333-21.333S436.678,469.333,424.896,469.333z"/>
		</g>
	</g>
</g>
<g>
</g>
<g>
</g>
<g>
</g>
<g>
</g>
<g>
</g>
<g>
</g>
<g>
</g>
<g>
</g>
<g>
</g>
<g>
</g>
<g>
</g>
<g>
</g>
<g>
</g>
<g>
</g>
<g>
</g>
</svg>
