<?xml version="1.0" encoding="iso-8859-1"?>
<!-- Generator: Adobe Illustrator 19.0.0, SVG Export Plug-In . SVG Version: 6.00 Build 0)  -->
<svg version="1.1" id="Layer_1" xmlns="http://www.w3.org/2000/svg" xmlns:xlink="http://www.w3.org/1999/xlink" x="0px" y="0px"
	 viewBox="0 0 512 512" style="enable-background:new 0 0 512 512;" xml:space="preserve">
<g>
	<g>
		<g>
			<path d="M170.667,469.333h-21.333c-11.782,0-21.333,9.551-21.333,21.333S137.551,512,149.333,512h21.333
				c11.782,0,21.333-9.551,21.333-21.333S182.449,469.333,170.667,469.333z"/>
			<path d="M192,0h-21.333c-11.782,0-21.333,9.551-21.333,21.333c0,11.782,9.551,21.333,21.333,21.333H192
				c11.782,0,21.333-9.551,21.333-21.333C213.333,9.551,203.782,0,192,0z"/>
			<path d="M277.333,469.333H256c-11.782,0-21.333,9.551-21.333,21.333S244.218,512,256,512h21.333
				c11.782,0,21.333-9.551,21.333-21.333S289.115,469.333,277.333,469.333z"/>
			<path d="M149.333,448c11.782,0,21.333-9.551,21.333-21.333v-21.333c0-11.782-9.551-21.333-21.333-21.333
				C137.551,384,128,393.551,128,405.333v21.333C128,438.449,137.551,448,149.333,448z"/>
			<path d="M149.333,128c11.782,0,21.333-9.551,21.333-21.333V85.333c0-11.782-9.551-21.333-21.333-21.333
				C137.551,64,128,73.551,128,85.333v21.333C128,118.449,137.551,128,149.333,128z"/>
			<path d="M149.333,341.333c11.782,0,21.333-9.551,21.333-21.333v-21.333c0-11.782-9.551-21.333-21.333-21.333
				c-11.782,0-21.333,9.551-21.333,21.333V320C128,331.782,137.551,341.333,149.333,341.333z"/>
			<path d="M149.333,234.667c11.782,0,21.333-9.551,21.333-21.333V192c0-11.782-9.551-21.333-21.333-21.333
				C137.551,170.667,128,180.218,128,192v21.333C128,225.115,137.551,234.667,149.333,234.667z"/>
			<path d="M362.667,234.667c-11.782,0-21.333,9.551-21.333,21.333v21.333c0,11.782,9.551,21.333,21.333,21.333
				c11.782,0,21.333-9.551,21.333-21.333V256C384,244.218,374.449,234.667,362.667,234.667z"/>
			<path d="M362.667,128c-11.782,0-21.333,9.551-21.333,21.333v21.333c0,11.782,9.551,21.333,21.333,21.333
				c11.782,0,21.333-9.551,21.333-21.333v-21.333C384,137.551,374.449,128,362.667,128z"/>
			<path d="M362.667,21.333c-11.782,0-21.333,9.551-21.333,21.333V64c0,11.782,9.551,21.333,21.333,21.333
				C374.449,85.333,384,75.782,384,64V42.667C384,30.885,374.449,21.333,362.667,21.333z"/>
			<path d="M298.667,0h-21.333C265.551,0,256,9.551,256,21.333c0,11.782,9.551,21.333,21.333,21.333h21.333
				c11.782,0,21.333-9.551,21.333-21.333C320,9.551,310.449,0,298.667,0z"/>
			<path d="M362.667,448c-11.782,0-21.333,9.551-21.333,21.333v21.333c0,11.782,9.551,21.333,21.333,21.333
				c11.782,0,21.333-9.551,21.333-21.333v-21.333C384,457.551,374.449,448,362.667,448z"/>
			<path d="M362.667,341.333c-11.782,0-21.333,9.551-21.333,21.333V384c0,11.782,9.551,21.333,21.333,21.333
				c11.782,0,21.333-9.551,21.333-21.333v-21.333C384,350.885,374.449,341.333,362.667,341.333z"/>
		</g>
	</g>
</g>
<g>
</g>
<g>
</g>
<g>
</g>
<g>
</g>
<g>
</g>
<g>
</g>
<g>
</g>
<g>
</g>
<g>
</g>
<g>
</g>
<g>
</g>
<g>
</g>
<g>
</g>
<g>
</g>
<g>
</g>
</svg>
