<?xml version="1.0" encoding="iso-8859-1"?>
<!-- Generator: Adobe Illustrator 19.0.0, SVG Export Plug-In . SVG Version: 6.00 Build 0)  -->
<svg version="1.1" id="Layer_1" xmlns="http://www.w3.org/2000/svg" xmlns:xlink="http://www.w3.org/1999/xlink" x="0px" y="0px"
	 viewBox="0 0 512 512" style="enable-background:new 0 0 512 512;" xml:space="preserve">
<g>
	<g>
		<g>
			<path d="M234.667,149.333c0-11.782-9.551-21.333-21.333-21.333H192c-11.782,0-21.333,9.551-21.333,21.333
				c0,11.782,9.551,21.333,21.333,21.333h21.333C225.115,170.667,234.667,161.115,234.667,149.333z"/>
			<path d="M42.667,341.333H21.333C9.551,341.333,0,350.885,0,362.667C0,374.449,9.551,384,21.333,384h21.333
				C54.449,384,64,374.449,64,362.667C64,350.885,54.449,341.333,42.667,341.333z"/>
			<path d="M149.333,341.333H128c-11.782,0-21.333,9.551-21.333,21.333c0,11.782,9.551,21.333,21.333,21.333h21.333
				c11.782,0,21.333-9.551,21.333-21.333C170.667,350.885,161.115,341.333,149.333,341.333z"/>
			<path d="M128,149.333c0-11.782-9.551-21.333-21.333-21.333H85.333C73.551,128,64,137.551,64,149.333
				c0,11.782,9.551,21.333,21.333,21.333h21.333C118.449,170.667,128,161.115,128,149.333z"/>
			<path d="M21.333,213.333c11.782,0,21.333-9.551,21.333-21.333v-21.333c0-11.782-9.551-21.333-21.333-21.333
				C9.551,149.333,0,158.885,0,170.667V192C0,203.782,9.551,213.333,21.333,213.333z"/>
			<path d="M21.333,320c11.782,0,21.333-9.551,21.333-21.333v-21.333c0-11.782-9.551-21.333-21.333-21.333
				C9.551,256,0,265.551,0,277.333v21.333C0,310.449,9.551,320,21.333,320z"/>
			<path d="M490.667,149.333c-11.782,0-21.333,9.551-21.333,21.333V192c0,11.782,9.551,21.333,21.333,21.333S512,203.782,512,192
				v-21.333C512,158.885,502.449,149.333,490.667,149.333z"/>
			<path d="M448,149.333c0-11.782-9.551-21.333-21.333-21.333h-21.333C393.551,128,384,137.551,384,149.333
				c0,11.782,9.551,21.333,21.333,21.333h21.333C438.449,170.667,448,161.115,448,149.333z"/>
			<path d="M469.333,341.333H448c-11.782,0-21.333,9.551-21.333,21.333c0,11.782,9.551,21.333,21.333,21.333h21.333
				c11.782,0,21.333-9.551,21.333-21.333C490.667,350.885,481.115,341.333,469.333,341.333z"/>
			<path d="M490.667,256c-11.782,0-21.333,9.551-21.333,21.333v21.333c0,11.782,9.551,21.333,21.333,21.333S512,310.449,512,298.667
				v-21.333C512,265.551,502.449,256,490.667,256z"/>
			<path d="M362.667,341.333h-21.333c-11.782,0-21.333,9.551-21.333,21.333c0,11.782,9.551,21.333,21.333,21.333h21.333
				c11.782,0,21.333-9.551,21.333-21.333C384,350.885,374.449,341.333,362.667,341.333z"/>
			<path d="M341.333,149.333c0-11.782-9.551-21.333-21.333-21.333h-21.333c-11.782,0-21.333,9.551-21.333,21.333
				c0,11.782,9.551,21.333,21.333,21.333H320C331.782,170.667,341.333,161.115,341.333,149.333z"/>
			<path d="M256,341.333h-21.333c-11.782,0-21.333,9.551-21.333,21.333c0,11.782,9.551,21.333,21.333,21.333H256
				c11.782,0,21.333-9.551,21.333-21.333C277.333,350.885,267.782,341.333,256,341.333z"/>
		</g>
	</g>
</g>
<g>
</g>
<g>
</g>
<g>
</g>
<g>
</g>
<g>
</g>
<g>
</g>
<g>
</g>
<g>
</g>
<g>
</g>
<g>
</g>
<g>
</g>
<g>
</g>
<g>
</g>
<g>
</g>
<g>
</g>
</svg>
