<?xml version="1.0" encoding="iso-8859-1"?>
<!-- Generator: Adobe Illustrator 19.0.0, SVG Export Plug-In . SVG Version: 6.00 Build 0)  -->
<svg version="1.1" id="Layer_1" xmlns="http://www.w3.org/2000/svg" xmlns:xlink="http://www.w3.org/1999/xlink" x="0px" y="0px"
	 viewBox="0 0 512 512" style="enable-background:new 0 0 512 512;" xml:space="preserve">
<g>
	<g>
		<path d="M490.667,170.667H341.333V21.333C341.333,9.551,331.782,0,320,0H21.333C9.551,0,0,9.551,0,21.333V320
			c0,11.782,9.551,21.333,21.333,21.333H192v149.333c0,11.782,9.551,21.333,21.333,21.333h277.333
			c11.782,0,21.333-9.551,21.333-21.333V192C512,180.218,502.449,170.667,490.667,170.667z M234.667,341.333h234.667V384H234.667
			V341.333z M320,213.333h149.333v85.333H234.667v-256h64V192C298.667,203.782,308.218,213.333,320,213.333z M42.667,42.667h42.667
			v256H42.667V42.667z M128,298.667v-256h64v256H128z M234.667,469.333v-42.667h234.667v42.667H234.667z"/>
	</g>
</g>
<g>
</g>
<g>
</g>
<g>
</g>
<g>
</g>
<g>
</g>
<g>
</g>
<g>
</g>
<g>
</g>
<g>
</g>
<g>
</g>
<g>
</g>
<g>
</g>
<g>
</g>
<g>
</g>
<g>
</g>
</svg>
