<?xml version="1.0" encoding="iso-8859-1"?>
<!-- Generator: Adobe Illustrator 19.0.0, SVG Export Plug-In . SVG Version: 6.00 Build 0)  -->
<svg version="1.1" id="Layer_1" xmlns="http://www.w3.org/2000/svg" xmlns:xlink="http://www.w3.org/1999/xlink" x="0px" y="0px"
	 viewBox="0 0 512 512" style="enable-background:new 0 0 512 512;" xml:space="preserve">
<g>
	<g>
		<g>
			<path d="M200.279,203.307c8.356,13.369,27.826,13.369,36.181,0L343.127,32.64C352.007,18.431,341.792,0,325.036,0H111.703
				C94.947,0,84.731,18.431,93.612,32.64L200.279,203.307z M286.546,42.667l-68.176,109.082L150.193,42.667H286.546z"/>
			<path d="M236.46,308.693c-8.356-13.369-27.826-13.369-36.181,0L93.612,479.36C84.731,493.569,94.947,512,111.703,512h213.333
				c16.756,0,26.971-18.431,18.091-32.64L236.46,308.693z M150.193,469.333l68.176-109.082l68.176,109.082H150.193z"/>
			<path d="M325.036,234.667h-21.333c-11.782,0-21.333,9.551-21.333,21.333s9.551,21.333,21.333,21.333h21.333
				c11.782,0,21.333-9.551,21.333-21.333S336.818,234.667,325.036,234.667z"/>
			<path d="M218.369,234.667h-21.333c-11.782,0-21.333,9.551-21.333,21.333s9.551,21.333,21.333,21.333h21.333
				c11.782,0,21.333-9.551,21.333-21.333S230.152,234.667,218.369,234.667z"/>
			<path d="M111.703,277.333c11.782,0,21.333-9.551,21.333-21.333s-9.551-21.333-21.333-21.333H90.369
				c-11.782,0-21.333,9.551-21.333,21.333s9.551,21.333,21.333,21.333H111.703z"/>
			<path d="M406.7,362.667h-8.827l8.83-8.83c49.702-49.702,47.806-126.535-2.581-176.922c-8.331-8.331-21.839-8.331-30.17,0
				s-8.331,21.839,0,30.17c34.049,34.049,35.279,83.885,2.581,116.582l-8.83,8.83v-8.827c0-11.782-9.551-21.333-21.333-21.333
				c-11.782,0-21.333,9.551-21.333,21.333V384c0,0.703,0.037,1.405,0.106,2.105c0.031,0.315,0.09,0.621,0.135,0.932
				c0.054,0.378,0.098,0.756,0.173,1.13c0.071,0.358,0.169,0.704,0.258,1.055c0.081,0.324,0.152,0.649,0.249,0.969
				c0.104,0.344,0.233,0.677,0.354,1.013c0.115,0.32,0.22,0.642,0.35,0.957c0.131,0.315,0.284,0.617,0.429,0.924
				c0.153,0.324,0.296,0.65,0.466,0.968c0.158,0.295,0.338,0.575,0.509,0.861c0.186,0.311,0.362,0.626,0.565,0.929
				c0.212,0.316,0.447,0.614,0.675,0.918c0.19,0.253,0.365,0.512,0.567,0.759c0.892,1.087,1.889,2.085,2.977,2.977
				c0.246,0.202,0.505,0.377,0.757,0.566c0.305,0.228,0.603,0.464,0.919,0.676c0.303,0.203,0.617,0.378,0.928,0.564
				c0.287,0.171,0.567,0.351,0.862,0.51c0.317,0.169,0.642,0.313,0.965,0.465c0.308,0.146,0.611,0.299,0.927,0.43
				c0.313,0.13,0.633,0.234,0.951,0.348c0.339,0.122,0.673,0.252,1.019,0.356c0.318,0.096,0.641,0.167,0.963,0.248
				c0.353,0.089,0.702,0.188,1.061,0.259c0.372,0.074,0.747,0.117,1.122,0.171c0.314,0.045,0.623,0.105,0.941,0.136
				c0.692,0.068,1.387,0.104,2.082,0.105c0.008,0,0.015,0.001,0.023,0.001H406.7c11.782,0,21.333-9.551,21.333-21.333
				C428.033,372.218,418.482,362.667,406.7,362.667z"/>
		</g>
	</g>
</g>
<g>
</g>
<g>
</g>
<g>
</g>
<g>
</g>
<g>
</g>
<g>
</g>
<g>
</g>
<g>
</g>
<g>
</g>
<g>
</g>
<g>
</g>
<g>
</g>
<g>
</g>
<g>
</g>
<g>
</g>
</svg>
