<?xml version="1.0" encoding="iso-8859-1"?>
<!-- Generator: Adobe Illustrator 19.0.0, SVG Export Plug-In . SVG Version: 6.00 Build 0)  -->
<svg version="1.1" id="Layer_1" xmlns="http://www.w3.org/2000/svg" xmlns:xlink="http://www.w3.org/1999/xlink" x="0px" y="0px"
	 viewBox="0 0 512.026 512.026" style="enable-background:new 0 0 512.026 512.026;" xml:space="preserve">
<g transform="translate(-1 -1)">
	<g>
		<g>
			<path d="M337.801,307.839L103.134,9.172C91.74-5.33,68.556,0.483,65.351,18.645l-64,362.667
				c-3.455,19.58,19.392,32.825,34.666,20.096l103.189-85.991l54.72,182.399c3.386,11.285,15.279,17.689,26.564,14.304
				c11.285-3.386,17.689-15.279,14.304-26.564L181.57,308.145l134.282,33.57C335.571,346.645,350.358,323.821,337.801,307.839z
				 M155.778,257.717c-0.072-0.019-0.145-0.036-0.218-0.054l-0.026-0.007c-0.008-0.002-0.017-0.003-0.026-0.006
				c-0.386-0.096-0.775-0.18-1.167-0.255c-0.039-0.007-0.077-0.014-0.116-0.021c-0.38-0.07-0.763-0.131-1.148-0.18
				c-0.019-0.002-0.038-0.005-0.057-0.008c-1.603-0.202-3.242-0.223-4.891-0.048c-0.066,0.007-0.132,0.015-0.198,0.023
				c-0.316,0.037-0.632,0.08-0.948,0.131c-0.103,0.016-0.205,0.033-0.307,0.051c-0.276,0.049-0.551,0.104-0.826,0.164
				c-0.124,0.027-0.249,0.052-0.373,0.082c-0.258,0.061-0.517,0.13-0.775,0.201c-0.127,0.035-0.255,0.067-0.381,0.104
				c-0.031,0.009-0.061,0.016-0.092,0.025c-0.308,0.093-0.612,0.194-0.913,0.299c-0.036,0.012-0.072,0.023-0.107,0.035
				c-0.383,0.136-0.759,0.283-1.129,0.439c-0.04,0.017-0.078,0.035-0.118,0.052c-0.334,0.143-0.663,0.293-0.987,0.451
				c-0.052,0.026-0.104,0.053-0.156,0.079c-0.319,0.159-0.633,0.325-0.941,0.499c-0.042,0.024-0.084,0.048-0.127,0.072
				c-0.335,0.191-0.663,0.391-0.985,0.599c-0.013,0.008-0.026,0.016-0.038,0.024c-0.759,0.493-1.481,1.03-2.162,1.608l-83.064,69.22
				l45.57-258.233l166.689,212.15L155.778,257.717z"/>
			<path d="M491.693,385.019h-42.667v-42.667c0-11.782-9.551-21.333-21.333-21.333s-21.333,9.551-21.333,21.333v42.667h-42.667
				c-11.782,0-21.333,9.551-21.333,21.333c0,11.782,9.551,21.333,21.333,21.333h42.667v42.667c0,11.782,9.551,21.333,21.333,21.333
				s21.333-9.551,21.333-21.333v-42.667h42.667c11.782,0,21.333-9.551,21.333-21.333
				C513.026,394.57,503.475,385.019,491.693,385.019z"/>
		</g>
	</g>
</g>
<g>
</g>
<g>
</g>
<g>
</g>
<g>
</g>
<g>
</g>
<g>
</g>
<g>
</g>
<g>
</g>
<g>
</g>
<g>
</g>
<g>
</g>
<g>
</g>
<g>
</g>
<g>
</g>
<g>
</g>
</svg>
