<?xml version="1.0" encoding="iso-8859-1"?>
<!-- Generator: Adobe Illustrator 19.0.0, SVG Export Plug-In . SVG Version: 6.00 Build 0)  -->
<svg version="1.1" id="Layer_1" xmlns="http://www.w3.org/2000/svg" xmlns:xlink="http://www.w3.org/1999/xlink" x="0px" y="0px"
	 viewBox="0 0 512 512" style="enable-background:new 0 0 512 512;" xml:space="preserve">
<g>
	<g>
		<g>
			<path d="M426.667,234.667c0-11.782-9.551-21.333-21.333-21.333c11.782,0,21.333-9.551,21.333-21.333s-9.551-21.333-21.333-21.333
				H384c-11.782,0-21.333,9.551-21.333,21.333s9.551,21.333,21.333,21.333h-42.667V192v-21.333c0-11.782-9.551-21.333-21.333-21.333
				s-21.333,9.551-21.333,21.333v-64c0-11.782-9.551-21.333-21.333-21.333H106.667c-11.782,0-21.333,9.551-21.333,21.333v170.667
				c0,11.782,9.551,21.333,21.333,21.333c-11.782,0-21.333,9.551-21.333,21.333s9.551,21.333,21.333,21.333H128
				c11.782,0,21.333-9.551,21.333-21.333s-9.551-21.333-21.333-21.333h42.667V320v21.333c0,11.782,9.551,21.333,21.333,21.333
				s21.333-9.551,21.333-21.333v64c0,11.782,9.551,21.333,21.333,21.333h170.667c11.782,0,21.333-9.551,21.333-21.333V234.667z
				 M213.333,298.667v-85.333h85.333v85.333H213.333z M128,256V128h128v42.667h-64c-11.782,0-21.333,9.551-21.333,21.333v64H128z
				 M384,384H256v-42.667h64c11.782,0,21.333-9.551,21.333-21.333v-64H384V384z"/>
			<path d="M64,0H42.667C30.885,0,21.333,9.551,21.333,21.333c0,11.782,9.551,21.333,21.333,21.333H64
				c11.782,0,21.333-9.551,21.333-21.333C85.333,9.551,75.782,0,64,0z"/>
			<path d="M21.333,128c11.782,0,21.333-9.551,21.333-21.333V85.333C42.667,73.551,33.115,64,21.333,64C9.551,64,0,73.551,0,85.333
				v21.333C0,118.449,9.551,128,21.333,128z"/>
			<path d="M21.333,234.667c11.782,0,21.333-9.551,21.333-21.333V192c0-11.782-9.551-21.333-21.333-21.333
				C9.551,170.667,0,180.218,0,192v21.333C0,225.115,9.551,234.667,21.333,234.667z"/>
			<path d="M42.667,298.667c0-11.782-9.551-21.333-21.333-21.333C9.551,277.333,0,286.885,0,298.667V320
				c0,11.782,9.551,21.333,21.333,21.333h21.333C54.449,341.333,64,331.782,64,320S54.449,298.667,42.667,298.667z"/>
			<path d="M298.667,85.333c0,11.782,9.551,21.333,21.333,21.333s21.333-9.551,21.333-21.333V64
				c0-11.782-9.551-21.333-21.333-21.333S298.667,52.218,298.667,64V85.333z"/>
			<path d="M149.333,42.667h21.333c11.782,0,21.333-9.551,21.333-21.333C192,9.551,182.449,0,170.667,0h-21.333
				C137.551,0,128,9.551,128,21.333C128,33.115,137.551,42.667,149.333,42.667z"/>
			<path d="M256,42.667h21.333c11.782,0,21.333-9.551,21.333-21.333C298.667,9.551,289.115,0,277.333,0H256
				c-11.782,0-21.333,9.551-21.333,21.333C234.667,33.115,244.218,42.667,256,42.667z"/>
			<path d="M362.667,469.333h-21.333c-11.782,0-21.333,9.551-21.333,21.333S329.551,512,341.333,512h21.333
				c11.782,0,21.333-9.551,21.333-21.333S374.449,469.333,362.667,469.333z"/>
			<path d="M490.667,170.667h-21.333C457.551,170.667,448,180.218,448,192s9.551,21.333,21.333,21.333
				c0,11.782,9.551,21.333,21.333,21.333S512,225.115,512,213.333V192C512,180.218,502.449,170.667,490.667,170.667z"/>
			<path d="M490.667,277.333c-11.782,0-21.333,9.551-21.333,21.333V320c0,11.782,9.551,21.333,21.333,21.333S512,331.782,512,320
				v-21.333C512,286.885,502.449,277.333,490.667,277.333z"/>
			<path d="M469.333,469.333H448c-11.782,0-21.333,9.551-21.333,21.333S436.218,512,448,512h21.333
				c11.782,0,21.333-9.551,21.333-21.333S481.115,469.333,469.333,469.333z"/>
			<path d="M256,469.333h-21.333c-11.782,0-21.333,9.551-21.333,21.333S222.885,512,234.667,512H256
				c11.782,0,21.333-9.551,21.333-21.333S267.782,469.333,256,469.333z"/>
			<path d="M213.333,426.667c0-11.782-9.551-21.333-21.333-21.333s-21.333,9.551-21.333,21.333V448
				c0,11.782,9.551,21.333,21.333,21.333s21.333-9.551,21.333-21.333V426.667z"/>
			<path d="M490.667,384c-11.782,0-21.333,9.551-21.333,21.333v21.333c0,11.782,9.551,21.333,21.333,21.333S512,438.449,512,426.667
				v-21.333C512,393.551,502.449,384,490.667,384z"/>
		</g>
	</g>
</g>
<g>
</g>
<g>
</g>
<g>
</g>
<g>
</g>
<g>
</g>
<g>
</g>
<g>
</g>
<g>
</g>
<g>
</g>
<g>
</g>
<g>
</g>
<g>
</g>
<g>
</g>
<g>
</g>
<g>
</g>
</svg>
