<?xml version="1.0" encoding="iso-8859-1"?>
<!-- Generator: Adobe Illustrator 19.0.0, SVG Export Plug-In . SVG Version: 6.00 Build 0)  -->
<svg version="1.1" id="Layer_1" xmlns="http://www.w3.org/2000/svg" xmlns:xlink="http://www.w3.org/1999/xlink" x="0px" y="0px"
	 viewBox="0 0 509.262 509.262" style="enable-background:new 0 0 509.262 509.262;" xml:space="preserve">
<g>
	<g>
		<path d="M484.391,27.595c-33.345-33.317-87.355-33.317-120.687-0.013L132.273,286.488c-31.322,0.27-60.104,22.709-65.742,56.2
			c-6.308,37.498-23.716,72.305-56.008,100.409c-16.532,14.375-13.236,41.332,7.441,50.267
			c54.973,23.829,121.793,18.425,189.499-39.344c17.104-14.589,25.916-36.804,23.128-59.014c-0.738-5.839-1.743-11.559-3.016-17.141
			l255.942-228.77C517.697,114.964,517.697,60.929,484.391,27.595z M179.772,421.561c-46.247,39.46-88.991,48.255-125.935,39.08
			c30.679-32.31,47.979-70.508,54.768-110.873c2.332-13.852,15.388-22.512,28.416-20.223c0.091,0.018,0.179,0.042,0.271,0.059
			c1.426,0.259,2.819,0.644,4.177,1.158c0.128,0.048,0.255,0.107,0.382,0.157c0.331,0.132,0.662,0.262,0.988,0.41
			c1.202,0.539,2.373,1.105,3.522,1.69c0.128,0.065,0.256,0.131,0.384,0.197c18.041,9.325,29.558,24.471,36.275,44.547
			c0.321,0.961,0.704,1.876,1.136,2.75c1.869,6.246,3.223,12.876,4.102,19.827C189.24,408.151,186.041,416.214,179.772,421.561z
			 M454.215,118.106l-243.57,217.67c-8.528-13.625-19.805-25.403-34.217-34.668L394.689,56.889
			c15.845-15.783,42.859-15.783,59.532,0.875C470.866,74.424,470.866,101.455,454.215,118.106z"/>
	</g>
</g>
<g>
</g>
<g>
</g>
<g>
</g>
<g>
</g>
<g>
</g>
<g>
</g>
<g>
</g>
<g>
</g>
<g>
</g>
<g>
</g>
<g>
</g>
<g>
</g>
<g>
</g>
<g>
</g>
<g>
</g>
</svg>
