<?xml version="1.0" encoding="iso-8859-1"?>
<!-- Generator: Adobe Illustrator 19.0.0, SVG Export Plug-In . SVG Version: 6.00 Build 0)  -->
<svg version="1.1" id="Layer_1" xmlns="http://www.w3.org/2000/svg" xmlns:xlink="http://www.w3.org/1999/xlink" x="0px" y="0px"
	 viewBox="0 0 505.177 505.177" style="enable-background:new 0 0 505.177 505.177;" xml:space="preserve">
<g>
	<g>
		<g>
			<path d="M494.778,168.552L343.93,17.704l-0.005,0.005c-0.002-0.002-0.003-0.004-0.005-0.005
				c-30.038-30.038-98.506,8.005-165.935,75.435c-67.42,67.395-105.465,135.867-75.444,165.926c0.063,0.063,0.13,0.12,0.193,0.183
				l150.675,150.675c30.038,30.038,98.506-8.005,165.935-75.435S524.815,198.589,494.778,168.552z M208.151,123.311
				c27.073-27.073,55.355-49.258,78.786-62.277c9.532-5.297,17.764-8.776,23.965-10.313c-1.538,6.201-5.017,14.433-10.313,23.965
				c-13.019,23.43-35.204,51.713-62.274,78.783c-11.829,11.833-23.889,22.732-35.676,32.34
				c-15.182,12.373-29.908,22.606-43.096,29.934c-0.149,0.083-0.295,0.161-0.444,0.243c-0.853,0.471-1.695,0.926-2.526,1.367
				c-0.267,0.142-0.537,0.287-0.801,0.426c-0.901,0.472-1.785,0.922-2.658,1.359c-0.274,0.137-0.548,0.274-0.82,0.408
				c-0.863,0.425-1.712,0.832-2.546,1.221c-0.251,0.117-0.499,0.231-0.747,0.345c-0.845,0.388-1.678,0.761-2.49,1.111
				c-0.196,0.084-0.387,0.163-0.581,0.246c-0.823,0.349-1.633,0.683-2.419,0.991c-0.12,0.047-0.237,0.091-0.356,0.138
				c-0.782,0.303-1.543,0.584-2.287,0.846c-0.134,0.047-0.271,0.098-0.403,0.144c-0.762,0.264-1.5,0.502-2.219,0.723
				c-0.147,0.045-0.296,0.091-0.441,0.135c-0.706,0.21-1.389,0.398-2.05,0.565c-0.064,0.016-0.126,0.031-0.19,0.047
				c1.536-6.204,5.016-14.441,10.316-23.979C158.897,178.646,181.082,150.37,208.151,123.311z M462.193,199.619
				c-1.235,6.376-4.874,15.346-10.746,25.914c-13.019,23.43-35.204,51.713-62.274,78.783c-27.07,27.07-55.353,49.256-78.783,62.274
				c-10.569,5.872-19.538,9.511-25.914,10.746c-2.599,0.504-2.732,0.57-1.374,1.939L164.8,260.974
				c0.269-0.116,0.542-0.241,0.812-0.359c0.365-0.159,0.731-0.322,1.098-0.485c0.552-0.246,1.105-0.495,1.661-0.75
				c0.392-0.18,0.787-0.365,1.181-0.55c0.539-0.253,1.079-0.506,1.621-0.767c0.419-0.202,0.84-0.41,1.261-0.616
				c0.524-0.258,1.048-0.514,1.575-0.779c0.454-0.229,0.912-0.465,1.368-0.699c0.499-0.256,0.998-0.51,1.5-0.773
				c0.521-0.273,1.047-0.556,1.571-0.837c0.442-0.237,0.883-0.468,1.327-0.71c0.742-0.404,1.489-0.821,2.237-1.239
				c0.233-0.13,0.464-0.255,0.698-0.387c0.984-0.556,1.973-1.124,2.966-1.704c0.285-0.167,0.573-0.34,0.859-0.509
				c0.72-0.424,1.44-0.85,2.164-1.287c0.339-0.204,0.679-0.415,1.019-0.622c0.674-0.411,1.348-0.823,2.026-1.244
				c0.363-0.226,0.728-0.457,1.091-0.686c0.659-0.414,1.318-0.83,1.979-1.253c0.376-0.241,0.752-0.486,1.129-0.73
				c0.653-0.423,1.306-0.848,1.962-1.28c0.385-0.254,0.771-0.511,1.157-0.768c0.653-0.434,1.306-0.872,1.962-1.315
				c0.386-0.261,0.772-0.524,1.159-0.789c0.662-0.452,1.324-0.908,1.988-1.369c0.383-0.266,0.767-0.533,1.151-0.802
				c0.67-0.47,1.342-0.945,2.015-1.423c0.381-0.271,0.762-0.542,1.144-0.816c0.685-0.492,1.372-0.99,2.06-1.49
				c0.37-0.269,0.739-0.537,1.109-0.809c0.707-0.519,1.417-1.046,2.127-1.575c0.355-0.264,0.709-0.527,1.065-0.793
				c0.736-0.552,1.473-1.113,2.211-1.675c0.332-0.253,0.664-0.503,0.997-0.758c0.802-0.615,1.606-1.24,2.41-1.866
				c0.269-0.21,0.537-0.415,0.807-0.626c1.049-0.822,2.101-1.653,3.154-2.494c0.027-0.021,0.053-0.042,0.08-0.063
				c1.068-0.854,2.139-1.718,3.211-2.591c0.439-0.358,0.88-0.723,1.32-1.084c0.628-0.515,1.255-1.029,1.884-1.551
				c0.553-0.459,1.108-0.926,1.662-1.39c0.511-0.428,1.022-0.854,1.534-1.286c0.62-0.524,1.241-1.055,1.862-1.584
				c0.443-0.378,0.887-0.755,1.33-1.137c0.671-0.577,1.343-1.16,2.015-1.744c0.389-0.338,0.777-0.675,1.166-1.015
				c0.717-0.627,1.435-1.259,2.153-1.894c0.339-0.299,0.677-0.599,1.016-0.9c0.768-0.683,1.537-1.371,2.307-2.063
				c0.274-0.246,0.547-0.493,0.821-0.74c0.834-0.753,1.669-1.512,2.505-2.275c0.189-0.173,0.378-0.346,0.567-0.519
				c0.918-0.841,1.836-1.688,2.754-2.541c0.076-0.071,0.153-0.142,0.229-0.214c5.214-4.85,10.44-9.887,15.66-15.107
				c36.32-36.32,64.114-72.941,77.335-103.695l118.302,118.302C462.763,196.887,462.697,197.02,462.193,199.619z"/>
			<path d="M100.422,306.939c-8.33-8.33-21.835-8.331-30.166-0.004l-45.269,45.248c-33.314,33.342-33.314,87.352-0.01,120.684
				c33.34,33.34,87.36,33.34,120.694,0.006c33.334-33.334,33.334-87.353,0-120.687L100.422,306.939z M115.5,442.704
				c-16.672,16.671-43.676,16.671-60.347,0c-16.652-16.667-16.652-43.681,0.006-60.354l30.174-30.16l30.167,30.167
				C132.172,399.028,132.172,426.033,115.5,442.704z"/>
		</g>
	</g>
</g>
<g>
</g>
<g>
</g>
<g>
</g>
<g>
</g>
<g>
</g>
<g>
</g>
<g>
</g>
<g>
</g>
<g>
</g>
<g>
</g>
<g>
</g>
<g>
</g>
<g>
</g>
<g>
</g>
<g>
</g>
</svg>
