<?xml version="1.0" encoding="iso-8859-1"?>
<!-- Generator: Adobe Illustrator 19.0.0, SVG Export Plug-In . SVG Version: 6.00 Build 0)  -->
<svg version="1.1" id="Layer_1" xmlns="http://www.w3.org/2000/svg" xmlns:xlink="http://www.w3.org/1999/xlink" x="0px" y="0px"
	 viewBox="0 0 512 512" style="enable-background:new 0 0 512 512;" xml:space="preserve">
<g>
	<g>
		<path d="M256,0C151.479,0,64,43.74,64,106.667V448c0,43.113,83.564,64,192,64s192-20.887,192-64V106.667
			C448,43.74,360.521,0,256,0z M256,42.667c83.98,0,149.333,32.677,149.333,64s-65.353,64-149.333,64s-149.333-32.677-149.333-64
			S172.02,42.667,256,42.667z M405.333,175.073V256c0,44.471-65.377,85.333-149.333,85.333S106.667,300.471,106.667,256v-80.927
			c0.236,0.16,0.482,0.314,0.719,0.473c0.639,0.427,1.284,0.851,1.935,1.272c0.431,0.279,0.863,0.557,1.3,0.833
			c0.673,0.426,1.355,0.847,2.041,1.266c0.423,0.259,0.844,0.518,1.271,0.775c0.757,0.454,1.526,0.901,2.298,1.346
			c0.367,0.212,0.729,0.427,1.099,0.637c1.146,0.651,2.305,1.294,3.48,1.927c0.017,0.009,0.035,0.018,0.053,0.028
			c1.159,0.623,2.334,1.236,3.521,1.842c0.395,0.202,0.799,0.398,1.197,0.598c0.819,0.41,1.639,0.819,2.471,1.221
			c0.476,0.23,0.958,0.456,1.438,0.684c0.77,0.365,1.543,0.727,2.323,1.085c0.511,0.234,1.025,0.466,1.541,0.697
			c0.771,0.346,1.548,0.688,2.329,1.027c0.52,0.226,1.041,0.451,1.565,0.673c0.808,0.343,1.624,0.681,2.442,1.016
			c0.504,0.207,1.007,0.415,1.515,0.619c0.9,0.361,1.81,0.716,2.722,1.068c0.435,0.168,0.866,0.34,1.303,0.506
			c1.353,0.514,2.716,1.019,4.094,1.513c0.006,0.002,0.013,0.004,0.019,0.007c1.371,0.492,2.756,0.971,4.15,1.443
			c0.458,0.155,0.923,0.305,1.384,0.458c0.95,0.315,1.901,0.629,2.861,0.935c0.552,0.176,1.108,0.347,1.663,0.52
			c0.887,0.276,1.777,0.55,2.673,0.819c0.584,0.175,1.17,0.347,1.757,0.519c0.885,0.259,1.775,0.514,2.668,0.765
			c0.593,0.167,1.187,0.333,1.784,0.496c0.918,0.251,1.841,0.497,2.767,0.74c0.574,0.151,1.146,0.303,1.722,0.451
			c1.017,0.26,2.042,0.513,3.068,0.764c0.491,0.12,0.979,0.244,1.472,0.362c1.522,0.364,3.052,0.718,4.594,1.061
			c0.01,0.002,0.02,0.004,0.029,0.006c1.531,0.34,3.073,0.667,4.622,0.986c0.514,0.106,1.034,0.205,1.55,0.309
			c1.053,0.211,2.108,0.42,3.169,0.621c0.611,0.116,1.226,0.227,1.839,0.339c0.982,0.18,1.965,0.357,2.954,0.529
			c0.645,0.112,1.291,0.221,1.939,0.329c0.974,0.163,1.951,0.322,2.932,0.476c0.651,0.103,1.303,0.205,1.957,0.304
			c1.005,0.152,2.014,0.298,3.025,0.442c0.63,0.089,1.258,0.181,1.89,0.267c1.108,0.151,2.222,0.293,3.338,0.434
			c0.536,0.068,1.068,0.139,1.605,0.204c1.655,0.201,3.316,0.392,4.985,0.57c0.003,0,0.005,0,0.008,0.001
			c1.666,0.177,3.34,0.341,5.02,0.495c0.548,0.05,1.099,0.094,1.649,0.142c1.141,0.099,2.283,0.197,3.43,0.285
			c0.653,0.05,1.31,0.096,1.965,0.143c1.053,0.075,2.107,0.148,3.165,0.215c0.693,0.044,1.388,0.084,2.084,0.123
			c1.037,0.059,2.077,0.114,3.119,0.164c0.697,0.034,1.394,0.066,2.092,0.096c1.069,0.045,2.14,0.084,3.213,0.12
			c0.67,0.023,1.339,0.047,2.011,0.066c1.173,0.033,2.351,0.057,3.529,0.079c0.57,0.011,1.138,0.026,1.709,0.034
			c1.749,0.025,3.503,0.039,5.262,0.039s3.513-0.015,5.262-0.039c0.571-0.008,1.139-0.023,1.709-0.034
			c1.178-0.022,2.355-0.046,3.529-0.079c0.672-0.019,1.341-0.043,2.011-0.066c1.073-0.036,2.145-0.075,3.213-0.12
			c0.699-0.03,1.396-0.063,2.092-0.096c1.042-0.05,2.081-0.105,3.119-0.164c0.695-0.04,1.39-0.08,2.084-0.123
			c1.058-0.066,2.112-0.139,3.165-0.215c0.655-0.047,1.312-0.092,1.965-0.143c1.147-0.089,2.289-0.186,3.43-0.285
			c0.549-0.048,1.101-0.092,1.649-0.142c1.68-0.154,3.354-0.318,5.02-0.495c0.003,0,0.005,0,0.008-0.001
			c1.67-0.178,3.331-0.369,4.985-0.57c0.537-0.065,1.07-0.137,1.605-0.204c1.115-0.141,2.229-0.283,3.338-0.434
			c0.632-0.086,1.26-0.177,1.89-0.267c1.011-0.144,2.02-0.29,3.025-0.442c0.654-0.099,1.306-0.201,1.957-0.304
			c0.98-0.155,1.958-0.313,2.932-0.476c0.648-0.108,1.294-0.217,1.939-0.329c0.989-0.172,1.972-0.349,2.954-0.529
			c0.614-0.112,1.228-0.223,1.839-0.339c1.062-0.201,2.116-0.41,3.169-0.621c0.516-0.103,1.036-0.203,1.55-0.309
			c1.55-0.319,3.092-0.646,4.622-0.986c0.01-0.002,0.02-0.004,0.029-0.006c1.542-0.342,3.072-0.697,4.594-1.061
			c0.493-0.118,0.981-0.242,1.472-0.362c1.026-0.251,2.051-0.503,3.068-0.764c0.577-0.148,1.149-0.3,1.722-0.451
			c0.926-0.243,1.85-0.489,2.767-0.74c0.597-0.163,1.19-0.329,1.784-0.496c0.894-0.251,1.783-0.506,2.668-0.765
			c0.587-0.172,1.174-0.344,1.757-0.519c0.895-0.268,1.784-0.542,2.671-0.818c0.556-0.173,1.114-0.345,1.667-0.521
			c0.959-0.306,1.91-0.619,2.859-0.934c0.461-0.153,0.926-0.303,1.385-0.458c1.395-0.472,2.78-0.952,4.15-1.443
			c0.006-0.002,0.013-0.004,0.019-0.007c1.378-0.494,2.741-1,4.094-1.513c0.438-0.166,0.868-0.338,1.303-0.506
			c0.912-0.353,1.822-0.707,2.722-1.068c0.508-0.204,1.01-0.412,1.515-0.619c0.818-0.336,1.634-0.673,2.442-1.016
			c0.524-0.222,1.045-0.447,1.565-0.673c0.781-0.339,1.558-0.681,2.329-1.027c0.516-0.231,1.03-0.463,1.541-0.697
			c0.781-0.358,1.554-0.72,2.323-1.085c0.48-0.227,0.962-0.454,1.438-0.684c0.83-0.401,1.649-0.81,2.467-1.219
			c0.4-0.201,0.806-0.398,1.203-0.601c1.187-0.605,2.361-1.218,3.519-1.841c0.017-0.009,0.036-0.018,0.053-0.028
			c1.176-0.633,2.334-1.276,3.48-1.927c0.371-0.21,0.733-0.426,1.1-0.638c0.771-0.445,1.538-0.891,2.295-1.344
			c0.429-0.257,0.851-0.518,1.276-0.778c0.684-0.418,1.364-0.838,2.036-1.263c0.438-0.277,0.871-0.556,1.304-0.835
			c0.649-0.42,1.293-0.842,1.931-1.268C404.85,175.388,405.097,175.234,405.333,175.073z M402.399,446.247
			c-6.544,3.868-17.167,7.799-30.895,11.23c-29.972,7.492-71.264,11.857-115.504,11.857c-44.24,0-85.532-4.365-115.504-11.857
			c-13.728-3.431-24.351-7.362-30.895-11.23c-1.23-0.727-2.209-1.389-2.935-1.942V337.164C142.118,366.145,196.266,384,256,384
			s113.882-17.855,149.333-46.836v107.141C404.607,444.858,403.629,445.52,402.399,446.247z"/>
	</g>
</g>
<g>
</g>
<g>
</g>
<g>
</g>
<g>
</g>
<g>
</g>
<g>
</g>
<g>
</g>
<g>
</g>
<g>
</g>
<g>
</g>
<g>
</g>
<g>
</g>
<g>
</g>
<g>
</g>
<g>
</g>
</svg>
