<?xml version="1.0" encoding="iso-8859-1"?>
<!-- Generator: Adobe Illustrator 19.0.0, SVG Export Plug-In . SVG Version: 6.00 Build 0)  -->
<svg version="1.1" id="Layer_1" xmlns="http://www.w3.org/2000/svg" xmlns:xlink="http://www.w3.org/1999/xlink" x="0px" y="0px"
	 viewBox="0 0 511.991 511.991" style="enable-background:new 0 0 511.991 511.991;" xml:space="preserve">
<g>
	<g>
		<g>
			<path d="M498.677,159.031C455.711,54.162,348.499-11.2,232.626,1.592C115.347,14.551,20.235,109.663,7.277,226.939
				c-16.904,153.037,102.1,285.052,254.399,285.052h32.704c40.033,0,66.087-42.143,48.18-77.957l-44.054-88.087
				c-3.166-6.325,0.242-13.949,7.054-15.806l125.804-34.304C490.31,279.751,521.842,215.594,498.677,159.031z M420.134,254.675
				l-125.799,34.303c-32.794,8.941-49.208,45.656-33.987,76.062l44.05,88.078c3.72,7.44-1.7,16.207-10.018,16.207h-32.704
				c-126.944,0-226.097-109.993-211.99-237.701C60.45,134.203,139.887,54.765,237.31,44.001
				c96.744-10.68,186.064,43.774,221.884,131.204C472.653,208.067,454.333,245.342,420.134,254.675z"/>
			<path d="M379.009,149.325c-17.664,0-32,14.336-32,32s14.336,32,32,32c17.664,0,32-14.336,32-32S396.673,149.325,379.009,149.325z
				"/>
			<path d="M272.343,85.325c-17.664,0-32,14.336-32,32s14.336,32,32,32s32-14.336,32-32S290.007,85.325,272.343,85.325z"/>
			<path d="M165.676,127.991c-17.664,0-32,14.336-32,32s14.336,32,32,32s32-14.336,32-32S183.34,127.991,165.676,127.991z"/>
			<path d="M155.009,266.658c0-17.664-14.336-32-32-32s-32,14.336-32,32s14.336,32,32,32S155.009,284.322,155.009,266.658z"/>
			<path d="M165.676,341.325c-17.664,0-32,14.336-32,32c0,17.664,14.336,32,32,32s32-14.336,32-32
				C197.676,355.661,183.34,341.325,165.676,341.325z"/>
		</g>
	</g>
</g>
<g>
</g>
<g>
</g>
<g>
</g>
<g>
</g>
<g>
</g>
<g>
</g>
<g>
</g>
<g>
</g>
<g>
</g>
<g>
</g>
<g>
</g>
<g>
</g>
<g>
</g>
<g>
</g>
<g>
</g>
</svg>
