<?xml version="1.0" encoding="iso-8859-1"?>
<!-- Generator: Adobe Illustrator 19.0.0, SVG Export Plug-In . SVG Version: 6.00 Build 0)  -->
<svg version="1.1" id="Layer_1" xmlns="http://www.w3.org/2000/svg" xmlns:xlink="http://www.w3.org/1999/xlink" x="0px" y="0px"
	 viewBox="0 0 512.002 512.002" style="enable-background:new 0 0 512.002 512.002;" xml:space="preserve">
<g>
	<g>
		<g>
			<path d="M97.666,385.071c-8.341,8.341-8.341,21.845,0,30.165c8.341,8.341,21.845,8.341,30.165,0
				c8.341-8.32,8.341-21.824,0-30.165C119.511,376.73,106.007,376.73,97.666,385.071z"/>
			<path d="M504.835,68.407L444.483,8.076c-8.332-8.329-21.838-8.327-30.168,0.003l-38.244,38.247L335.993,6.248
				c-8.331-8.331-21.839-8.331-30.17,0L220.49,91.582c-8.331,8.331-8.331,21.839,0,30.17c8.331,8.331,21.839,8.331,30.17,0
				l70.248-70.248l24.995,24.995l-172.59,172.605c-0.072,0.07-0.151,0.13-0.223,0.201l-30.165,30.187
				c-25.024,25.008-65.494,25.008-90.507-0.005c-12.888-12.888-34.958-4.724-36.355,13.449L0.98,489.031
				c-1.003,13.044,9.863,23.91,22.907,22.907l196.096-15.083c18.169-1.397,26.335-23.461,13.454-36.351
				c-25.018-25.034-25.018-65.504-0.005-90.518l30.165-30.165c0.001-0.001,0.002-0.002,0.002-0.003
				c0.001-0.001,0.001-0.001,0.002-0.002L504.838,98.579C513.17,90.247,513.169,76.738,504.835,68.407z M248.516,294.562
				l-9.152-9.152l-21.006-21.013l72.385-72.392l30.165,30.165L248.516,294.562z M203.261,339.816
				c-31.725,31.725-39.299,78.404-22.724,117.279L45.429,467.488l10.391-135.103c38.863,16.569,85.537,8.994,117.275-22.724
				l15.084-15.095l21.099,21.099l9.065,9.069L203.261,339.816z M351.078,192l-30.166-30.166L429.404,53.332l30.176,30.165
				L351.078,192z"/>
		</g>
	</g>
</g>
<g>
</g>
<g>
</g>
<g>
</g>
<g>
</g>
<g>
</g>
<g>
</g>
<g>
</g>
<g>
</g>
<g>
</g>
<g>
</g>
<g>
</g>
<g>
</g>
<g>
</g>
<g>
</g>
<g>
</g>
</svg>
