<?xml version="1.0" encoding="iso-8859-1"?>
<!-- Generator: Adobe Illustrator 19.0.0, SVG Export Plug-In . SVG Version: 6.00 Build 0)  -->
<svg version="1.1" id="Layer_1" xmlns="http://www.w3.org/2000/svg" xmlns:xlink="http://www.w3.org/1999/xlink" x="0px" y="0px"
	 viewBox="0 0 505.315 505.315" style="enable-background:new 0 0 505.315 505.315;" xml:space="preserve">
<g>
	<g>
		<g>
			<path d="M365.601,147.042c15.587-8.998,13.713-32.066-3.122-38.43L78.874,1.39C66.265-3.376,52.451,4.599,50.276,17.902
				L1.337,317.123c-2.905,17.761,16.133,30.917,31.72,21.919c51.068-29.482,116.228-12.024,145.706,39.038
				c5.891,10.204,18.939,13.701,29.143,7.809l110.848-64c10.203-5.891,13.699-18.938,7.809-29.141
				C297.081,241.68,314.538,176.521,365.601,147.042z M280.253,294.851l-76.512,44.176c-36.739-46.812-97.643-66.817-154.186-52.376
				L82.738,83.759l46.612,80.732c-17.13,20.031-20.704,49.451-6.781,73.589c17.662,30.621,56.798,41.1,87.421,23.437
				c30.621-17.662,41.1-56.798,23.437-87.421c-13.925-24.142-41.197-35.75-67.122-30.931l-46.609-80.726l192.283,72.696
				C271.204,176.878,258.082,239.626,280.253,294.851z M196.468,195.413c5.895,10.221,2.404,23.261-7.795,29.144
				c-10.221,5.895-23.261,2.404-29.144-7.795c-5.895-10.221-2.404-23.261,7.796-29.144
				C177.545,181.722,190.585,185.214,196.468,195.413z"/>
			<path d="M482.941,398.649h-42.667v-42.667c0-11.782-9.551-21.333-21.333-21.333s-21.333,9.551-21.333,21.333v42.667h-42.667
				c-11.782,0-21.333,9.551-21.333,21.333s9.551,21.333,21.333,21.333h42.667v42.667c0,11.782,9.551,21.333,21.333,21.333
				s21.333-9.551,21.333-21.333v-42.667h42.667c11.782,0,21.333-9.551,21.333-21.333S494.723,398.649,482.941,398.649z"/>
		</g>
	</g>
</g>
<g>
</g>
<g>
</g>
<g>
</g>
<g>
</g>
<g>
</g>
<g>
</g>
<g>
</g>
<g>
</g>
<g>
</g>
<g>
</g>
<g>
</g>
<g>
</g>
<g>
</g>
<g>
</g>
<g>
</g>
</svg>
