<?xml version="1.0" encoding="iso-8859-1"?>
<!-- Generator: Adobe Illustrator 19.0.0, SVG Export Plug-In . SVG Version: 6.00 Build 0)  -->
<svg version="1.1" id="Layer_1" xmlns="http://www.w3.org/2000/svg" xmlns:xlink="http://www.w3.org/1999/xlink" x="0px" y="0px"
	 viewBox="0 0 512.015 512.015" style="enable-background:new 0 0 512.015 512.015;" xml:space="preserve">
<g>
	<g>
		<path d="M505.196,105.563L406.45,6.816c-9.089-9.089-23.824-9.089-32.913,0l-65.815,65.815c-0.797,0.797-1.498,1.65-2.155,2.526
			c-0.879,0.659-1.735,1.362-2.534,2.161l-65.664,65.664c-0.055,0.054-0.115,0.099-0.169,0.153
			c-45.486,45.486-119.07,45.486-164.557,0c-13.883-13.883-37.66-5.395-39.614,14.141L0.121,486.424
			c-1.463,14.632,10.842,26.936,25.474,25.472l329.123-32.931c19.535-1.955,28.022-25.731,14.139-39.613
			c-45.486-45.486-45.486-119.07,0-164.556c0.023-0.023,0.042-0.049,0.066-0.073l65.765-65.742c0.809-0.809,1.52-1.675,2.185-2.566
			c0.86-0.648,1.698-1.339,2.481-2.122l65.839-65.815C514.284,129.39,514.285,114.652,505.196,105.563z M308.993,436.762
			l-223.169,22.33l71.93-71.93c25.947,12.389,57.954,7.852,79.445-13.639c27.265-27.265,27.265-71.463,0-98.728
			c-27.265-27.265-71.463-27.265-98.728,0c-21.494,21.494-26.029,53.508-13.633,79.458l-71.915,71.915l22.312-223.165
			c55.502,31.182,125.324,27.294,177.256-11.661l68.162,68.162C281.696,311.436,277.81,381.26,308.993,436.762z M171.383,307.708
			c9.087-9.087,23.815-9.087,32.903,0c9.087,9.087,9.087,23.815,0,32.903c-9.087,9.087-23.815,9.087-32.903,0
			C162.296,331.523,162.296,316.795,171.383,307.708z M352.401,225.425l-65.817-65.833l32.905-32.905l65.831,65.831L352.401,225.425
			z M422.906,154.923L357.089,89.09l32.905-32.905l65.831,65.831L422.906,154.923z"/>
	</g>
</g>
<g>
</g>
<g>
</g>
<g>
</g>
<g>
</g>
<g>
</g>
<g>
</g>
<g>
</g>
<g>
</g>
<g>
</g>
<g>
</g>
<g>
</g>
<g>
</g>
<g>
</g>
<g>
</g>
<g>
</g>
</svg>
