<?xml version="1.0" encoding="iso-8859-1"?>
<!-- Generator: Adobe Illustrator 19.0.0, SVG Export Plug-In . SVG Version: 6.00 Build 0)  -->
<svg version="1.1" id="Layer_1" xmlns="http://www.w3.org/2000/svg" xmlns:xlink="http://www.w3.org/1999/xlink" x="0px" y="0px"
	 viewBox="0 0 503.234 503.234" style="enable-background:new 0 0 503.234 503.234;" xml:space="preserve">
<g>
	<g>
		<g>
			<path d="M364.56,178.001c15.587-8.998,13.713-32.066-3.122-38.43L77.833,32.349c-12.608-4.767-26.422,3.209-28.598,16.511
				L0.296,348.082c-2.905,17.761,16.133,30.917,31.72,21.919c51.068-29.482,116.228-12.024,145.706,39.038
				c5.891,10.204,18.939,13.701,29.143,7.809l110.848-64c10.203-5.891,13.699-18.938,7.809-29.141
				C296.04,272.639,313.497,207.48,364.56,178.001z M279.212,325.81L202.7,369.986c-36.739-46.812-97.643-66.817-154.186-52.376
				l33.184-202.892l46.612,80.732c-17.13,20.031-20.704,49.451-6.781,73.589c17.662,30.621,56.798,41.1,87.421,23.437
				c30.621-17.662,41.1-56.798,23.437-87.421c-13.925-24.142-41.197-35.75-67.122-30.931l-46.609-80.726l192.283,72.696
				C270.163,207.837,257.041,270.585,279.212,325.81z M195.427,226.372c5.895,10.221,2.404,23.261-7.795,29.144
				c-10.221,5.895-23.261,2.404-29.144-7.795c-5.895-10.221-2.404-23.261,7.796-29.144
				C176.504,212.682,189.544,216.173,195.427,226.372z"/>
			<path d="M481.9,429.608h-128c-11.782,0-21.333,9.551-21.333,21.333s9.551,21.333,21.333,21.333h128
				c11.782,0,21.333-9.551,21.333-21.333S493.682,429.608,481.9,429.608z"/>
		</g>
	</g>
</g>
<g>
</g>
<g>
</g>
<g>
</g>
<g>
</g>
<g>
</g>
<g>
</g>
<g>
</g>
<g>
</g>
<g>
</g>
<g>
</g>
<g>
</g>
<g>
</g>
<g>
</g>
<g>
</g>
<g>
</g>
</svg>
