<?xml version="1.0" encoding="iso-8859-1"?>
<!-- Generator: Adobe Illustrator 19.0.0, SVG Export Plug-In . SVG Version: 6.00 Build 0)  -->
<svg version="1.1" id="Layer_1" xmlns="http://www.w3.org/2000/svg" xmlns:xlink="http://www.w3.org/1999/xlink" x="0px" y="0px"
	 viewBox="0 0 491.652 491.652" style="enable-background:new 0 0 491.652 491.652;" xml:space="preserve">
<g>
	<g>
		<path d="M467.64,23.996c-31.969-31.996-83.858-31.996-115.839,0.012l-34.842,34.84l-52.05,52.031
			c-0.051,0.051-0.093,0.107-0.143,0.159L18.721,357.068c-3.134,3.134-5.167,7.199-5.793,11.586l-12.616,88.33
			c-2.831,20.07,14.345,37.246,34.388,34.347l88.294-12.61c4.387-0.627,8.452-2.659,11.586-5.793l246.185-246.185
			c0,0,0,0,0.001-0.001l57.917-57.917c0,0,0,0,0.001-0.001l28.962-28.962C499.648,107.86,499.648,55.976,467.64,23.996z
			 M337.323,96.41l57.918,57.931l-28.956,28.956l-57.926-57.925L337.323,96.41z M110.444,439.137l-67.587,9.653l9.653-67.586
			l226.884-226.87l57.926,57.926L110.444,439.137z M438.683,110.899l-14.48,14.48l-57.917-57.931l14.483-14.482
			c15.989-16.003,41.925-16.003,57.907-0.007C454.687,68.955,454.687,94.895,438.683,110.899z"/>
	</g>
</g>
<g>
</g>
<g>
</g>
<g>
</g>
<g>
</g>
<g>
</g>
<g>
</g>
<g>
</g>
<g>
</g>
<g>
</g>
<g>
</g>
<g>
</g>
<g>
</g>
<g>
</g>
<g>
</g>
<g>
</g>
</svg>
