<?xml version="1.0" encoding="iso-8859-1"?>
<!-- Generator: Adobe Illustrator 19.0.0, SVG Export Plug-In . SVG Version: 6.00 Build 0)  -->
<svg version="1.1" id="Layer_1" xmlns="http://www.w3.org/2000/svg" xmlns:xlink="http://www.w3.org/1999/xlink" x="0px" y="0px"
	 viewBox="0 0 512 512" style="enable-background:new 0 0 512 512;" xml:space="preserve">
<g>
	<g>
		<path d="M469.333,302.321v-92.641C494.192,200.895,512,177.206,512,149.333c0-35.355-28.645-64-64-64
			c-18.318,0-34.822,7.702-46.487,20.03l-276.035-59.15C117.772,19.52,93.18,0,64,0C28.645,0,0,28.645,0,64
			c0,27.872,17.808,51.562,42.667,60.346v263.308C17.808,396.438,0,420.128,0,448c0,35.355,28.645,64,64,64
			c29.18,0,53.772-19.52,61.478-46.213l276.035-59.15c11.665,12.328,28.169,20.03,46.487,20.03c35.355,0,64-28.645,64-64
			C512,334.794,494.192,311.105,469.333,302.321z M448,128c11.791,0,21.333,9.542,21.333,21.333s-9.542,21.333-21.333,21.333
			s-21.333-9.542-21.333-21.333S436.209,128,448,128z M64,42.667c11.791,0,21.333,9.542,21.333,21.333S75.791,85.333,64,85.333
			S42.667,75.791,42.667,64S52.209,42.667,64,42.667z M64,469.333c-11.791,0-21.333-9.542-21.333-21.333S52.209,426.667,64,426.667
			S85.333,436.209,85.333,448S75.791,469.333,64,469.333z M122.809,422.723c-7.019-16.315-20.625-29.115-37.475-35.069V124.346
			c16.85-5.954,30.456-18.754,37.475-35.069l261.333,56c-0.084,1.343-0.141,2.693-0.141,4.057c0,27.872,17.808,51.562,42.667,60.346
			v92.641C401.808,311.105,384,334.794,384,362.667c0,1.364,0.057,2.714,0.141,4.057L122.809,422.723z M448,384
			c-11.791,0-21.333-9.542-21.333-21.333s9.542-21.333,21.333-21.333s21.333,9.542,21.333,21.333S459.791,384,448,384z"/>
	</g>
</g>
<g>
</g>
<g>
</g>
<g>
</g>
<g>
</g>
<g>
</g>
<g>
</g>
<g>
</g>
<g>
</g>
<g>
</g>
<g>
</g>
<g>
</g>
<g>
</g>
<g>
</g>
<g>
</g>
<g>
</g>
</svg>
