<?xml version="1.0" encoding="iso-8859-1"?>
<!-- Generator: Adobe Illustrator 19.0.0, SVG Export Plug-In . SVG Version: 6.00 Build 0)  -->
<svg version="1.1" id="Layer_1" xmlns="http://www.w3.org/2000/svg" xmlns:xlink="http://www.w3.org/1999/xlink" x="0px" y="0px"
	 viewBox="0 0 512 512" style="enable-background:new 0 0 512 512;" xml:space="preserve">
<g>
	<g>
		<g>
			<path d="M490.667,64h-128c-11.782,0-21.333,9.551-21.333,21.333v21.333V128v85.333v21.333V320v21.333v64
				c-11.782,0-21.333,9.551-21.333,21.333S329.551,448,341.333,448h21.333h128c11.782,0,21.333-9.551,21.333-21.333V85.333
				C512,73.551,502.449,64,490.667,64z M469.333,405.333H384v-64V320v-85.333v-21.333V128v-21.333h85.333V405.333z"/>
			<path d="M42.667,405.333H21.333C9.551,405.333,0,414.885,0,426.667S9.551,448,21.333,448h21.333
				C54.449,448,64,438.449,64,426.667S54.449,405.333,42.667,405.333z"/>
			<path d="M21.333,384c11.782,0,21.333-9.551,21.333-21.333v-21.333c0-11.782-9.551-21.333-21.333-21.333
				C9.551,320,0,329.551,0,341.333v21.333C0,374.449,9.551,384,21.333,384z"/>
			<path d="M21.333,277.333c11.782,0,21.333-9.551,21.333-21.333v-21.333c0-11.782-9.551-21.333-21.333-21.333
				C9.551,213.333,0,222.885,0,234.667V256C0,267.782,9.551,277.333,21.333,277.333z"/>
			<path d="M21.333,170.667c11.782,0,21.333-9.551,21.333-21.333V128c0-11.782-9.551-21.333-21.333-21.333
				C9.551,106.667,0,116.218,0,128v21.333C0,161.115,9.551,170.667,21.333,170.667z"/>
			<path d="M85.333,64H64c-11.782,0-21.333,9.551-21.333,21.333c0,11.782,9.551,21.333,21.333,21.333h21.333
				c11.782,0,21.333-9.551,21.333-21.333C106.667,73.551,97.115,64,85.333,64z"/>
			<path d="M256,405.333h-21.333c-11.782,0-21.333,9.551-21.333,21.333S222.885,448,234.667,448H256
				c11.782,0,21.333-9.551,21.333-21.333S267.782,405.333,256,405.333z"/>
			<path d="M298.667,64h-21.333C265.551,64,256,73.551,256,85.333c0,11.782,9.551,21.333,21.333,21.333h21.333
				c11.782,0,21.333-9.551,21.333-21.333C320,73.551,310.449,64,298.667,64z"/>
			<path d="M149.333,405.333H128c-11.782,0-21.333,9.551-21.333,21.333S116.218,448,128,448h21.333
				c11.782,0,21.333-9.551,21.333-21.333S161.115,405.333,149.333,405.333z"/>
			<path d="M192,64h-21.333c-11.782,0-21.333,9.551-21.333,21.333c0,11.782,9.551,21.333,21.333,21.333H192
				c11.782,0,21.333-9.551,21.333-21.333C213.333,73.551,203.782,64,192,64z"/>
		</g>
	</g>
</g>
<g>
</g>
<g>
</g>
<g>
</g>
<g>
</g>
<g>
</g>
<g>
</g>
<g>
</g>
<g>
</g>
<g>
</g>
<g>
</g>
<g>
</g>
<g>
</g>
<g>
</g>
<g>
</g>
<g>
</g>
</svg>
