<?xml version="1.0" encoding="iso-8859-1"?>
<!-- Generator: Adobe Illustrator 19.0.0, SVG Export Plug-In . SVG Version: 6.00 Build 0)  -->
<svg version="1.1" id="Layer_1" xmlns="http://www.w3.org/2000/svg" xmlns:xlink="http://www.w3.org/1999/xlink" x="0px" y="0px"
	 viewBox="0 0 512 512" style="enable-background:new 0 0 512 512;" xml:space="preserve">
<g>
	<g>
		<path d="M505.752,134.248c-8.331-8.331-21.839-8.331-30.17,0l-6.248,6.248V128c0-70.747-57.253-128-128-128H170.667
			c-11.782,0-21.333,9.551-21.333,21.333v445.32c-36.835-9.456-64-42.838-64-82.653v-12.497l6.248,6.248
			c8.331,8.331,21.839,8.331,30.17,0c8.331-8.331,8.331-21.839,0-30.17l-42.667-42.667c-0.004-0.004-0.008-0.007-0.012-0.011
			c-0.493-0.492-1.012-0.959-1.551-1.402c-0.247-0.203-0.508-0.379-0.762-0.57c-0.303-0.227-0.6-0.462-0.915-0.673
			c-0.304-0.203-0.619-0.379-0.931-0.565c-0.286-0.171-0.565-0.35-0.859-0.507c-0.318-0.17-0.645-0.314-0.97-0.467
			c-0.306-0.145-0.608-0.298-0.922-0.428c-0.315-0.13-0.637-0.236-0.957-0.35c-0.337-0.121-0.669-0.25-1.013-0.354
			c-0.32-0.097-0.645-0.168-0.969-0.249c-0.351-0.089-0.698-0.187-1.056-0.258c-0.375-0.074-0.753-0.118-1.13-0.172
			c-0.311-0.044-0.618-0.104-0.933-0.135c-1.4-0.138-2.811-0.138-4.211,0c-0.315,0.031-0.621,0.09-0.933,0.135
			c-0.377,0.054-0.756,0.098-1.13,0.173c-0.358,0.071-0.704,0.169-1.055,0.258c-0.324,0.081-0.649,0.152-0.969,0.249
			c-0.344,0.104-0.677,0.233-1.013,0.354c-0.32,0.115-0.642,0.22-0.957,0.35c-0.314,0.13-0.615,0.283-0.921,0.428
			c-0.325,0.153-0.653,0.297-0.971,0.468c-0.293,0.157-0.572,0.336-0.857,0.506c-0.312,0.186-0.628,0.363-0.932,0.566
			c-0.315,0.211-0.611,0.445-0.913,0.671c-0.255,0.191-0.516,0.368-0.764,0.571c-0.535,0.439-1.05,0.903-1.54,1.392
			c-0.008,0.007-0.016,0.014-0.023,0.021L6.248,347.582c-8.331,8.331-8.331,21.839,0,30.17c8.331,8.331,21.839,8.331,30.17,0
			l6.248-6.248V384c0,70.747,57.253,128,128,128h170.667c11.782,0,21.333-9.551,21.333-21.333V45.347
			c36.835,9.456,64,42.838,64,82.653v12.497l-6.248-6.248c-8.331-8.331-21.839-8.331-30.17,0s-8.331,21.839,0,30.17l42.667,42.667
			c0.004,0.004,0.008,0.006,0.011,0.01c0.494,0.493,1.012,0.96,1.552,1.403c0.247,0.203,0.507,0.379,0.761,0.569
			c0.303,0.227,0.6,0.462,0.915,0.673c0.304,0.204,0.62,0.38,0.932,0.566c0.285,0.17,0.564,0.349,0.857,0.506
			c0.318,0.17,0.646,0.315,0.971,0.468c0.306,0.145,0.607,0.297,0.921,0.428c0.315,0.13,0.637,0.236,0.957,0.35
			c0.337,0.121,0.669,0.25,1.014,0.355c0.32,0.097,0.645,0.168,0.968,0.249c0.351,0.089,0.698,0.187,1.056,0.258
			c0.375,0.074,0.753,0.118,1.13,0.172c0.311,0.044,0.618,0.104,0.933,0.135c1.4,0.138,2.811,0.138,4.211,0
			c0.315-0.031,0.621-0.09,0.932-0.135c0.378-0.054,0.756-0.098,1.13-0.173c0.358-0.071,0.704-0.169,1.055-0.258
			c0.324-0.081,0.649-0.152,0.969-0.249c0.344-0.104,0.677-0.233,1.013-0.354c0.32-0.115,0.642-0.22,0.957-0.35
			c0.314-0.13,0.616-0.283,0.922-0.428c0.325-0.153,0.652-0.297,0.97-0.467c0.294-0.157,0.573-0.337,0.859-0.507
			c0.312-0.186,0.627-0.362,0.931-0.565c0.316-0.211,0.613-0.447,0.917-0.674c0.253-0.19,0.513-0.365,0.759-0.568
			c0.544-0.446,1.067-0.916,1.563-1.413l42.667-42.667C514.083,156.087,514.083,142.58,505.752,134.248z M320,469.333H192V42.667
			h128V469.333z"/>
	</g>
</g>
<g>
</g>
<g>
</g>
<g>
</g>
<g>
</g>
<g>
</g>
<g>
</g>
<g>
</g>
<g>
</g>
<g>
</g>
<g>
</g>
<g>
</g>
<g>
</g>
<g>
</g>
<g>
</g>
<g>
</g>
</svg>
