<?xml version="1.0" encoding="iso-8859-1"?>
<!-- Generator: Adobe Illustrator 19.0.0, SVG Export Plug-In . SVG Version: 6.00 Build 0)  -->
<svg version="1.1" id="Layer_1" xmlns="http://www.w3.org/2000/svg" xmlns:xlink="http://www.w3.org/1999/xlink" x="0px" y="0px"
	 viewBox="0 0 512 512" style="enable-background:new 0 0 512 512;" xml:space="preserve">
<g>
	<g>
		<path d="M490.667,149.333H45.347c9.456-36.835,42.838-64,82.653-64h12.497l-6.248,6.248c-8.331,8.331-8.331,21.839,0,30.17
			c8.331,8.331,21.839,8.331,30.17,0l42.667-42.667c0.497-0.497,0.967-1.02,1.413-1.563c0.202-0.246,0.378-0.506,0.568-0.759
			c0.228-0.304,0.463-0.601,0.674-0.917c0.203-0.304,0.379-0.619,0.565-0.931c0.171-0.286,0.35-0.565,0.507-0.859
			c0.17-0.318,0.314-0.645,0.467-0.97c0.145-0.306,0.298-0.608,0.428-0.922c0.13-0.315,0.236-0.637,0.35-0.957
			c0.121-0.337,0.25-0.669,0.354-1.013c0.097-0.32,0.168-0.645,0.249-0.969c0.089-0.351,0.187-0.698,0.258-1.056
			c0.074-0.375,0.118-0.753,0.172-1.13c0.044-0.311,0.104-0.618,0.135-0.933c0.138-1.4,0.138-2.811,0-4.211
			c-0.031-0.315-0.09-0.621-0.135-0.933c-0.054-0.377-0.098-0.756-0.173-1.13c-0.071-0.358-0.169-0.704-0.258-1.055
			c-0.081-0.324-0.152-0.649-0.249-0.969c-0.104-0.344-0.233-0.677-0.354-1.013c-0.115-0.32-0.22-0.642-0.35-0.957
			c-0.13-0.314-0.283-0.615-0.428-0.921c-0.153-0.325-0.297-0.653-0.468-0.971c-0.157-0.293-0.336-0.572-0.506-0.857
			c-0.186-0.312-0.363-0.628-0.566-0.932c-0.211-0.315-0.446-0.612-0.673-0.915c-0.19-0.254-0.366-0.514-0.569-0.761
			c-0.443-0.54-0.91-1.059-1.403-1.552c-0.004-0.004-0.006-0.008-0.01-0.011L164.418,6.248c-8.331-8.331-21.839-8.331-30.17,0
			c-8.331,8.331-8.331,21.839,0,30.17l6.248,6.248H128c-70.747,0-128,57.253-128,128v170.667c0,11.782,9.551,21.333,21.333,21.333
			h445.32c-9.456,36.835-42.838,64-82.653,64h-12.497l6.248-6.248c8.331-8.331,8.331-21.839,0-30.17
			c-8.331-8.331-21.839-8.331-30.17,0l-42.667,42.667c-0.008,0.008-0.014,0.016-0.021,0.023c-0.488,0.49-0.952,1.004-1.392,1.54
			c-0.204,0.248-0.38,0.509-0.571,0.764c-0.226,0.302-0.461,0.598-0.671,0.913c-0.204,0.304-0.38,0.62-0.566,0.932
			c-0.17,0.285-0.349,0.564-0.506,0.857c-0.17,0.318-0.315,0.646-0.468,0.971c-0.145,0.306-0.297,0.607-0.428,0.921
			c-0.13,0.315-0.236,0.637-0.35,0.957c-0.121,0.337-0.25,0.669-0.355,1.014c-0.097,0.32-0.168,0.645-0.249,0.968
			c-0.089,0.351-0.187,0.698-0.258,1.056c-0.074,0.375-0.118,0.753-0.172,1.13c-0.044,0.311-0.104,0.618-0.135,0.933
			c-0.138,1.4-0.138,2.811,0,4.211c0.031,0.315,0.09,0.621,0.135,0.932c0.054,0.378,0.098,0.756,0.173,1.13
			c0.071,0.358,0.169,0.704,0.258,1.055c0.081,0.324,0.152,0.649,0.249,0.969c0.104,0.344,0.233,0.677,0.354,1.013
			c0.115,0.32,0.22,0.642,0.35,0.957c0.13,0.314,0.283,0.616,0.428,0.922c0.153,0.325,0.297,0.652,0.467,0.97
			c0.157,0.294,0.337,0.573,0.507,0.859c0.186,0.312,0.362,0.627,0.565,0.931c0.211,0.315,0.446,0.612,0.673,0.915
			c0.19,0.254,0.367,0.515,0.57,0.762c0.443,0.539,0.909,1.058,1.402,1.551c0.004,0.004,0.007,0.008,0.011,0.012l42.667,42.667
			c8.331,8.331,21.839,8.331,30.17,0c8.331-8.331,8.331-21.839,0-30.17l-6.248-6.248H384c70.747,0,128-57.253,128-128V170.667
			C512,158.885,502.449,149.333,490.667,149.333z M42.667,192h426.667v128H42.667V192z"/>
	</g>
</g>
<g>
</g>
<g>
</g>
<g>
</g>
<g>
</g>
<g>
</g>
<g>
</g>
<g>
</g>
<g>
</g>
<g>
</g>
<g>
</g>
<g>
</g>
<g>
</g>
<g>
</g>
<g>
</g>
<g>
</g>
</svg>
