<?xml version="1.0" encoding="iso-8859-1"?>
<!-- Generator: Adobe Illustrator 19.0.0, SVG Export Plug-In . SVG Version: 6.00 Build 0)  -->
<svg version="1.1" id="Layer_1" xmlns="http://www.w3.org/2000/svg" xmlns:xlink="http://www.w3.org/1999/xlink" x="0px" y="0px"
	 viewBox="0 0 512 512" style="enable-background:new 0 0 512 512;" xml:space="preserve">
<g>
	<g>
		<g>
			<rect width="85.355" height="85.333"/>
			<rect x="213.333" width="85.355" height="85.333"/>
			<rect x="426.667" width="85.333" height="85.333"/>
			<rect y="426.667" width="85.333" height="85.333"/>
			<rect x="213.333" y="426.667" width="85.333" height="85.333"/>
			<rect x="426.667" y="426.667" width="85.333" height="85.333"/>
			<rect y="213.333" width="85.333" height="85.333"/>
			<rect x="426.667" y="213.333" width="85.333" height="85.333"/>
			<path d="M64,149.333C64,137.557,54.443,128,42.667,128s-21.333,9.557-21.333,21.333s9.557,21.333,21.333,21.333
				S64,161.109,64,149.333z"/>
			<path d="M64,362.667c0-11.776-9.557-21.333-21.333-21.333s-21.333,9.557-21.333,21.333S30.891,384,42.667,384
				S64,374.443,64,362.667z"/>
			<path d="M490.667,149.333c0-11.776-9.557-21.333-21.333-21.333S448,137.557,448,149.333s9.557,21.333,21.333,21.333
				S490.667,161.109,490.667,149.333z"/>
			<path d="M490.667,362.667c0-11.776-9.557-21.333-21.333-21.333S448,350.891,448,362.667S457.557,384,469.333,384
				S490.667,374.443,490.667,362.667z"/>
			<path d="M149.333,448C137.557,448,128,457.557,128,469.333s9.557,21.333,21.333,21.333s21.333-9.557,21.333-21.333
				S161.109,448,149.333,448z"/>
			<path d="M362.667,448c-11.776,0-21.333,9.557-21.333,21.333s9.557,21.333,21.333,21.333S384,481.109,384,469.333
				S374.443,448,362.667,448z"/>
			<path d="M149.333,21.333c-11.776,0-21.333,9.557-21.333,21.333S137.557,64,149.333,64s21.333-9.557,21.333-21.333
				S161.109,21.333,149.333,21.333z"/>
			<path d="M362.667,21.333c-11.776,0-21.333,9.557-21.333,21.333S350.891,64,362.667,64S384,54.443,384,42.667
				S374.443,21.333,362.667,21.333z"/>
		</g>
	</g>
</g>
<g>
</g>
<g>
</g>
<g>
</g>
<g>
</g>
<g>
</g>
<g>
</g>
<g>
</g>
<g>
</g>
<g>
</g>
<g>
</g>
<g>
</g>
<g>
</g>
<g>
</g>
<g>
</g>
<g>
</g>
</svg>
