<?xml version="1.0" encoding="iso-8859-1"?>
<!-- Generator: Adobe Illustrator 19.0.0, SVG Export Plug-In . SVG Version: 6.00 Build 0)  -->
<svg version="1.1" id="Layer_1" xmlns="http://www.w3.org/2000/svg" xmlns:xlink="http://www.w3.org/1999/xlink" x="0px" y="0px"
	 viewBox="0 0 512 512" style="enable-background:new 0 0 512 512;" xml:space="preserve">
<g>
	<g>
		<path d="M490.667,128c11.782,0,21.333-9.551,21.333-21.333V21.333C512,9.551,502.449,0,490.667,0h-85.333
			C393.551,0,384,9.551,384,21.333v21.333h-64V21.333C320,9.551,310.449,0,298.667,0h-85.333C201.551,0,192,9.551,192,21.333v21.333
			h-64V21.333C128,9.551,118.449,0,106.667,0H21.333C9.551,0,0,9.551,0,21.333v85.333C0,118.449,9.551,128,21.333,128h21.333v64
			H21.333C9.551,192,0,201.551,0,213.333v85.333C0,310.449,9.551,320,21.333,320h21.333v64H21.333C9.551,384,0,393.551,0,405.333
			v85.333C0,502.449,9.551,512,21.333,512h85.333c11.782,0,21.333-9.551,21.333-21.333v-21.333h64v21.333
			c0,11.782,9.551,21.333,21.333,21.333h85.333c11.782,0,21.333-9.551,21.333-21.333v-21.333h64v21.333
			c0,11.782,9.551,21.333,21.333,21.333h85.333c11.782,0,21.333-9.551,21.333-21.333v-85.333c0-11.782-9.551-21.333-21.333-21.333
			h-21.333v-64h21.333c11.782,0,21.333-9.551,21.333-21.333v-85.333c0-11.782-9.551-21.333-21.333-21.333h-21.333v-64H490.667z
			 M426.667,42.667h42.667v42.667h-42.667V42.667z M234.667,42.667h42.667v42.667h-42.667V42.667z M42.667,42.667h42.667v42.667
			H42.667V42.667z M42.667,234.667h42.667v42.667H42.667V234.667z M85.333,469.333H42.667v-42.667h42.667V469.333z M277.333,469.333
			h-42.667v-42.667h42.667V469.333z M469.333,469.333h-42.667v-42.667h42.667V469.333z M469.333,277.333h-42.667v-42.667h42.667
			V277.333z M426.667,192h-21.333C393.551,192,384,201.551,384,213.333v85.333c0,11.782,9.551,21.333,21.333,21.333h21.333v64
			h-21.333C393.551,384,384,393.551,384,405.333v21.333h-64v-21.333c0-11.782-9.551-21.333-21.333-21.333h-85.333
			C201.551,384,192,393.551,192,405.333v21.333h-64v-21.333c0-11.782-9.551-21.333-21.333-21.333H85.333v-64h21.333
			c11.782,0,21.333-9.551,21.333-21.333v-85.333c0-11.782-9.551-21.333-21.333-21.333H85.333v-64h21.333
			c11.782,0,21.333-9.551,21.333-21.333V85.333h64v21.333c0,11.782,9.551,21.333,21.333,21.333h85.333
			c11.782,0,21.333-9.551,21.333-21.333V85.333h64v21.333c0,11.782,9.551,21.333,21.333,21.333h21.333V192z"/>
	</g>
</g>
<g>
</g>
<g>
</g>
<g>
</g>
<g>
</g>
<g>
</g>
<g>
</g>
<g>
</g>
<g>
</g>
<g>
</g>
<g>
</g>
<g>
</g>
<g>
</g>
<g>
</g>
<g>
</g>
<g>
</g>
</svg>
