<?xml version="1.0" encoding="iso-8859-1"?>
<!-- Generator: Adobe Illustrator 19.0.0, SVG Export Plug-In . SVG Version: 6.00 Build 0)  -->
<svg version="1.1" id="Layer_1" xmlns="http://www.w3.org/2000/svg" xmlns:xlink="http://www.w3.org/1999/xlink" x="0px" y="0px"
	 viewBox="0 0 512.043 512.043" style="enable-background:new 0 0 512.043 512.043;" xml:space="preserve">
<g transform="translate(0 -1)">
	<g>
		<g>
			<path d="M505.752,476.625L36.418,7.291C22.979-6.148,0,3.37,0,22.376v469.333c0,11.782,9.551,21.333,21.333,21.333h469.333
				C509.673,513.043,519.191,490.064,505.752,476.625z M42.667,470.376V73.879l396.497,396.497H42.667z"/>
			<path d="M106.667,427.709h177.984c19.006,0,28.524-22.979,15.085-36.418L121.752,213.307
				c-13.439-13.439-36.418-3.921-36.418,15.085v177.984C85.333,418.158,94.885,427.709,106.667,427.709z M128,279.895
				l105.147,105.147H128V279.895z"/>
		</g>
	</g>
</g>
<g>
</g>
<g>
</g>
<g>
</g>
<g>
</g>
<g>
</g>
<g>
</g>
<g>
</g>
<g>
</g>
<g>
</g>
<g>
</g>
<g>
</g>
<g>
</g>
<g>
</g>
<g>
</g>
<g>
</g>
</svg>
