<?xml version="1.0" encoding="iso-8859-1"?>
<!-- Generator: Adobe Illustrator 19.0.0, SVG Export Plug-In . SVG Version: 6.00 Build 0)  -->
<svg version="1.1" id="Layer_1" xmlns="http://www.w3.org/2000/svg" xmlns:xlink="http://www.w3.org/1999/xlink" x="0px" y="0px"
	 viewBox="0 0 512 512" style="enable-background:new 0 0 512 512;" xml:space="preserve">
<g>
	<g>
		<g>
			<path d="M266.667,172.19V128H288c11.782,0,21.333-9.551,21.333-21.333V21.333C309.333,9.551,299.782,0,288,0h-85.333
				c-11.782,0-21.333,9.551-21.333,21.333v85.333c0,11.782,9.551,21.333,21.333,21.333H224v44.19C151.628,182.542,96,244.764,96,320
				v170.667C96,502.449,105.551,512,117.333,512h256c11.782,0,21.333-9.551,21.333-21.333V320
				C394.667,244.764,339.038,182.542,266.667,172.19z M224,42.667h42.667v42.667H224V42.667z M245.333,213.333
				c51.611,0,94.652,36.642,104.534,85.333H140.8C150.681,249.975,193.723,213.333,245.333,213.333z M352,469.333H138.667v-128H352
				V469.333z"/>
			<path d="M394.667,21.333H352c-11.782,0-21.333,9.551-21.333,21.333C330.667,54.449,340.218,64,352,64h42.667
				C406.449,64,416,54.449,416,42.667C416,30.885,406.449,21.333,394.667,21.333z"/>
			<path d="M367.085,91.582c-8.331-8.331-21.839-8.331-30.17,0s-8.331,21.839,0,30.17l21.333,21.333
				c8.331,8.331,21.839,8.331,30.17,0s8.331-21.839,0-30.17L367.085,91.582z"/>
		</g>
	</g>
</g>
<g>
</g>
<g>
</g>
<g>
</g>
<g>
</g>
<g>
</g>
<g>
</g>
<g>
</g>
<g>
</g>
<g>
</g>
<g>
</g>
<g>
</g>
<g>
</g>
<g>
</g>
<g>
</g>
<g>
</g>
</svg>
