<?xml version="1.0" encoding="iso-8859-1"?>
<!-- Generator: Adobe Illustrator 19.0.0, SVG Export Plug-In . SVG Version: 6.00 Build 0)  -->
<svg version="1.1" id="Layer_1" xmlns="http://www.w3.org/2000/svg" xmlns:xlink="http://www.w3.org/1999/xlink" x="0px" y="0px"
	 viewBox="0 0 512 512" style="enable-background:new 0 0 512 512;" xml:space="preserve">
<g>
	<g>
		<g>
			<path d="M490.667,384h-30.843l-100.4-160.64c-3.898-6.237-10.735-10.027-18.091-10.027H170.667
				c-7.356,0-14.192,3.789-18.091,10.027L52.176,384H21.333C9.551,384,0,393.551,0,405.333v85.333C0,502.449,9.551,512,21.333,512
				h85.333c11.782,0,21.333-9.551,21.333-21.333v-85.333c0-11.782-9.551-21.333-21.333-21.333h-4.176l80-128h147.019l80,128h-4.176
				C393.551,384,384,393.551,384,405.333v85.333c0,11.782,9.551,21.333,21.333,21.333h85.333c11.782,0,21.333-9.551,21.333-21.333
				v-85.333C512,393.551,502.449,384,490.667,384z M85.333,469.333H42.667v-42.667h42.667V469.333z M469.333,469.333h-42.667
				v-42.667h42.667V469.333z"/>
			<path d="M21.333,128h85.333c11.782,0,21.333-9.551,21.333-21.333V21.333C128,9.551,118.449,0,106.667,0H21.333
				C9.551,0,0,9.551,0,21.333v85.333C0,118.449,9.551,128,21.333,128z M42.667,42.667h42.667v42.667H42.667V42.667z"/>
			<path d="M490.667,0h-85.333C393.551,0,384,9.551,384,21.333v85.333c0,11.782,9.551,21.333,21.333,21.333h85.333
				c11.782,0,21.333-9.551,21.333-21.333V21.333C512,9.551,502.449,0,490.667,0z M469.333,85.333h-42.667V42.667h42.667V85.333z"/>
			<path d="M256,85.333c11.776,0,21.333-9.557,21.333-21.333S267.776,42.667,256,42.667S234.667,52.224,234.667,64
				S244.224,85.333,256,85.333z"/>
			<path d="M170.667,85.333C182.443,85.333,192,75.776,192,64s-9.557-21.333-21.333-21.333S149.333,52.224,149.333,64
				S158.891,85.333,170.667,85.333z"/>
			<path d="M341.333,85.333c11.776,0,21.333-9.557,21.333-21.333s-9.557-21.333-21.333-21.333C329.557,42.667,320,52.224,320,64
				S329.557,85.333,341.333,85.333z"/>
			<path d="M448,192c11.776,0,21.333-9.557,21.333-21.333s-9.557-21.333-21.333-21.333s-21.333,9.557-21.333,21.333
				S436.224,192,448,192z"/>
			<path d="M448,277.333c11.776,0,21.333-9.557,21.333-21.333s-9.557-21.333-21.333-21.333s-21.333,9.557-21.333,21.333
				S436.224,277.333,448,277.333z"/>
			<path d="M64,149.333c-11.776,0-21.333,9.557-21.333,21.333S52.224,192,64,192s21.333-9.557,21.333-21.333
				S75.776,149.333,64,149.333z"/>
			<path d="M64,234.667c-11.776,0-21.333,9.557-21.333,21.333S52.224,277.333,64,277.333S85.333,267.776,85.333,256
				S75.776,234.667,64,234.667z"/>
			<path d="M256,426.667c-11.776,0-21.333,9.557-21.333,21.333s9.557,21.333,21.333,21.333s21.333-9.557,21.333-21.333
				S267.776,426.667,256,426.667z"/>
			<path d="M170.667,426.667c-11.776,0-21.333,9.557-21.333,21.333s9.557,21.333,21.333,21.333S192,459.776,192,448
				S182.443,426.667,170.667,426.667z"/>
			<path d="M341.333,426.667C329.557,426.667,320,436.224,320,448s9.557,21.333,21.333,21.333c11.776,0,21.333-9.557,21.333-21.333
				S353.109,426.667,341.333,426.667z"/>
		</g>
	</g>
</g>
<g>
</g>
<g>
</g>
<g>
</g>
<g>
</g>
<g>
</g>
<g>
</g>
<g>
</g>
<g>
</g>
<g>
</g>
<g>
</g>
<g>
</g>
<g>
</g>
<g>
</g>
<g>
</g>
<g>
</g>
</svg>
