<?xml version="1.0" encoding="iso-8859-1"?>
<!-- Generator: Adobe Illustrator 19.0.0, SVG Export Plug-In . SVG Version: 6.00 Build 0)  -->
<svg version="1.1" id="Layer_1" xmlns="http://www.w3.org/2000/svg" xmlns:xlink="http://www.w3.org/1999/xlink" x="0px" y="0px"
	 viewBox="0 0 512 512" style="enable-background:new 0 0 512 512;" xml:space="preserve">
<g>
	<g>
		<g>
			<path d="M21.333,128c11.782,0,21.333-9.551,21.333-21.333v-64h64c11.782,0,21.333-9.551,21.333-21.333
				C128,9.551,118.449,0,106.667,0H21.333C9.551,0,0,9.551,0,21.333v85.333C0,118.449,9.551,128,21.333,128z"/>
			<path d="M490.667,0h-85.333C393.551,0,384,9.551,384,21.333c0,11.782,9.551,21.333,21.333,21.333h64v64
				c0,11.782,9.551,21.333,21.333,21.333S512,118.449,512,106.667V21.333C512,9.551,502.449,0,490.667,0z"/>
			<path d="M490.667,384c-11.782,0-21.333,9.551-21.333,21.333v64h-64c-11.782,0-21.333,9.551-21.333,21.333
				S393.551,512,405.333,512h85.333c11.782,0,21.333-9.551,21.333-21.333v-85.333C512,393.551,502.449,384,490.667,384z"/>
			<path d="M106.667,469.333h-64v-64c0-11.782-9.551-21.333-21.333-21.333C9.551,384,0,393.551,0,405.333v85.333
				C0,502.449,9.551,512,21.333,512h85.333c11.782,0,21.333-9.551,21.333-21.333S118.449,469.333,106.667,469.333z"/>
			<path d="M256,0c-46.982,0-85.333,38.351-85.333,85.333v128c0,11.782,9.551,21.333,21.333,21.333s21.333-9.551,21.333-21.333v-128
				c0-23.418,19.249-42.667,42.667-42.667s42.667,19.249,42.667,42.667v128c0,11.782,9.551,21.333,21.333,21.333
				s21.333-9.551,21.333-21.333v-128C341.333,38.351,302.982,0,256,0z"/>
			<path d="M320,277.333c-11.782,0-21.333,9.551-21.333,21.333v128c0,23.418-19.249,42.667-42.667,42.667
				s-42.667-19.249-42.667-42.667v-128c0-11.782-9.551-21.333-21.333-21.333s-21.333,9.551-21.333,21.333v128
				C170.667,473.649,209.018,512,256,512s85.333-38.351,85.333-85.333v-128C341.333,286.885,331.782,277.333,320,277.333z"/>
			<path d="M64,277.333h64c11.782,0,21.333-9.551,21.333-21.333s-9.551-21.333-21.333-21.333H64
				c-11.782,0-21.333,9.551-21.333,21.333S52.218,277.333,64,277.333z"/>
			<path d="M100.418,134.248c-8.331-8.331-21.839-8.331-30.17,0s-8.331,21.839,0,30.17l42.667,42.667
				c8.331,8.331,21.839,8.331,30.17,0s8.331-21.839,0-30.17L100.418,134.248z"/>
			<path d="M112.915,304.915l-42.667,42.667c-8.331,8.331-8.331,21.839,0,30.17c8.331,8.331,21.839,8.331,30.17,0l42.667-42.667
				c8.331-8.331,8.331-21.839,0-30.17S121.246,296.584,112.915,304.915z"/>
			<path d="M384,277.333h64c11.782,0,21.333-9.551,21.333-21.333s-9.551-21.333-21.333-21.333h-64
				c-11.782,0-21.333,9.551-21.333,21.333S372.218,277.333,384,277.333z"/>
			<path d="M399.085,207.085l42.667-42.667c8.331-8.331,8.331-21.839,0-30.17c-8.331-8.331-21.839-8.331-30.17,0l-42.667,42.667
				c-8.331,8.331-8.331,21.839,0,30.17C377.246,215.416,390.754,215.416,399.085,207.085z"/>
			<path d="M441.752,377.752c8.331-8.331,8.331-21.839,0-30.17l-42.667-42.667c-8.331-8.331-21.839-8.331-30.17,0
				c-8.331,8.331-8.331,21.839,0,30.17l42.667,42.667C419.913,386.083,433.42,386.083,441.752,377.752z"/>
		</g>
	</g>
</g>
<g>
</g>
<g>
</g>
<g>
</g>
<g>
</g>
<g>
</g>
<g>
</g>
<g>
</g>
<g>
</g>
<g>
</g>
<g>
</g>
<g>
</g>
<g>
</g>
<g>
</g>
<g>
</g>
<g>
</g>
</svg>
