<?xml version="1.0" encoding="iso-8859-1"?>
<!-- Generator: Adobe Illustrator 19.0.0, SVG Export Plug-In . SVG Version: 6.00 Build 0)  -->
<svg version="1.1" id="Layer_1" xmlns="http://www.w3.org/2000/svg" xmlns:xlink="http://www.w3.org/1999/xlink" x="0px" y="0px"
	 viewBox="0 0 512 512" style="enable-background:new 0 0 512 512;" xml:space="preserve">
<g>
	<g>
		<g>
			<path d="M106.667,0H21.333C9.551,0,0,9.551,0,21.333v85.333C0,118.449,9.551,128,21.333,128c11.782,0,21.333-9.551,21.333-21.333
				v-64h64c11.782,0,21.333-9.551,21.333-21.333C128,9.551,118.449,0,106.667,0z"/>
			<path d="M490.667,0h-85.333C393.551,0,384,9.551,384,21.333c0,11.782,9.551,21.333,21.333,21.333h64v64
				c0,11.782,9.551,21.333,21.333,21.333S512,118.449,512,106.667V21.333C512,9.551,502.449,0,490.667,0z"/>
			<path d="M490.667,384c-11.782,0-21.333,9.551-21.333,21.333v64h-64c-11.782,0-21.333,9.551-21.333,21.333
				S393.551,512,405.333,512h85.333c11.782,0,21.333-9.551,21.333-21.333v-85.333C512,393.551,502.449,384,490.667,384z"/>
			<path d="M106.667,469.333h-64v-64c0-11.782-9.551-21.333-21.333-21.333C9.551,384,0,393.551,0,405.333v85.333
				C0,502.449,9.551,512,21.333,512h85.333c11.782,0,21.333-9.551,21.333-21.333S118.449,469.333,106.667,469.333z"/>
			<path d="M256,0c-46.982,0-85.333,38.351-85.333,85.333V192c0,25.443,11.262,48.34,29.037,64
				c-17.775,15.66-29.037,38.557-29.037,64v106.667C170.667,473.649,209.018,512,256,512s85.333-38.351,85.333-85.333V320
				c0-25.443-11.262-48.34-29.037-64c17.775-15.66,29.037-38.557,29.037-64V85.333C341.333,38.351,302.982,0,256,0z M213.333,85.333
				c0-23.418,19.249-42.667,42.667-42.667s42.667,19.249,42.667,42.667V192c0,15.665-8.62,29.455-21.333,36.875V192
				c0-11.782-9.551-21.333-21.333-21.333s-21.333,9.551-21.333,21.333v36.875c-12.713-7.42-21.333-21.21-21.333-36.875V85.333z
				 M298.667,426.667c0,23.418-19.249,42.667-42.667,42.667s-42.667-19.249-42.667-42.667V320c0-15.665,8.62-29.455,21.333-36.875
				V320c0,11.782,9.551,21.333,21.333,21.333s21.333-9.551,21.333-21.333v-36.875c12.713,7.42,21.333,21.21,21.333,36.875V426.667z"
				/>
		</g>
	</g>
</g>
<g>
</g>
<g>
</g>
<g>
</g>
<g>
</g>
<g>
</g>
<g>
</g>
<g>
</g>
<g>
</g>
<g>
</g>
<g>
</g>
<g>
</g>
<g>
</g>
<g>
</g>
<g>
</g>
<g>
</g>
</svg>
