<?xml version="1.0" encoding="iso-8859-1"?>
<!-- Generator: Adobe Illustrator 19.0.0, SVG Export Plug-In . SVG Version: 6.00 Build 0)  -->
<svg version="1.1" id="Layer_1" xmlns="http://www.w3.org/2000/svg" xmlns:xlink="http://www.w3.org/1999/xlink" x="0px" y="0px"
	 viewBox="0 0 512 512" style="enable-background:new 0 0 512 512;" xml:space="preserve">
<g>
	<g>
		<path d="M512,256v-85.333h-85.333V192H320V85.333h21.333V0H256v21.333H85.333V0H0v85.333h21.333V256H0v85.333h85.333V320H192
			v106.667h-21.333V512H256v-21.333h170.667V512H512v-85.333h-21.333V256H512z M64,149.333h213.333V192H64V149.333z M85.333,85.333
			V64H256v21.333h21.333v21.333H64V85.333H85.333z M64,256v-21.333h213.333V256H256v21.333h-42.667h-128V256H64z M448,426.667
			h-21.333V448H256v-21.333h-21.333V320H256v21.333h85.333V256H320v-21.333h106.667V256H448V426.667z"/>
	</g>
</g>
<g>
</g>
<g>
</g>
<g>
</g>
<g>
</g>
<g>
</g>
<g>
</g>
<g>
</g>
<g>
</g>
<g>
</g>
<g>
</g>
<g>
</g>
<g>
</g>
<g>
</g>
<g>
</g>
<g>
</g>
</svg>
