<?xml version="1.0" encoding="iso-8859-1"?>
<!-- Generator: Adobe Illustrator 19.0.0, SVG Export Plug-In . SVG Version: 6.00 Build 0)  -->
<svg version="1.1" id="Layer_1" xmlns="http://www.w3.org/2000/svg" xmlns:xlink="http://www.w3.org/1999/xlink" x="0px" y="0px"
	 viewBox="0 0 512 512" style="enable-background:new 0 0 512 512;" xml:space="preserve">
<g>
	<g>
		<g>
			<path d="M448,21.333C448,9.551,438.449,0,426.667,0H85.333C73.551,0,64,9.551,64,21.333v128c0,11.782,9.551,21.333,21.333,21.333
				H128h21.333h85.333H256h85.333h21.333h42.667V192c0,11.782,9.551,21.333,21.333,21.333S448,203.782,448,192v-21.333
				c0-3.89-1.058-7.526-2.877-10.667c1.819-3.14,2.877-6.776,2.877-10.667V21.333z M362.667,128h-21.333H256h-21.333h-85.333H128
				h-21.333V42.667h298.667V128H362.667z"/>
			<path d="M85.333,448c11.782,0,21.333-9.551,21.333-21.333v-21.333c0-11.782-9.551-21.333-21.333-21.333
				C73.551,384,64,393.551,64,405.333v21.333C64,438.449,73.551,448,85.333,448z"/>
			<path d="M106.667,469.333H85.333c-11.782,0-21.333,9.551-21.333,21.333S73.551,512,85.333,512h21.333
				c11.782,0,21.333-9.551,21.333-21.333S118.449,469.333,106.667,469.333z"/>
			<path d="M85.333,341.333c11.782,0,21.333-9.551,21.333-21.333v-21.333c0-11.782-9.551-21.333-21.333-21.333
				c-11.782,0-21.333,9.551-21.333,21.333V320C64,331.782,73.551,341.333,85.333,341.333z"/>
			<path d="M213.333,469.333H192c-11.782,0-21.333,9.551-21.333,21.333S180.218,512,192,512h21.333
				c11.782,0,21.333-9.551,21.333-21.333S225.115,469.333,213.333,469.333z"/>
			<path d="M64,192v21.333c0,11.782,9.551,21.333,21.333,21.333c11.782,0,21.333-9.551,21.333-21.333V192
				c0-11.782-9.551-21.333-21.333-21.333C73.551,170.667,64,180.218,64,192z"/>
			<path d="M320,469.333h-21.333c-11.782,0-21.333,9.551-21.333,21.333S286.885,512,298.667,512H320
				c11.782,0,21.333-9.551,21.333-21.333S331.782,469.333,320,469.333z"/>
			<path d="M426.667,362.667c-11.782,0-21.333,9.551-21.333,21.333v21.333c0,11.782,9.551,21.333,21.333,21.333
				S448,417.115,448,405.333V384C448,372.218,438.449,362.667,426.667,362.667z"/>
			<path d="M426.667,256c-11.782,0-21.333,9.551-21.333,21.333v21.333c0,11.782,9.551,21.333,21.333,21.333S448,310.449,448,298.667
				v-21.333C448,265.551,438.449,256,426.667,256z"/>
			<path d="M426.667,448c-11.782,0-21.333,9.551-21.333,21.333c-11.782,0-21.333,9.551-21.333,21.333S393.551,512,405.333,512
				h21.333c11.782,0,21.333-9.551,21.333-21.333v-21.333C448,457.551,438.449,448,426.667,448z"/>
		</g>
	</g>
</g>
<g>
</g>
<g>
</g>
<g>
</g>
<g>
</g>
<g>
</g>
<g>
</g>
<g>
</g>
<g>
</g>
<g>
</g>
<g>
</g>
<g>
</g>
<g>
</g>
<g>
</g>
<g>
</g>
<g>
</g>
</svg>
