<?xml version="1.0" encoding="iso-8859-1"?>
<!-- Generator: Adobe Illustrator 19.0.0, SVG Export Plug-In . SVG Version: 6.00 Build 0)  -->
<svg version="1.1" id="Layer_1" xmlns="http://www.w3.org/2000/svg" xmlns:xlink="http://www.w3.org/1999/xlink" x="0px" y="0px"
	 viewBox="0 0 512 512" style="enable-background:new 0 0 512 512;" xml:space="preserve">
<g>
	<g>
		<g>
			<path d="M127.515,165.76c9.169-7.399,10.603-20.83,3.204-29.999c-7.399-9.169-20.83-10.603-29.999-3.204
				c-12.326,9.947-23.518,21.239-33.355,33.654c-7.317,9.234-5.763,22.652,3.471,29.97c9.234,7.317,22.652,5.763,29.969-3.471
				C108.682,182.768,117.645,173.725,127.515,165.76z"/>
			<path d="M68.166,260.948c2.586-11.495-4.637-22.909-16.132-25.495s-22.909,4.637-25.495,16.132
				c-3.45,15.338-5.206,31.101-5.206,47.081H0V384h85.333v-85.333H64C64,285.841,65.406,273.218,68.166,260.948z"/>
			<path d="M485.461,251.585c-2.586-11.495-14-18.717-25.495-16.132s-18.717,14-16.132,25.495c2.76,12.27,4.166,24.893,4.166,37.719
				h-21.333V384H512v-85.333h-21.333C490.667,282.687,488.91,266.924,485.461,251.585z"/>
			<path d="M441.164,196.18c9.234-7.317,10.789-20.735,3.471-29.97c-9.837-12.414-21.029-23.706-33.355-33.654
				c-9.169-7.399-22.6-5.965-29.999,3.204c-7.399,9.169-5.965,22.6,3.204,29.999c9.87,7.965,18.833,17.008,26.709,26.948
				C418.512,201.943,431.93,203.497,441.164,196.18z"/>
			<path d="M42.667,106.667c15.798,0,29.573-8.582,36.949-21.333H192v4.269c-2.105,0.427-4.203,0.878-6.292,1.368
				c-11.471,2.69-18.59,14.169-15.9,25.64c2.69,11.471,14.169,18.59,25.64,15.9c12.249-2.872,24.86-4.391,37.681-4.504
				c0.039,0,0.076-0.006,0.114-0.007h45.514c0.039,0.001,0.076,0.006,0.114,0.007c12.821,0.112,25.432,1.632,37.681,4.504
				c11.471,2.69,22.95-4.429,25.64-15.9s-4.429-22.95-15.9-25.64c-2.089-0.49-4.187-0.941-6.292-1.368v-4.269h112.385
				c7.376,12.752,21.151,21.333,36.949,21.333C492.907,106.667,512,87.573,512,64c0-23.573-19.093-42.667-42.667-42.667
				c-15.798,0-29.573,8.582-36.949,21.333H320V21.333C320,9.551,310.449,0,298.667,0h-85.333C201.551,0,192,9.551,192,21.333v21.333
				H79.615C72.24,29.915,58.464,21.333,42.667,21.333C19.093,21.333,0,40.427,0,64C0,87.573,19.093,106.667,42.667,106.667z
				 M234.667,42.667h42.667v42.667h-42.667V42.667z"/>
			<path d="M272.197,156.783c-8.514-9.933-23.881-9.933-32.395,0l-128,149.333c-11.861,13.838-2.029,35.217,16.197,35.217
				c35.386,0,64,28.614,64,64v85.333c0,11.782,9.551,21.333,21.333,21.333h85.333c11.782,0,21.333-9.551,21.333-21.333v-85.333
				c0-35.386,28.614-64,64-64c18.226,0,28.059-21.378,16.198-35.217L272.197,156.783z M234.667,469.333v-42.667h42.667v42.667
				H234.667z M279.476,384h-46.953c-7.182-35.432-31.891-64.471-64.711-77.667L256,203.447l88.188,102.885
				C311.367,319.529,286.658,348.568,279.476,384z"/>
		</g>
	</g>
</g>
<g>
</g>
<g>
</g>
<g>
</g>
<g>
</g>
<g>
</g>
<g>
</g>
<g>
</g>
<g>
</g>
<g>
</g>
<g>
</g>
<g>
</g>
<g>
</g>
<g>
</g>
<g>
</g>
<g>
</g>
</svg>
