<?xml version="1.0" encoding="iso-8859-1"?>
<!-- Generator: Adobe Illustrator 19.0.0, SVG Export Plug-In . SVG Version: 6.00 Build 0)  -->
<svg version="1.1" id="Layer_1" xmlns="http://www.w3.org/2000/svg" xmlns:xlink="http://www.w3.org/1999/xlink" x="0px" y="0px"
	 viewBox="0 0 512 512" style="enable-background:new 0 0 512 512;" xml:space="preserve">
<g>
	<g>
		<path d="M490.667,330.667h-22.39C459.742,244.52,400.073,173.529,320,148.42v-9.754h112.385
			C439.76,151.418,453.536,160,469.333,160C492.907,160,512,140.907,512,117.333c0-23.573-19.093-42.667-42.667-42.667
			c-15.798,0-29.573,8.582-36.949,21.333H320V74.667c0-11.782-9.551-21.333-21.333-21.333h-85.333
			c-11.782,0-21.333,9.551-21.333,21.333V96H79.615C72.24,83.248,58.464,74.667,42.667,74.667C19.093,74.667,0,93.76,0,117.333
			C0,140.907,19.093,160,42.667,160c15.798,0,29.573-8.582,36.949-21.333H192v9.754c-80.073,25.108-139.742,96.1-148.277,182.246
			h-22.39C9.551,330.667,0,340.218,0,352v85.333c0,11.782,9.551,21.333,21.333,21.333h85.333c11.782,0,21.333-9.551,21.333-21.333
			V352c0-11.782-9.551-21.333-21.333-21.333H86.655C97.133,246.408,168.875,181.333,256,181.333s158.867,65.075,169.345,149.333
			h-20.012C393.551,330.667,384,340.218,384,352v85.333c0,11.782,9.551,21.333,21.333,21.333h85.333
			c11.782,0,21.333-9.551,21.333-21.333V352C512,340.218,502.449,330.667,490.667,330.667z M85.333,416H42.667v-42.667h42.667V416z
			 M234.667,138.667V96h42.667v42.667H234.667z M469.333,416h-42.667v-42.667h42.667V416z"/>
	</g>
</g>
<g>
</g>
<g>
</g>
<g>
</g>
<g>
</g>
<g>
</g>
<g>
</g>
<g>
</g>
<g>
</g>
<g>
</g>
<g>
</g>
<g>
</g>
<g>
</g>
<g>
</g>
<g>
</g>
<g>
</g>
</svg>
