<?xml version="1.0" encoding="iso-8859-1"?>
<!-- Generator: Adobe Illustrator 19.0.0, SVG Export Plug-In . SVG Version: 6.00 Build 0)  -->
<svg version="1.1" id="Layer_1" xmlns="http://www.w3.org/2000/svg" xmlns:xlink="http://www.w3.org/1999/xlink" x="0px" y="0px"
	 viewBox="0 0 512 512" style="enable-background:new 0 0 512 512;" xml:space="preserve">
<g>
	<g>
		<path d="M490.667,128c11.782,0,21.333-9.551,21.333-21.333V21.333C512,9.551,502.449,0,490.667,0h-85.333
			C393.551,0,384,9.551,384,21.333V97.83L275.753,206.078c-9.995-89.272-67.008-154.434-151.114-162.548
			C116.101,18.223,92.193,0,64,0C28.645,0,0,28.645,0,64s28.645,64,64,64c27.475,0,50.889-17.302,59.966-41.606
			c67.623,8.444,110.701,66.748,110.701,148.272c0,3.616,0.907,7.018,2.495,10.002L97.83,384H21.333C9.551,384,0,393.551,0,405.333
			v85.333C0,502.449,9.551,512,21.333,512h85.333c11.782,0,21.333-9.551,21.333-21.333V414.17l108.247-108.247
			c9.995,89.272,67.008,154.434,151.115,162.548C395.899,493.777,419.807,512,448,512c35.355,0,64-28.645,64-64
			c0-35.355-28.645-64-64-64c-27.475,0-50.889,17.302-59.966,41.606c-67.623-8.444-110.701-66.748-110.701-148.272
			c0-3.616-0.907-7.018-2.495-10.002L414.17,128H490.667z M64,85.333c-11.791,0-21.333-9.542-21.333-21.333S52.209,42.667,64,42.667
			S85.333,52.209,85.333,64S75.791,85.333,64,85.333z M448,426.667c11.791,0,21.333,9.542,21.333,21.333
			s-9.542,21.333-21.333,21.333s-21.333-9.542-21.333-21.333S436.209,426.667,448,426.667z M426.667,42.667h42.667v42.667h-42.667
			V42.667z M85.333,469.333H42.667v-42.667h42.667V469.333z"/>
	</g>
</g>
<g>
</g>
<g>
</g>
<g>
</g>
<g>
</g>
<g>
</g>
<g>
</g>
<g>
</g>
<g>
</g>
<g>
</g>
<g>
</g>
<g>
</g>
<g>
</g>
<g>
</g>
<g>
</g>
<g>
</g>
</svg>
