<?xml version="1.0" encoding="iso-8859-1"?>
<!-- Generator: Adobe Illustrator 19.0.0, SVG Export Plug-In . SVG Version: 6.00 Build 0)  -->
<svg version="1.1" id="Layer_1" xmlns="http://www.w3.org/2000/svg" xmlns:xlink="http://www.w3.org/1999/xlink" x="0px" y="0px"
	 viewBox="0 0 512 512" style="enable-background:new 0 0 512 512;" xml:space="preserve">
<g>
	<g>
		<g>
			<path d="M106.667,330.667H86.664c0.686-5.52,1.622-10.989,2.835-16.385c2.585-11.495-4.637-22.909-16.132-25.495
				c-11.495-2.585-22.909,4.637-25.495,16.132c-1.904,8.464-3.272,17.06-4.134,25.748H21.333C9.551,330.667,0,340.218,0,352v85.333
				c0,11.782,9.551,21.333,21.333,21.333h85.333c11.782,0,21.333-9.551,21.333-21.333V352
				C128,340.218,118.449,330.667,106.667,330.667z M85.333,416H42.667v-42.667h42.667V416z"/>
			<path d="M320,138.667h112.385C439.76,151.418,453.536,160,469.333,160C492.907,160,512,140.907,512,117.333
				c0-23.573-19.093-42.667-42.667-42.667c-15.798,0-29.573,8.582-36.949,21.333H320V74.667c0-11.782-9.551-21.333-21.333-21.333
				h-85.333c-11.782,0-21.333,9.551-21.333,21.333V96H79.615C72.24,83.248,58.464,74.667,42.667,74.667
				C19.093,74.667,0,93.76,0,117.333C0,140.907,19.093,160,42.667,160c15.798,0,29.573-8.582,36.949-21.333H192v18.749
				c-1.489,3.861-1.875,8.195-0.859,12.529c2.69,11.471,14.169,18.59,25.64,15.9c12.249-2.872,24.86-4.392,37.681-4.504
				c0.039,0,0.076-0.006,0.114-0.007h2.847c0.039,0.001,0.076,0.006,0.114,0.007c12.821,0.112,25.432,1.632,37.681,4.504
				c11.471,2.69,22.95-4.429,25.64-15.9c1.016-4.333,0.631-8.667-0.859-12.529V138.667z M234.667,96h42.667v42.667h-42.667V96z"/>
			<path d="M490.667,330.667h-22.406c-0.862-8.688-2.23-17.284-4.134-25.748c-2.586-11.495-14-18.717-25.495-16.132
				c-11.495,2.586-18.717,14-16.132,25.495c1.214,5.397,2.15,10.865,2.835,16.385h-20.003C393.551,330.667,384,340.218,384,352
				v85.333c0,11.782,9.551,21.333,21.333,21.333h85.333c11.782,0,21.333-9.551,21.333-21.333V352
				C512,340.218,502.449,330.667,490.667,330.667z M469.333,416h-42.667v-42.667h42.667V416z"/>
			<path d="M122.053,185.89c-12.326,9.947-23.518,21.239-33.355,33.654c-7.317,9.234-5.763,22.652,3.471,29.969
				c9.234,7.317,22.652,5.763,29.969-3.471c7.877-9.94,16.839-18.983,26.709-26.948c9.169-7.399,10.603-20.83,3.204-29.999
				C144.653,179.925,131.221,178.491,122.053,185.89z"/>
			<path d="M419.831,249.513c9.234-7.317,10.789-20.735,3.471-29.969c-9.837-12.415-21.029-23.706-33.355-33.654
				c-9.169-7.399-22.6-5.965-29.999,3.204c-7.399,9.169-5.965,22.6,3.204,29.999c9.87,7.965,18.833,17.008,26.709,26.948
				C397.179,255.276,410.596,256.83,419.831,249.513z"/>
		</g>
	</g>
</g>
<g>
</g>
<g>
</g>
<g>
</g>
<g>
</g>
<g>
</g>
<g>
</g>
<g>
</g>
<g>
</g>
<g>
</g>
<g>
</g>
<g>
</g>
<g>
</g>
<g>
</g>
<g>
</g>
<g>
</g>
</svg>
