<?xml version="1.0" encoding="utf-8"?>
<!-- Generator: Adobe Illustrator 21.0.0, SVG Export Plug-In . SVG Version: 6.00 Build 0)  -->
<svg version="1.1" xmlns="http://www.w3.org/2000/svg" xmlns:xlink="http://www.w3.org/1999/xlink" x="0px" y="0px"
	 viewBox="0 0 128 128" style="enable-background:new 0 0 128 128;" xml:space="preserve">
<g id="frame">
	<g>
		<path d="M115,7c3.3,0,6,2.7,6,6v102c0,3.3-2.7,6-6,6H13c-3.3,0-6-2.7-6-6V13c0-3.3,2.7-6,6-6H115 M115,1H13C6.4,1,1,6.4,1,13v102
			c0,6.6,5.4,12,12,12h102c6.6,0,12-5.4,12-12V13C127,6.4,121.6,1,115,1L115,1z"/>
	</g>
</g>
<g id="ftont">
	<g>
		<path d="M23.2,46.6c-1.1,0-1.8-0.2-2.2-0.7c-0.4-0.5-0.6-1.2-0.6-2.1c0-0.9,0.2-1.6,0.6-2.1c0.4-0.5,1.1-0.7,2.2-0.7h36.1
			c1.1,0,1.8,0.2,2.2,0.7c0.4,0.5,0.6,1.2,0.6,2.1c0,0.9-0.2,1.6-0.6,2.1c-0.4,0.5-1.1,0.7-2.2,0.7H45.4V57h13.6
			c0.9,0,1.6,0.2,2.1,0.6c0.5,0.4,0.7,1.2,0.7,2.3c0,1.2-0.2,2-0.6,2.3c-0.4,0.3-1.1,0.5-2.2,0.5H45.4v14.7h15.7
			c1.1,0,1.8,0.2,2.2,0.7c0.4,0.5,0.6,1.2,0.6,2.1c0,0.9-0.2,1.6-0.6,2.1c-0.4,0.5-1.1,0.7-2.2,0.7h-41c-1,0-1.7-0.2-2.2-0.7
			c-0.4-0.5-0.6-1.2-0.6-2.1c0-0.9,0.2-1.6,0.6-2.1c0.4-0.5,1.1-0.7,2.2-0.7h4.8v-24c0-1.2,0.3-1.9,0.8-2.2c0.6-0.3,1.3-0.5,2.1-0.5
			c0.9,0,1.6,0.2,2.1,0.5c0.5,0.3,0.7,1,0.7,2.2v24h8.8V46.6H23.2z"/>
		<path d="M83.1,49.9c0.4-0.6,0.7-1.4,1-2.2c0.3-0.8,0.6-1.5,0.9-2.1H69.2c-1.1,0-1.9-0.2-2.2-0.6c-0.4-0.4-0.5-1.1-0.5-1.9
			c0-0.8,0.2-1.5,0.5-2c0.4-0.5,1.1-0.8,2.2-0.8h39.2c1.1,0,1.9,0.2,2.2,0.7c0.4,0.5,0.5,1.1,0.5,1.9c0,0.8-0.2,1.5-0.5,2
			c-0.4,0.5-1.1,0.8-2.2,0.8H91.3c-0.3,0.6-0.5,1.4-0.8,2.2c-0.3,0.8-0.6,1.5-0.9,2.1h14.1c1.1,0,1.9,0.1,2.6,0.2
			c0.7,0.1,1.2,0.3,1.6,0.7c0.4,0.4,0.7,0.9,0.8,1.5c0.2,0.7,0.2,1.6,0.2,2.7v22.1c0,1.1-0.1,1.9-0.2,2.6c-0.1,0.7-0.4,1.3-0.8,1.7
			s-0.9,0.7-1.6,0.9c-0.7,0.2-1.6,0.3-2.7,0.3H73.9c-1,0-1.9-0.1-2.5-0.2s-1.2-0.4-1.6-0.8c-0.4-0.4-0.7-1-0.8-1.7
			c-0.2-0.7-0.2-1.6-0.2-2.8V55.1c0-1.1,0.1-2,0.2-2.7s0.4-1.2,0.8-1.6c0.4-0.4,0.9-0.6,1.6-0.7c0.7-0.1,1.6-0.2,2.7-0.2H83.1z
			 M74.1,76.3c0,0.4,0,0.6,0.1,0.8c0.1,0.1,0.4,0.2,0.8,0.2h3.8V55.3H75c-0.4,0-0.6,0-0.8,0.1c-0.1,0.1-0.2,0.4-0.2,0.8V76.3z
			 M84.3,59h8.8v-3.7h-8.8V59z M84.3,68h8.8V64h-8.8V68z M84.3,77.2h8.8v-4.3h-8.8V77.2z M98.6,55.3v21.9h3.8c0.5,0,0.8-0.1,0.9-0.2
			c0.1-0.1,0.2-0.4,0.2-0.8V56.4c0-0.4,0-0.7-0.1-0.9c-0.1-0.1-0.4-0.2-0.9-0.2H98.6z"/>
	</g>
</g>
</svg>
