<?xml version="1.0" encoding="utf-8"?>
<!-- Generator: Adobe Illustrator 21.0.0, SVG Export Plug-In . SVG Version: 6.00 Build 0)  -->
<svg version="1.1" id="layer0" xmlns="http://www.w3.org/2000/svg" xmlns:xlink="http://www.w3.org/1999/xlink" x="0px" y="0px"
	 viewBox="0 0 128 128" style="enable-background:new 0 0 128 128;" xml:space="preserve">
<style type="text/css">
	.st0{enable-background:new    ;}
</style>
<g id="frame">
	<g>
		<path d="M115,7c3.3,0,6,2.7,6,6v102c0,3.3-2.7,6-6,6H13c-3.3,0-6-2.7-6-6V13c0-3.3,2.7-6,6-6H115 M115,1H13C6.4,1,1,6.4,1,13v102
			c0,6.6,5.4,12,12,12h102c6.6,0,12-5.4,12-12V13C127,6.4,121.6,1,115,1L115,1z"/>
	</g>
</g>
<g class="st0">
	<path d="M40.4,40.1c-0.1,0.3-0.1,0.6-0.2,0.9c-0.1,0.3-0.1,0.6-0.2,0.9h20.1c1.1,0,1.8,0.2,2.2,0.7c0.4,0.5,0.6,1.2,0.6,2.1
		c0,0.9-0.2,1.7-0.6,2.2c-0.4,0.5-1.1,0.8-2.2,0.8h-22c-0.5,1.4-1.2,2.7-1.9,4.1c-0.7,1.3-1.4,2.7-2.2,4h23.9c1.1,0,1.8,0.2,2.2,0.7
		c0.4,0.5,0.6,1.2,0.6,2.1c0,0.9-0.2,1.6-0.6,2.1c-0.4,0.5-1.1,0.7-2.2,0.7H46.3v14.3h13.9c1.1,0,1.8,0.2,2.2,0.7
		c0.4,0.5,0.6,1.2,0.6,2.1c0,1-0.2,1.7-0.6,2.1c-0.4,0.5-1.1,0.7-2.2,0.7H24.8c-1.1,0-1.8-0.2-2.2-0.7c-0.4-0.5-0.6-1.2-0.6-2.1
		c0-0.9,0.2-1.6,0.6-2.1c0.4-0.5,1.1-0.7,2.2-0.7h15.6V61.5h-6.1c-0.9,0-1.6-0.2-2-0.5c-0.4-0.3-0.6-0.8-0.7-1.4
		c-1.5,2.2-3,4.2-4.6,6c-1.6,1.8-3.1,3.3-4.7,4.6c-1.3,1-2.3,1.6-3.1,1.6c-0.8,0-1.5-0.3-2.1-1c-0.7-0.8-1-1.7-0.7-2.5
		c0.2-0.8,0.8-1.7,1.8-2.5c1.3-1.1,2.7-2.3,4-3.6c1.3-1.4,2.5-2.8,3.7-4.4c1.2-1.6,2.3-3.2,3.3-4.9c1-1.7,1.9-3.4,2.7-5.2H20.9
		c-1.1,0-1.8-0.3-2.2-0.8c-0.4-0.5-0.6-1.3-0.6-2.2c0-0.9,0.2-1.6,0.6-2.1c0.4-0.5,1.1-0.7,2.2-0.7H34c0.2-0.5,0.3-1,0.4-1.4
		c0.1-0.5,0.2-1,0.3-1.4c0.3-1.2,0.7-2.1,1.2-2.5c0.5-0.4,1.4-0.6,2.4-0.6c1,0.1,1.7,0.5,2,1.2C40.6,37.7,40.6,38.7,40.4,40.1z"/>
	<path d="M73.8,79.2c0,1-0.2,1.8-0.6,2.3c-0.4,0.5-1,0.7-1.8,0.7c-0.9,0-1.5-0.2-1.8-0.7c-0.3-0.5-0.5-1.2-0.5-2.3V60.9
		c-0.6,0.8-1.3,1.3-1.9,1.3c-0.6,0-1.2-0.2-1.6-0.6c-0.7-0.6-1.1-1.3-1.1-2.1s0.4-1.9,1.2-3.2c0.8-1.3,1.5-2.7,2.1-4
		s1.1-2.6,1.6-3.9c0.4-1.3,0.8-2.7,1.2-4.1c0.4-1.4,0.7-2.9,1-4.5c0.2-1.3,0.6-2.2,1-2.8c0.4-0.6,1.1-0.8,2.1-0.7
		c1.9,0.3,2.4,1.9,1.8,4.7c-0.4,1.9-0.9,3.6-1.3,5.2c-0.4,1.5-0.8,3-1.3,4.3V79.2z M94.9,80.4c-0.7,0.5-1.3,0.7-1.8,0.7
		c-0.5-0.1-1.1-0.5-1.7-1.4c-0.4-0.5-0.7-0.9-1-1.4c-0.3-0.4-0.6-0.9-1-1.3s-0.7-0.9-1.1-1.4c-0.4-0.5-0.9-1-1.4-1.6
		c-0.4-0.5-0.7-0.9-0.9-1.3c-0.6,1.4-1.3,2.8-2.1,4c-0.8,1.2-1.8,2.5-3,4c-0.4,0.4-0.8,0.8-1.3,1c-0.5,0.2-0.9,0.4-1.3,0.4
		c-0.4,0-0.8-0.1-1.2-0.2c-0.4-0.2-0.6-0.5-0.8-0.8c-0.4-0.6-0.5-1.2-0.4-1.7c0.1-0.5,0.5-1.1,1.1-1.9c0.8-0.9,1.5-1.7,2.2-2.4
		c0.6-0.7,1.2-1.5,1.7-2.4s0.9-1.9,1.3-3.1c0.4-1.2,0.6-2.7,0.9-4.5s0.4-4,0.5-6.5c0.1-2.5,0.2-5.6,0.2-9.2c0-1.2,0.1-2.1,0.4-2.7
		s1-0.9,2-0.8c0.9,0.1,1.6,0.3,1.9,0.8s0.5,1.3,0.5,2.6v0c0,2.5-0.1,4.7-0.1,6.7s-0.2,3.8-0.3,5.5c-0.1,1.7-0.3,3.2-0.5,4.5
		c-0.2,1.4-0.4,2.6-0.7,3.8c0.5-0.4,1.1-0.4,1.8-0.2s1.2,0.6,1.8,1.2c1,1.2,1.9,2.2,2.5,3c0.7,0.8,1.3,1.6,2,2.5
		c0.6,0.9,1,1.7,1,2.4C96,79.3,95.6,79.9,94.9,80.4L94.9,80.4z M95.1,67.3c0,1.9-0.8,2.8-2.4,2.8c-0.8,0-1.4-0.2-1.8-0.6
		c-0.4-0.4-0.5-1.2-0.5-2.2V44.7c0-0.2,0-0.4-0.1-0.7c-0.1-0.2-0.3-0.3-0.6-0.3h-7.1c-0.2,0-0.4,0.1-0.5,0.3
		c-0.1,0.2-0.1,0.4-0.1,0.7v22.6c0,1-0.2,1.7-0.5,2.1c-0.3,0.5-0.9,0.7-1.8,0.7c-0.9,0-1.5-0.2-1.8-0.6c-0.4-0.4-0.5-1.2-0.5-2.2
		V43.2c0-1.9,0.3-3.1,0.9-3.8s1.7-1,3.3-1h9.4c1.5,0,2.6,0.3,3.3,1s1,1.9,1,3.8V67.3z M109.3,74.2c0,3.6-0.9,5.9-2.6,6.8
		c-1.7,0.9-4.4,0.8-7.9-0.4c-0.8-0.3-1.4-0.7-1.8-1.4c-0.5-0.7-0.5-1.6-0.1-2.8c0.3-0.7,0.7-1.2,1.4-1.4c0.7-0.2,1.3-0.1,1.9,0.1
		c0.8,0.4,1.5,0.7,2.1,0.8c0.6,0.1,1,0,1.3-0.2c0.3-0.2,0.5-0.5,0.7-0.9c0.1-0.4,0.2-0.9,0.2-1.3V38.9c0-1.9,0.8-2.8,2.4-2.8
		c0.8,0,1.4,0.2,1.8,0.6s0.6,1.2,0.6,2.2V74.2z M102.5,68c0,1.1-0.2,1.8-0.7,2.2c-0.4,0.4-1,0.6-1.7,0.6c-0.8,0-1.4-0.2-1.8-0.6
		c-0.4-0.4-0.6-1.1-0.6-2.2V43c0-1.2,0.2-1.9,0.6-2.2c0.4-0.3,1-0.5,1.8-0.5c0.7,0,1.3,0.2,1.7,0.5c0.4,0.3,0.7,1,0.7,2.2V68z"/>
</g>
</svg>
