<?xml version="1.0" encoding="utf-8"?>
<!-- Generator: Adobe Illustrator 21.0.0, SVG Export Plug-In . SVG Version: 6.00 Build 0)  -->
<svg version="1.1" id="レイヤー_1" xmlns="http://www.w3.org/2000/svg" xmlns:xlink="http://www.w3.org/1999/xlink" x="0px"
	 y="0px" viewBox="0 0 128 128" style="enable-background:new 0 0 128 128;" xml:space="preserve">
<style type="text/css">
	.st0{enable-background:new    ;}
</style>
<g id="frame">
	<g>
		<path d="M115,7c3.3,0,6,2.7,6,6v102c0,3.3-2.7,6-6,6H13c-3.3,0-6-2.7-6-6V13c0-3.3,2.7-6,6-6H115 M115,1H13C6.4,1,1,6.4,1,13v102
			c0,6.6,5.4,12,12,12h102c6.6,0,12-5.4,12-12V13C127,6.4,121.6,1,115,1L115,1z"/>
	</g>
</g>
<g id="后面" class="st0">
	<path d="M27,59.4c0,3.5-0.3,6.9-1,10.1c-0.7,3.2-1.8,6.4-3.5,9.7c-0.7,1.5-1.5,2.3-2.3,2.5c-0.8,0.2-1.6,0.1-2.5-0.4
		c-0.8-0.4-1.3-1.1-1.4-1.9c-0.1-0.8,0.2-1.8,0.8-3c1.5-2.6,2.6-5.3,3.2-8.2c0.6-2.8,0.9-5.6,0.9-8.4V46.5c0-1.4,0.1-2.6,0.3-3.5
		c0.2-0.9,0.6-1.7,1.2-2.2c0.5-0.6,1.3-1,2.2-1.2c0.9-0.2,2-0.4,3.3-0.4c4.2,0,8.5-0.1,12.9-0.3c4.4-0.2,9-0.6,13.9-1.2
		c1.5-0.2,2.6,0,3.3,0.3s1,1.1,1.1,2.1c0,1-0.2,1.8-0.7,2.2s-1.4,0.7-3,0.9c-5,0.4-9.6,0.7-13.9,0.9c-4.3,0.2-8.5,0.3-12.7,0.3
		c-0.9,0-1.5,0.1-1.8,0.4c-0.3,0.3-0.4,0.7-0.4,1.3v2.9h32.8c1.1,0,1.8,0.2,2.3,0.6s0.6,1.1,0.6,2c0,1-0.2,1.7-0.6,2.1
		c-0.4,0.4-1.2,0.6-2.3,0.6H27V59.4z M58.6,75c0,1.8-0.3,3.1-1,3.9c-0.7,0.8-1.9,1.1-3.8,1.1H32.8c-1.9,0-3.1-0.4-3.8-1.1
		c-0.7-0.8-1-2-1-3.9V64.9c0-1.8,0.4-3.2,1.2-4.2c0.8-1,2.2-1.5,4-1.5h20.1c1.9,0,3.2,0.4,4,1.2c0.8,0.8,1.2,2.1,1.2,3.9V75z
		 M53,66.1c0-0.4-0.1-0.8-0.3-1c-0.2-0.2-0.6-0.3-1.2-0.3H35c-0.6,0-1,0.1-1.2,0.4c-0.2,0.3-0.2,0.6-0.2,1v7.1
		c0,0.5,0.1,0.9,0.3,1.1c0.2,0.2,0.6,0.2,1.1,0.2h16.5c0.6,0,1-0.1,1.2-0.3c0.2-0.2,0.3-0.5,0.3-1V66.1z"/>
	<path d="M82.2,48.3c0.4-0.6,0.7-1.4,1-2.2c0.3-0.8,0.6-1.5,0.9-2.1H68.3c-1.1,0-1.9-0.2-2.2-0.6s-0.5-1.1-0.5-1.9
		c0-0.8,0.2-1.5,0.5-2c0.4-0.5,1.1-0.8,2.2-0.8h39.2c1.1,0,1.9,0.2,2.2,0.7c0.4,0.5,0.5,1.1,0.5,1.9c0,0.8-0.2,1.5-0.5,2
		c-0.4,0.5-1.1,0.8-2.2,0.8H90.4c-0.3,0.6-0.5,1.4-0.8,2.2c-0.3,0.8-0.6,1.5-0.9,2.1h14.1c1.1,0,1.9,0.1,2.6,0.2
		c0.7,0.1,1.2,0.3,1.6,0.7c0.4,0.4,0.7,0.9,0.8,1.5c0.2,0.7,0.2,1.6,0.2,2.7v22.1c0,1.1-0.1,1.9-0.2,2.6c-0.1,0.7-0.4,1.3-0.8,1.7
		s-0.9,0.7-1.6,0.9c-0.7,0.2-1.6,0.3-2.7,0.3H72.9c-1,0-1.9-0.1-2.5-0.2c-0.7-0.1-1.2-0.4-1.6-0.8c-0.4-0.4-0.7-1-0.8-1.7
		c-0.2-0.7-0.2-1.6-0.2-2.8V53.4c0-1.1,0.1-2,0.2-2.7s0.4-1.2,0.8-1.6c0.4-0.4,0.9-0.6,1.6-0.7c0.7-0.1,1.6-0.2,2.7-0.2H82.2z
		 M73.1,74.7c0,0.4,0,0.6,0.1,0.8s0.4,0.2,0.8,0.2h3.8V53.7h-3.8c-0.4,0-0.6,0-0.8,0.1c-0.1,0.1-0.2,0.4-0.2,0.8V74.7z M83.3,57.4
		h8.8v-3.7h-8.8V57.4z M83.3,66.3h8.8v-3.9h-8.8V66.3z M83.3,75.6h8.8v-4.3h-8.8V75.6z M97.6,53.7v21.9h3.8c0.5,0,0.8-0.1,0.9-0.2
		c0.1-0.1,0.2-0.4,0.2-0.8V54.7c0-0.4,0-0.7-0.1-0.9c-0.1-0.1-0.4-0.2-0.9-0.2H97.6z"/>
</g>
</svg>
