<?xml version="1.0" encoding="iso-8859-1"?>
<!-- Generator: Adobe Illustrator 16.0.0, SVG Export Plug-In . SVG Version: 6.00 Build 0)  -->
<!DOCTYPE svg PUBLIC "-//W3C//DTD SVG 1.1//EN" "http://www.w3.org/Graphics/SVG/1.1/DTD/svg11.dtd">
<svg version="1.1" id="Capa_1" xmlns="http://www.w3.org/2000/svg" xmlns:xlink="http://www.w3.org/1999/xlink" x="0px" y="0px"
	 width="612px" height="612px" viewBox="0 0 612 612" style="enable-background:new 0 0 612 612;" xml:space="preserve">
<g>
	<g>
		<path d="M398.459,612H65.584c-36.162,0-65.58-29.438-65.58-65.61V306.005c0-36.162,29.417-65.59,65.58-65.59h332.875
			c36.162,0,65.59,29.428,65.59,65.59v32.107l73.761-52.08c7.988-5.612,17.333-8.565,27.041-8.565
			c15.31,0,29.71,7.463,38.508,19.982c5.653,8.009,8.637,17.374,8.637,27.051V546.4c0,25.979-21.125,47.124-47.095,47.124
			c-10.688,0-21.155-3.681-29.487-10.375l-71.364-50.351v13.611C464.059,582.562,434.631,612,398.459,612z M65.584,260.63
			c-25.008,0-45.354,20.356-45.354,45.375V546.39c0,25.028,20.346,45.375,45.354,45.375h332.875
			c25.019,0,45.364-20.356,45.364-45.375v-33.118c0-3.782,2.104-7.24,5.461-8.98c3.348-1.739,7.382-1.466,10.486,0.708l87.817,61.99
			c5.31,4.257,11.134,6.3,17.312,6.3c14.815,0,26.869-12.064,26.869-26.899V324.491c0-5.481-1.719-10.801-4.955-15.401
			c-8.201-11.65-25.625-14.745-37.346-6.513l-89.688,63.324c-3.085,2.175-7.13,2.458-10.487,0.708
			c-3.357-1.739-5.46-5.197-5.46-8.979v-51.625c0-25.018-20.356-45.365-45.365-45.365H65.584V260.63z M352.225,223.639
			c-61.656,0-111.814-50.158-111.814-111.814C240.41,50.168,290.568,0,352.225,0c61.666,0,111.834,50.168,111.834,111.834
			C464.059,173.48,413.891,223.639,352.225,223.639z M352.225,20.225c-50.502,0-91.589,41.087-91.589,91.609
			c0,50.502,41.077,91.589,91.589,91.589c50.512,0,91.609-41.077,91.609-91.589C443.834,61.312,402.736,20.225,352.225,20.225z
			 M111.839,223.639c-61.666,0-111.834-50.158-111.834-111.804C0.005,50.168,50.173,0,111.839,0
			c61.656,0,111.814,50.168,111.814,111.834C223.644,173.48,173.485,223.639,111.839,223.639z M111.839,20.225
			c-50.522,0-91.609,41.087-91.609,91.609c0,50.502,41.087,91.589,91.609,91.589c50.502,0,91.589-41.077,91.589-91.589
			C203.418,61.312,162.341,20.225,111.839,20.225z"/>
	</g>
</g>
<g>
</g>
<g>
</g>
<g>
</g>
<g>
</g>
<g>
</g>
<g>
</g>
<g>
</g>
<g>
</g>
<g>
</g>
<g>
</g>
<g>
</g>
<g>
</g>
<g>
</g>
<g>
</g>
<g>
</g>
</svg>
